<svg xmlns="http://www.w3.org/2000/svg" xmlns:v="https://svgstorm.com"
viewBox = "0 0 1080 967"
width="1080"
height="967">
<g fill="None" fill-opacity="0.0" stroke="#000000" stroke-opacity="0.00" stroke-width="0.3"><path d="
M 0.00 967.00 
L 1080.00 967.00
L 1080.00 0.00
L 0.00 0.00
L 0.00 967.00
M 433.00 233.00 
C 384.21 236.43 339.72 269.42 317.08 312.08 C 262.74 415.70 262.27 556.46 319.25 659.75 C 344.42 702.42 388.49 735.00 439.02 735.98 C 453.01 734.62 446.93 754.97 450.00 764.00 C 451.79 774.24 456.12 787.61 451.90 796.90 C 436.29 787.99 414.22 771.12 396.75 787.75 C 368.95 816.85 369.49 875.18 395.23 905.77 C 403.39 913.98 416.59 912.61 427.22 911.22 C 437.38 909.64 443.09 898.32 453.00 897.00
C 454.19 909.00 451.51 921.65 449.67 933.67 C 446.73 944.13 451.97 965.90 434.00 961.00 C 233.33 962.83 61.93 793.25 24.01 603.99 C -27.44 394.99 60.95 155.43 255.25 53.25 C 307.17 26.74 363.45 11.82 422.02 7.02 C 440.88 2.87 428.74 24.94 430.00 35.00 C 425.09 54.56 421.74 95.96 453.02 90.02 C 463.42 87.98 469.58 77.72 479.22 74.22 C 492.80 70.63 499.03 85.40 499.98 96.02 C 504.45 117.79 506.72 148.43 488.92 163.92 C 477.51 168.55 469.31 156.33 460.30 151.70 C 451.39 145.61 436.56 146.34 431.08 157.08 C 421.08 181.38 432.96 207.83 433.00 233.00
M 447.00 70.00 
C 448.65 48.84 450.65 27.76 454.00 7.00
C 660.81 8.83 835.53 186.45 867.00 384.00 C 914.53 608.58 796.76 865.71 574.32 940.32 C 543.63 950.35 510.56 958.08 477.00 960.00 C 460.87 965.85 469.82 944.60 469.98 935.98 C 472.42 916.44 481.17 887.14 458.77 876.23 C 438.77 867.94 422.33 906.41 405.23 886.77 C 394.26 867.00 395.91 840.95 400.00 819.00 C 401.89 809.66 409.77 797.09 421.07 801.93 C 433.87 814.34 462.10 828.65 470.31 804.31 C 478.37 781.35 466.75 757.43 467.33 734.33 C 563.85 714.57 603.64 607.04 608.00 519.00 C 614.48 424.17 599.28 315.23 519.92 256.08 C 503.17 243.63 483.56 236.49 462.99 234.01 C 447.74 235.26 454.27 215.83 450.22 206.78 C 450.14 194.53 447.69 183.05 447.00 171.00 C 454.91 167.02 462.35 181.86 471.68 182.32 C 508.74 196.71 524.89 149.89 523.00 121.00 C 524.93 91.72 510.93 44.09 472.93 55.93 C 463.72 58.78 456.76 66.53 447.97 69.97
M 1073.00 961.00 
C 1003.25 960.86 937.63 963.19 867.00 961.00 C 851.36 962.73 863.19 943.36 862.00 935.00 C 882.07 865.36 948.22 825.35 993.30 772.30 C 1011.05 751.41 1016.26 711.39 990.25 694.75 C 961.88 678.53 925.64 702.62 929.00 735.00 C 929.70 748.90 910.44 738.71 902.33 739.67 C 891.12 738.92 880.27 736.64 869.00 736.00 C 858.44 732.42 868.38 716.45 867.98 707.98 C 886.08 617.19 1037.62 609.89 1067.78 695.22 C 1093.16 763.05 1037.18 821.43 990.25 862.25 C 977.85 873.14 963.91 886.29 954.41 899.75 C 962.90 905.62 976.34 898.97 987.00 901.00 C 1011.67 901.00 1036.33 901.00 1061.00 901.00 C 1078.22 896.16 1072.03 915.71 1073.00 926.00 C 1072.65 937.68 1073.52 950.04 1073.00 961.00 Z"/>
</g>
<g fill="None" fill-opacity="0.0" stroke="#9E1427" stroke-opacity="0.99" stroke-width="0.3"><path d="
M 433.00 233.00 
C 432.96 207.83 421.08 181.38 431.08 157.08 C 436.56 146.34 451.39 145.61 460.30 151.70 C 469.31 156.33 477.51 168.55 488.92 163.92 C 506.72 148.43 504.45 117.79 499.98 96.02 C 499.03 85.40 492.80 70.63 479.22 74.22 C 469.58 77.72 463.42 87.98 453.02 90.02 C 421.74 95.96 425.09 54.56 430.00 35.00 C 428.74 24.94 440.88 2.87 422.02 7.02 C 363.45 11.82 307.17 26.74 255.25 53.25 C 60.95 155.43 -27.44 394.99 24.01 603.99 C 61.93 793.25 233.33 962.83 434.00 961.00 C 451.97 965.90 446.73 944.13 449.67 933.67 C 451.51 921.65 454.19 909.00 453.00 897.00
C 443.09 898.32 437.38 909.64 427.22 911.22 C 416.59 912.61 403.39 913.98 395.23 905.77 C 369.49 875.18 368.95 816.85 396.75 787.75 C 414.22 771.12 436.29 787.99 451.90 796.90 C 456.12 787.61 451.79 774.24 450.00 764.00 C 446.93 754.97 453.01 734.62 439.02 735.98 C 388.49 735.00 344.42 702.42 319.25 659.75 C 262.27 556.46 262.74 415.70 317.08 312.08 C 339.72 269.42 384.21 236.43 433.00 233.00 Z"/>
</g>
<g fill="None" fill-opacity="0.0" stroke="#9E1427" stroke-opacity="0.99" stroke-width="0.3"><path d="
M 447.97 69.97 
C 456.76 66.53 463.72 58.78 472.93 55.93 C 510.93 44.09 524.93 91.72 523.00 121.00 C 524.89 149.89 508.74 196.71 471.68 182.32 C 462.35 181.86 454.91 167.02 447.00 171.00 C 447.69 183.05 450.14 194.53 450.22 206.78 C 454.27 215.83 447.74 235.26 462.99 234.01 C 483.56 236.49 503.17 243.63 519.92 256.08 C 599.28 315.23 614.48 424.17 608.00 519.00 C 603.64 607.04 563.85 714.57 467.33 734.33 C 466.75 757.43 478.37 781.35 470.31 804.31 C 462.10 828.65 433.87 814.34 421.07 801.93 C 409.77 797.09 401.89 809.66 400.00 819.00 C 395.91 840.95 394.26 867.00 405.23 886.77 C 422.33 906.41 438.77 867.94 458.77 876.23 C 481.17 887.14 472.42 916.44 469.98 935.98 C 469.82 944.60 460.87 965.85 477.00 960.00 C 510.56 958.08 543.63 950.35 574.32 940.32 C 796.76 865.71 914.53 608.58 867.00 384.00 C 835.53 186.45 660.81 8.83 454.00 7.00
C 450.65 27.76 448.65 48.84 447.00 70.00 Z"/>
</g>
<g fill="None" fill-opacity="0.0" stroke="#9E1427" stroke-opacity="0.95" stroke-width="0.3"><path d="
M 1073.00 961.00 
C 1073.52 950.04 1072.65 937.68 1073.00 926.00 C 1072.03 915.71 1078.22 896.16 1061.00 901.00 C 1036.33 901.00 1011.67 901.00 987.00 901.00 C 976.34 898.97 962.90 905.62 954.41 899.75 C 963.91 886.29 977.85 873.14 990.25 862.25 C 1037.18 821.43 1093.16 763.05 1067.78 695.22 C 1037.62 609.89 886.08 617.19 867.98 707.98 C 868.38 716.45 858.44 732.42 869.00 736.00 C 880.27 736.64 891.12 738.92 902.33 739.67 C 910.44 738.71 929.70 748.90 929.00 735.00 C 925.64 702.62 961.88 678.53 990.25 694.75 C 1016.26 711.39 1011.05 751.41 993.30 772.30 C 948.22 825.35 882.07 865.36 862.00 935.00 C 863.19 943.36 851.36 962.73 867.00 961.00 C 937.63 963.19 1003.25 960.86 1073.00 961.00 Z"/>
</g>
<g fill="#000000" fill-opacity="0.00" stroke="None"><path d="
M 0.00 967.00 
L 1080.00 967.00
L 1080.00 0.00
L 0.00 0.00
L 0.00 967.00
M 433.00 233.00 
C 384.21 236.43 339.72 269.42 317.08 312.08 C 262.74 415.70 262.27 556.46 319.25 659.75 C 344.42 702.42 388.49 735.00 439.02 735.98 C 453.01 734.62 446.93 754.97 450.00 764.00 C 451.79 774.24 456.12 787.61 451.90 796.90 C 436.29 787.99 414.22 771.12 396.75 787.75 C 368.95 816.85 369.49 875.18 395.23 905.77 C 403.39 913.98 416.59 912.61 427.22 911.22 C 437.38 909.64 443.09 898.32 453.00 897.00
C 454.19 909.00 451.51 921.65 449.67 933.67 C 446.73 944.13 451.97 965.90 434.00 961.00 C 233.33 962.83 61.93 793.25 24.01 603.99 C -27.44 394.99 60.95 155.43 255.25 53.25 C 307.17 26.74 363.45 11.82 422.02 7.02 C 440.88 2.87 428.74 24.94 430.00 35.00 C 425.09 54.56 421.74 95.96 453.02 90.02 C 463.42 87.98 469.58 77.72 479.22 74.22 C 492.80 70.63 499.03 85.40 499.98 96.02 C 504.45 117.79 506.72 148.43 488.92 163.92 C 477.51 168.55 469.31 156.33 460.30 151.70 C 451.39 145.61 436.56 146.34 431.08 157.08 C 421.08 181.38 432.96 207.83 433.00 233.00
M 447.00 70.00 
C 448.65 48.84 450.65 27.76 454.00 7.00
C 660.81 8.83 835.53 186.45 867.00 384.00 C 914.53 608.58 796.76 865.71 574.32 940.32 C 543.63 950.35 510.56 958.08 477.00 960.00 C 460.87 965.85 469.82 944.60 469.98 935.98 C 472.42 916.44 481.17 887.14 458.77 876.23 C 438.77 867.94 422.33 906.41 405.23 886.77 C 394.26 867.00 395.91 840.95 400.00 819.00 C 401.89 809.66 409.77 797.09 421.07 801.93 C 433.87 814.34 462.10 828.65 470.31 804.31 C 478.37 781.35 466.75 757.43 467.33 734.33 C 563.85 714.57 603.64 607.04 608.00 519.00 C 614.48 424.17 599.28 315.23 519.92 256.08 C 503.17 243.63 483.56 236.49 462.99 234.01 C 447.74 235.26 454.27 215.83 450.22 206.78 C 450.14 194.53 447.69 183.05 447.00 171.00 C 454.91 167.02 462.35 181.86 471.68 182.32 C 508.74 196.71 524.89 149.89 523.00 121.00 C 524.93 91.72 510.93 44.09 472.93 55.93 C 463.72 58.78 456.76 66.53 447.97 69.97
M 1073.00 961.00 
C 1003.25 960.86 937.63 963.19 867.00 961.00 C 851.36 962.73 863.19 943.36 862.00 935.00 C 882.07 865.36 948.22 825.35 993.30 772.30 C 1011.05 751.41 1016.26 711.39 990.25 694.75 C 961.88 678.53 925.64 702.62 929.00 735.00 C 929.70 748.90 910.44 738.71 902.33 739.67 C 891.12 738.92 880.27 736.64 869.00 736.00 C 858.44 732.42 868.38 716.45 867.98 707.98 C 886.08 617.19 1037.62 609.89 1067.78 695.22 C 1093.16 763.05 1037.18 821.43 990.25 862.25 C 977.85 873.14 963.91 886.29 954.41 899.75 C 962.90 905.62 976.34 898.97 987.00 901.00 C 1011.67 901.00 1036.33 901.00 1061.00 901.00 C 1078.22 896.16 1072.03 915.71 1073.00 926.00 C 1072.65 937.68 1073.52 950.04 1073.00 961.00 Z"/>
</g>
<g fill="#9E1427" fill-opacity="0.99" stroke="None"><path d="
M 433.00 233.00 
C 432.96 207.83 421.08 181.38 431.08 157.08 C 436.56 146.34 451.39 145.61 460.30 151.70 C 469.31 156.33 477.51 168.55 488.92 163.92 C 506.72 148.43 504.45 117.79 499.98 96.02 C 499.03 85.40 492.80 70.63 479.22 74.22 C 469.58 77.72 463.42 87.98 453.02 90.02 C 421.74 95.96 425.09 54.56 430.00 35.00 C 428.74 24.94 440.88 2.87 422.02 7.02 C 363.45 11.82 307.17 26.74 255.25 53.25 C 60.95 155.43 -27.44 394.99 24.01 603.99 C 61.93 793.25 233.33 962.83 434.00 961.00 C 451.97 965.90 446.73 944.13 449.67 933.67 C 451.51 921.65 454.19 909.00 453.00 897.00
C 443.09 898.32 437.38 909.64 427.22 911.22 C 416.59 912.61 403.39 913.98 395.23 905.77 C 369.49 875.18 368.95 816.85 396.75 787.75 C 414.22 771.12 436.29 787.99 451.90 796.90 C 456.12 787.61 451.79 774.24 450.00 764.00 C 446.93 754.97 453.01 734.62 439.02 735.98 C 388.49 735.00 344.42 702.42 319.25 659.75 C 262.27 556.46 262.74 415.70 317.08 312.08 C 339.72 269.42 384.21 236.43 433.00 233.00 Z"/>
</g>
<g fill="#9E1427" fill-opacity="0.99" stroke="None"><path d="
M 447.97 69.97 
C 456.76 66.53 463.72 58.78 472.93 55.93 C 510.93 44.09 524.93 91.72 523.00 121.00 C 524.89 149.89 508.74 196.71 471.68 182.32 C 462.35 181.86 454.91 167.02 447.00 171.00 C 447.69 183.05 450.14 194.53 450.22 206.78 C 454.27 215.83 447.74 235.26 462.99 234.01 C 483.56 236.49 503.17 243.63 519.92 256.08 C 599.28 315.23 614.48 424.17 608.00 519.00 C 603.64 607.04 563.85 714.57 467.33 734.33 C 466.75 757.43 478.37 781.35 470.31 804.31 C 462.10 828.65 433.87 814.34 421.07 801.93 C 409.77 797.09 401.89 809.66 400.00 819.00 C 395.91 840.95 394.26 867.00 405.23 886.77 C 422.33 906.41 438.77 867.94 458.77 876.23 C 481.17 887.14 472.42 916.44 469.98 935.98 C 469.82 944.60 460.87 965.85 477.00 960.00 C 510.56 958.08 543.63 950.35 574.32 940.32 C 796.76 865.71 914.53 608.58 867.00 384.00 C 835.53 186.45 660.81 8.83 454.00 7.00
C 450.65 27.76 448.65 48.84 447.00 70.00 Z"/>
</g>
<g fill="#9E1427" fill-opacity="0.95" stroke="None"><path d="
M 1073.00 961.00 
C 1073.52 950.04 1072.65 937.68 1073.00 926.00 C 1072.03 915.71 1078.22 896.16 1061.00 901.00 C 1036.33 901.00 1011.67 901.00 987.00 901.00 C 976.34 898.97 962.90 905.62 954.41 899.75 C 963.91 886.29 977.85 873.14 990.25 862.25 C 1037.18 821.43 1093.16 763.05 1067.78 695.22 C 1037.62 609.89 886.08 617.19 867.98 707.98 C 868.38 716.45 858.44 732.42 869.00 736.00 C 880.27 736.64 891.12 738.92 902.33 739.67 C 910.44 738.71 929.70 748.90 929.00 735.00 C 925.64 702.62 961.88 678.53 990.25 694.75 C 1016.26 711.39 1011.05 751.41 993.30 772.30 C 948.22 825.35 882.07 865.36 862.00 935.00 C 863.19 943.36 851.36 962.73 867.00 961.00 C 937.63 963.19 1003.25 960.86 1073.00 961.00 Z"/>
</g>
</svg>