<svg xmlns="http://www.w3.org/2000/svg" width="2869" height="892" viewBox="0 0 2869 892"><path fill="none" fill-opacity="0" stroke="none" stroke-opacity="0" stroke-width=".3" d="M0 892h2869V0H0zm2266-143v3c-17.24.01-35.46.77-51-4-173.5-15.88-315.02-180.05-316-355-11.14-200.74 154.8-388.55 354.7-388.69 3.89 20.92-14.47 45.73 2.05 62.94 18.43 16.65 34.8-24.71 51-4 8.35 18.37 9.79 43.97-1 61.5-14.47 20.18-32.98-21.99-50-3-15.31 17.57-.16 42.36-1.75 63.25-94.89 10.22-132.84 115.11-129 201 .4 75.58 32.57 164.01 111 183 8.85 4.85 23.55-.37 29.97 6.03 1.76 10.4 3.57 20.8 5.96 31.04 3.84 11.46-4.49 21.96-13.68 10.68-15.2-14.85-40.8-3.9-45.24 14.26-8.3 25.28-10.63 66.41 17.09 80.89 10.29 2.74 21.49 1.13 29.98-4.82 9.81-12.63 15.59-.06 11.92 10.92-2.08 10.3-3.01 20.91-6 31m6-564c-3.43-9.46-3.46-20.54-4.98-30.03-2.23-7.72-4.73-30.57 7.73-17.72 15.16 13.1 43.3 9.17 48.24-12.26 9.65-26.87 9.22-69.92-20.28-82.7-10.7-1.8-20.16 3.19-27.46 9.96-13.31 11.84-10.38-10.37-8.27-18.27 2.79-9.94-.17-23.17 7.25-30.75 156.99.79 297.32 120.13 338.08 266.46 54.58 176.18-33.83 378.58-198.39 451.23-37.75 17.59-78.41 27.77-120.92 31.08-17.7 4.27-6.68-14.09-7.67-23.67 2.05-9.59 2.93-22.78.36-33.02-2.3-9.73-15.84-13.43-23.91-7.53-8.72 3.19-15.6 15.42-25.67 10.11-18.24-11.66-14.03-40.2-10.18-57.96 1.2-8.89 11.61-20.06 20.82-12.68 7.92 5.44 15.87 12.73 26.92 10.42 21.36-9.4 11.69-39.06 8.56-56.9-4.74-15.63 15.91-8.8 22.06-15.48 67.88-25.1 92.54-101.09 95.71-167.29 3.22-81.47-17.49-174.01-96.22-206.78-10.37-3.36-20.97-4.47-31.78-6.22M342 42c-12.09 2.32-26.15.34-39 1 12.09-2.32 26.15-.34 39-1m146 204c-18.85-15.13-34.25-38.53-55.25-50.75-66.82-47.31-168.38-44.27-226.5 19-59.86 62.79-67.76 163.48-35.48 237.98 20.18 45.95 61.75 85.78 108.92 99.08 27.77 10.33 60.13 8.51 90.31 6.69-3.41-3.46 9.16-.15 12.22-3.78 43.03-10.46 78.3-40.37 104.78-74.22 29.12 26.63 57.03 55.41 86 83-39.84 61.28-107.34 101.57-177.68 112.66-23.23 3.79-55.67 6.96-83.32 4.34-94.62-3.29-187.61-48.58-242.25-132.75-14.01-19.15-25.27-41.74-34.07-63.93C24.93 459.14 23.26 430.51 14 407c5.8 8.88.15-10.2 2-15-5.56-56 2-113.05 22.32-163.68 4.16-4.09 2.26-17.81 5.68-12.32C92.81 105.57 212.62 35.23 337 45c82.85.38 158.4 35.01 216.25 93.75 4.9 8.89 25.47 19.14 12 28.5-25.13 25.53-53.77 52.37-77.25 78.75M766 45c-43.77 2.33-89.48.33-134 1 43.76-2.33 89.48-.33 134-1m-1 2c2.33 207.5.33 416.08 1 624H643c-17.64 3.35-7.22-20.75-10-31 .44-171.76-.67-347.28 0-512-.12-26.25.09-54.08 0-81 43.87-.02 88.82.03 132 0m524 339c4.18-.65 1.01 10.89 2 15-2.03-1.77-.53-5.48-1-8-2.33 90.43-.33 182.82-1 274-3.71 8.37-18.74 2.01-27 4h-91c-13.26 2.5-6.28-15.27-8-23v-31c-26.73 28.16-59.59 52.07-98.02 58.98-79.7 12.34-173.91.25-215.3-78.66-26.04-52.88-14.48-128.9 36.57-164.07 74.12-55.43 176.2-38.34 268.42-41.58 5.62-40.42-25.24-78.68-65.34-84-66.41-12.28-131.99 6.16-188.33 38.33-14.61-31.5-31.11-60.04-46.92-90.08 62.04-42.58 137-57 211.92-57.92 72.89 1.54 149.7 15.85 193.25 80.75 20.57 33.09 27.05 72.06 28.75 111.25 1.6-.53.73-2.75 1-4m426-11c-22.64-52.85-80.56-78.46-138.07-65.07-56.11 11.25-91.18 70.18-88.93 126.07-3.56 56.3 28.67 113.68 85.03 129.98C1629.94 584.61 1694 553.57 1716 499c35.02 20.08 68.09 39.67 103 58-33.81 77.49-117.69 123.91-201 123-73.16 2.09-143.4-18.03-193.75-69.25-82.93-78.43-91.66-217.44-30.5-311 29.2-45 77.63-76.97 127.47-90.53 28.49-7.08 57.32-11.25 90.78-11.22 83-.44 170.83 38.65 205.98 118.02-35.09 19.7-68.6 39.89-102.98 58.98M13 350c-.52 7.51-1.41 15.2 0 23-3.31-4.48-3.3-17.68 0-23m1478 72v33c-2.22-10.35-1.76-22.3 0-33m-200 26v22c-1.64-6.26-1.69-15.81 0-22m1461 37c53.16 1.09 84.48 66.21 60.08 112.08-21.22 40.87-59.45 63.8-90.08 98.92h70c8.63 2.5 27.85-6.21 28 7v35c3.17 15.35-17.2 6.83-26 9h-140c-15.07 4.38-14.6-8.01-11.22-18.22 14.86-59.18 72.35-92.04 109.97-135.03 18.85-19.71 14.96-64.07-16.76-65.74-19.68-1.87-36.11 15.03-35.77 34.21 2.14 15.1-15.03 4.87-23.29 5.85-10.65.48-19.76-3.24-30.93-2.07-3.89-42.69 31.47-80.77 74-81 8.93-3.28 23.14-3.3 32 0m-1461 20v21c-1.63-5.92-1.69-15.15 0-21m0 26v60c-1.66-18.93-1.67-41.14 0-60M768 650v22c-1.64-6.26-1.69-15.81 0-22m256 32c-4.09 2.24-10.16.4-15 1 4.09-2.24 10.16-.4 15-1m600 0c-10.42 2.32-22.82.34-34 1 10.43-2.32 22.82-.34 34-1m537 65c3.61 2.6 6.31 5.91 5 11 3.6-4.41-1.29-8.57-3-12 7.76 1.25 7.78 16.95 1 17-1.71.75-5.24.27-5 3-2.77 1.18-2.56-2.38-5-2-3.83 4.46-8.69-7.55-6.2-11.25 1.71-4.92 11.29-10.32 13.2-5.75m-1207 0c9.45 3.31 4.49 20.8-5.07 17.07-10.81-2.2-5.11-19 5.07-17.07m387 0c9.18 3.38 6.73 18.64-3.68 17.66-10.98-1.71-6.73-19.7 3.68-17.66m-754 2c-1.54 15.76-5.78 25.07-7 41 14.99-12.06 43.39-14.83 51.97 6.03 5.1 21.88-5.78 42.55-7.97 63.97h-12c-.26-13.78 5.37-24 6.78-35.22 1.88-10.42 6.7-26.36-6.48-31.08-9.89-3.83-23.7-2.18-31.05 7.55-8.12 9.07-6.78 23.29-11.22 30.79-.84 10.72 1.02 33.34-17.03 27.96 6.37-38.07 16.5-73.74 22-112 4.37.03 7.42.99 12 1m501 38c3-5.24 4.15-13.34 9-18-5.14-6.75-6.5-21.28 6-20 11.06.22 7.54 16.64 1.75 21.75-2.98 6.93-6.25 20.84-16.75 16.25m1008-38c.92 19.24-8.38 39.18-9.02 58.02-5.21 17.36-7.33 35.62-11.98 52.98h-12c6.5-37.7 16.3-72.54 21-110 3.54-2.02 8.05-.55 12-1M90 806c19.6 9.78 15.72 40.81-3.08 48.92C63.88 864.6 36.21 858.07 11 860c5.79-35.28 13.61-70.1 21-105 22.37 2.26 45.11-3.1 65.23 4.77 17.3 11.39 9.24 39.36-7.23 46.23m411-43c.33 6.04-3.91 12.76-2 19 6.68-2.34 13.12.31 20-1 .4 3.37.4 5.58 0 9-5.48 3.48-20.84-3.31-24.32 4.68-2.21 16.25-7.94 32.27-8.68 49.32 4.61 9.74 14.23 6.04 22 4 .89 2.93 1.11 6.04 2 9-13.54 8.59-40.65 4.23-36-17 .01-17.51 8.16-32.83 9-49-3.94-.41-9.12-.25-13 0-.44-8.19 6.35-13.04 14-9 5.43-7.39 1.5-23.11 17-19m525 0c-.28 6.5-3.47 12.28-3 19 6.37-.78 13-.88 19-1 2.52 3.55 1.36 7.02 1 11-8.57 1.95-24.56-7.02-23.93 7.07-1.32 17.37-15.53 37.59-3.07 51.93 7.23-1.84 10.06.52 16-4 1.47 2.86 1.29 6.2 3 9-11.03 7.85-34.67 7.31-37-9-.03-15.62 5.3-29.85 7.33-44.67 6.1-9.5-1.42-13.78-10.33-11.33-1.29-8.94 6.54-12.27 14-9 1.44-4.53 3.06-9.05 3-14 3.1 3.99 1.05-1.9 1-4 3.87-2.06 8.72-.52 13-1m612 0c-2.43 5.23-1.79 11.78-3 18 8.44.36 26.37-3.6 19.07 10.07-7.78 3.75-24.9-4.87-23.85 9.15-1.37 16.57-12.86 35.92-2.22 50.78 6.2.55 18.63-7.38 18.93 4.07-9.27 11.95-41.1 6.36-35.94-13.08.73-17 5.87-32.41 8.01-49.99h-12c-1.06-3.78 4.14-6.41 1-10 4.32-3.3 11.84 3.51 14.92-2.08.06-5.92 2.36-11.17 3.08-16.92zm1104 23c-6.51 24.42-9.59 48.26-16 74h-11c1.01-2.79 1.18-5.89 1-9-12.27 9.73-31.1 13.96-45.24 5.25-26.2-19.94-13.57-62.57 15.27-73.22 15.44-7.27 32.47-.4 41.97 11.97.27-4.97 2.18-9.09 1-14 3.67 1.42 7.62.02 12 0 .2-6.93 6.02 6.22 1 5M242 825c-2.71 10.61 5.12 22.13 16.02 23.98 12.34 4.29 23.57-2.34 33.98-6.98-.14 3.53 5.17 4.47 5 8-19.21 15.66-55.66 16.07-65.77-10.23-16.04-39.15 40.99-82.48 68.52-45.52 5.62 9.52 12.15 36.32-7.75 30.75zm188-43c-7.17 25.92-10.83 52.16-16 78h-12c-.53-3.32 1.64-5.88 2-9-16.96 14.89-51.93 14.34-57.98-12.02-9.45-30.35 19.98-67.59 52.66-56.66 7.98.01 10.67 12.47 16.07 11.42-.93-8.83 4.9-16.72 15.25-11.74m310 60c8.33 9.07-5.1 16.09-13.02 16.98-17.5 6.05-44.27-1.09-46.76-21.2-8.67-29.17 15.46-62.62 46.85-56.85 20.47 1.51 32.03 25.73 24.62 43.76-12.17.71-24.47.11-36.69.31-8.56 1.54-30.3-5.55-23.67 9.67 6.84 21.61 33.85 17.6 48.67 7.33m460-46c-13.21-4.41-41.75-11.75-43 10 9.95 14.39 33.33 7.13 42 24 1.72 14.12-6.15 27.66-21.22 29.78-14.98 2.77-31.3.88-43.78-7.78.62-3.13 4.67-4.5 4-8 11.12 1.01 18.09 9.39 30 6 9.98 3.16 24.95-9.28 15.25-19.25-9.2-5-20.88-4.93-30.47-10.53-22.34-17.58 5.9-45.87 27.9-39.88 9.22.87 30.08 2.68 19.32 15.66m346-5c-2.61 1.56-8.46 1.72-11 0-10.02.73-22.42 11.56-11.75 20.75 9.94 3.77 20.04 5.36 29 9.01 25.28 14.4-2.2 45.28-24.25 40.24-10.58-.89-25.04-1.25-30.64-10.7 5.71-13.6 18.82 2.02 29.31.03 9.72 2.16 24.78-2.66 22.33-16.33-4.98-9.29-18.38-4.95-27.08-10.92-11.36-1.76-17.96-14.85-12.99-25.15 9.73-21.06 41.86-21.52 58.07-9.93-3.87 1.37-3.19 9.9-8.22 7.22-4.08-2.02-8.34-3.29-12.78-4.22m284 4c3.66-2.08 3.82-8.96 5-14h10c1.28 3.9-1.64 5.94 0 10-3.5-3.13-.53 9.96-3.33 13.67-4.12 18.73-7.34 37.01-10.67 55.33h-12c.05-3.49 1.96-6.48 2-10-14.24 14.83-42.22 14.91-54.75-2.25-9.82-18.93-4.55-43.23 11.05-57.45 14.11-13.23 44.56-14.45 52.7 4.7m415-15c9.39 2.07 19.79 4.03 26.75 12.25 1.45 12.27-13.21 9.13-18 1-19.88-8.75-42.73 9.12-41.75 30.75-5.22 23.22 28.51 34.66 41.3 20.3 9.25-10.37 17.72 5.71 4.47 9.47-15.81 12.65-44.88 8.98-55.07-9.47-13.41-29.25 10.27-64.39 42.3-64.3m202 14c4.58-2.48-.11-15.92 8.22-12.22 8.45-1.47 7.61 8.7 5 13.44-2.01 4.05 1.31 17.92-2.22 7.78-3.06 19.45-7.58 37.18-10 57h-12c-.7-3.27 1.43-5.77 1-9-15.33 12.19-43.01 15.62-54.75-4.25-7.88-18.55-4.09-41.31 11-55.5 14.42-13.86 42.43-15.95 53.75 2.75M171 781c.72 3.94-1.49 7.1-1 11 9.64-4.97 17.38-12.62 30-11-.06 3.81-2.31 7.06-2 11-24.55-2.69-34.17 23.65-35.93 43.08-3.65 10.37.08 30.11-17.07 24.92 5.14-28.02 9.9-50.37 16-79zm782 1c-5.1 19.73-8.32 38.34-11.33 58.67-2.89 9.47-1.96 24.06-16.67 19.33 4.26-22.66 7.92-43.79 13.31-66.69.37-8.86 4.52-16.04 14.69-11.31m386-1c-4.64 29.7-11.64 60.55-17.98 92.02-5.58 16.5-25.58 20.72-40.02 13.98-.48-11.75 8.91-8.83 17-8 17.72-3.69 12.43-27.89 17.98-41.02 3.81-15.72 4.29-28.65 9.8-44.2-.95-9.78 3.52-14.31 13.22-12.78m66 0c-.14 17.69-10.1 37.6-8.07 57.07 6.37 20.34 35.35 13.78 42.82-3.32 4.95-17.71 9.22-34.93 12.25-53.75 3.98.42 8.44-.99 12 1-6.34 26.55-10.01 50.39-16 78h-11c-.41-3.18 1.69-5.72 1-9-15.55 13.58-48.4 15.36-53.78-9.22-.55-12.94 1.13-24.17 4.56-36 5.49-9.66-.91-28.75 16.22-24.78m624 15c-10.83 13.52-18.55-11.26-32-4-24.59-1.34-41.32 38.56-19.75 54.75 11.99 5.85 28.94 4.41 36.75-7.75 3.57.94 4.29 6.47 9 5-10.62 20.28-43.35 22.99-58.75 6.75-13.69-15.58-11.45-44.23 6-57.5 14.09-17.59 48.31-17.39 58.75 2.75m115 64h-13c4.04-18 8.2-38.26 10.93-53.08 3.83-8.45 1.03-19.25 7.3-25.69 15.6-3.79 7.07 12.1 6.45 19.45-2.9 20-9.03 39.22-11.68 59.32m383-16c9.15-14.95 17.31-32.04 26.31-48.7 2.47-7.55 13-21.58 19.28-10.55 2.43 21.55 6.97 39.31 11.41 59.25 7.22-10.27 14.29-23.98 19.99-36.01 8.62-8.38 9.27-31.22 26.01-25.99-12.79 25.32-27.7 51.89-41 78h-13c-4.11-20.29-7.27-40.36-12-60-12.4 19.17-22.84 39.17-33 60h-13c-3.33-20.63-8.46-38-9-59-3.4 4.49-1.51-5.68-2-8-.45-3.8-1.87-7.37-3-11 17.91-6.49 11.92 17.21 15.8 25.25 3.48 12.17 2.86 26.77 7.2 36.75m334-63c-11.72 23.04-26.29 44.74-39.75 67.25-9.91 22.02-32.08 55.54-59.25 35.75 2.99-13.98 13.56-1.03 22.07-4.93 21.47-7.1 16.25-31.05 11.61-46.75-5.2-17.05-6.79-32.4-12.68-49.32 16.24-5.62 14.64 15.93 17.99 26.01 4.97 11.55 4.23 24.8 10.01 35.99 12.3-19.84 26.12-42.53 39-64zm-1101 38v16c-1.61-4.26-1.7-11.81 0-16m-1466 7c-14.75 4.06-34.11 1.9-50 1 15.29-.98 33.98 1.5 50-1m436 2c-11.5-.67-24.32 1.33-35-1 5.26-.9 12.01.61 18 0 5.52 1.94 13.96-3.7 17 1m55 54c1.31-7.51 13.12-19.97 4-25-4.53-15.94 24.53-18.61 17.07-.93-5.52 8.99-7.44 27.46-21.07 25.93M29 861c-5.43.34-20.38 4.71-21-3 3.54 6.18 14.35 1.58 21 3m352 1c-1.48 3.23-6.46 2.26-9 1 2.46-2.61 6.17.58 9-1m1035 0c-1.31 3.03-7.06 2.61-9 1 2.93-1.08 5.79-.02 9-1m383 0c-2.13 3.14-9.9 3.2-12 0 4.3.93 7.66.76 12 0m198 0c-2.16 3.39-9.16 2.41-12 1 3.12-1.34 7.72-.15 12-1m417 0c-1.59 3.17-7.76 2.54-10 1 3.24-1.71 6.46.61 10-1"/><path fill="none" fill-opacity="0" stroke="#9e1427" stroke-opacity=".98" stroke-width=".3" d="M2215 748c16.72.06 35.03 5.61 51 1 2.99-10.09 3.92-20.7 6-31 3.67-10.98-2.11-23.55-11.92-10.92-8.49 5.95-19.69 7.56-29.98 4.82-27.72-14.48-25.39-55.61-17.09-80.89 4.44-18.16 30.04-29.11 45.24-14.26 9.19 11.28 17.52.78 13.68-10.68-2.39-10.24-4.2-20.64-5.96-31.04-6.42-6.4-21.12-1.18-29.97-6.03-78.43-18.99-110.6-107.42-111-183-3.84-85.89 34.11-190.78 129-201 1.59-20.89-13.56-45.68 1.75-63.25 17.02-18.99 35.53 23.18 50 3 10.79-17.53 9.35-43.13 1-61.5-16.2-20.71-32.57 20.65-51 4-16.52-17.21 1.84-42.02-2.05-62.94-199.9.14-365.84 187.95-354.7 388.69.98 174.95 142.5 339.12 316 355Z"/><path fill="none" fill-opacity="0" stroke="#9e1427" stroke-opacity=".98" stroke-width=".3" d="M2272 185c10.81 1.75 21.41 2.86 31.78 6.22 78.73 32.77 99.44 125.31 96.22 206.78-3.17 66.2-27.83 142.19-95.71 167.29-6.15 6.68-26.8-.15-22.06 15.48 3.13 17.84 12.8 47.5-8.56 56.9-11.05 2.31-19-4.98-26.92-10.42-9.21-7.38-19.62 3.79-20.82 12.68-3.85 17.76-8.06 46.3 10.18 57.96 10.07 5.31 16.95-6.92 25.67-10.11 8.07-5.9 21.61-2.2 23.91 7.53 2.57 10.24 1.69 23.43-.36 33.02.99 9.58-10.03 27.94 7.67 23.67 42.51-3.31 83.17-13.49 120.92-31.08 164.56-72.65 252.97-275.05 198.39-451.23-40.76-146.33-181.09-265.67-338.08-266.46-7.42 7.58-4.46 20.81-7.25 30.75-2.11 7.9-5.04 30.11 8.27 18.27 7.3-6.77 16.76-11.76 27.46-9.96 29.5 12.78 29.93 55.83 20.28 82.7-4.94 21.43-33.08 25.36-48.24 12.26-12.46-12.85-9.96 10-7.73 17.72 1.52 9.49 1.55 20.57 4.98 30.03Z"/><path fill="none" fill-opacity="0" stroke="#9e1427" stroke-opacity=".01" stroke-width=".3" d="M342 42c-12.85.66-26.91-1.32-39 1 12.85-.66 26.91 1.32 39-1Z"/><path fill="none" fill-opacity="0" stroke="#040c0d" stroke-width=".3" d="M488 246c23.48-26.38 52.12-53.22 77.25-78.75 13.47-9.36-7.1-19.61-12-28.5C495.4 80.01 419.85 45.38 337 45 212.62 35.23 92.81 105.57 44 216c-3.42-5.49-1.52 8.23-5.68 12.32C18 278.95 10.44 336 16 392c-1.85 4.8 3.8 23.88-2 15 9.26 23.51 10.93 52.14 21.68 76.32 8.8 22.19 20.06 44.78 34.07 63.93C124.39 631.42 217.38 676.71 312 680c27.65 2.62 60.09-.55 83.32-4.34C465.66 664.57 533.16 624.28 573 563c-28.97-27.59-56.88-56.37-86-83-26.48 33.85-61.75 63.76-104.78 74.22-3.06 3.63-15.63.32-12.22 3.78-30.18 1.82-62.54 3.64-90.31-6.69-47.17-13.3-88.74-53.13-108.92-99.08-32.28-74.5-24.38-175.19 35.48-237.98 58.12-63.27 159.68-66.31 226.5-19 21 12.22 36.4 35.62 55.25 50.75Z"/><path fill="none" fill-opacity="0" stroke="#9e1427" stroke-opacity=".01" stroke-width=".3" d="M766 45c-44.52.67-90.24-1.33-134 1 44.52-.67 90.23 1.33 134-1Z"/><path fill="none" fill-opacity="0" stroke="#040c0d" stroke-width=".3" d="M765 47c-43.18.03-88.13-.02-132 0 .09 26.92-.12 54.75 0 81-.67 164.72.44 340.24 0 512 2.78 10.25-7.64 34.35 10 31h123c-.67-207.92 1.33-416.5-1-624ZM1290 393c-.52-2.19 1.14-5.62-1-7-.27 1.25.6 3.47-1 4-1.7-39.19-8.18-78.16-28.75-111.25-43.55-64.9-120.36-79.21-193.25-80.75-74.92.92-149.88 15.34-211.92 57.92C869.89 285.96 886.39 314.5 901 346c56.34-32.17 121.92-50.61 188.33-38.33 40.1 5.32 70.96 43.58 65.34 84-92.22 3.24-194.3-13.85-268.42 41.58-51.05 35.17-62.61 111.19-36.57 164.07 41.39 78.91 135.6 91 215.3 78.66 38.43-6.91 71.29-30.82 98.02-58.98v31c1.72 7.73-5.26 25.5 8 23h91c8.26-1.99 23.29 4.37 27-4 .67-91.18-1.33-183.57 1-274m-224 192c-8.53-.47-16.39 1.77-25 1-31.77 1.39-73.36-16.7-71.22-52.22-6.19-35.71 33.67-55.72 63.23-55.77 38.61-4.37 81.54-.87 120.99-2.01.28 26.95 3.26 57.92-18.75 78.25-18.1 17.08-42.64 28.93-69.25 30.75ZM1715 375c34.38-19.09 67.89-39.28 102.98-58.98C1782.83 236.65 1695 197.56 1612 198c-33.46-.03-62.29 4.14-90.78 11.22-49.84 13.56-98.27 45.53-127.47 90.53-61.16 93.56-52.43 232.57 30.5 311 50.35 51.22 120.59 71.34 193.75 69.25 83.31.91 167.19-45.51 201-123-34.91-18.33-67.98-37.92-103-58-22 54.57-86.06 85.61-142.97 66.98-56.36-16.3-88.59-73.68-85.03-129.98-2.25-55.89 32.82-114.82 88.93-126.07 57.51-13.39 115.43 12.22 138.07 65.07Z"/><path fill="none" fill-opacity="0" stroke="#9e1427" stroke-opacity=".02" stroke-width=".3" d="M13 350c-3.3 5.32-3.31 18.52 0 23-1.41-7.8-.52-15.49 0-23Z"/><path fill="none" fill-opacity="0" stroke="#9e1427" stroke-opacity=".01" stroke-width=".3" d="M1289 386c2.14 1.38.48 4.81 1 7 .47 2.52-1.03 6.23 1 8-.99-4.11 2.18-15.65-2-15ZM1491 422c-1.76 10.7-2.22 22.65 0 33z"/><path fill="none" fill-opacity="0" stroke="#9e1427" stroke-opacity=".02" stroke-width=".3" d="M1291 448c-1.69 6.19-1.64 15.74 0 22z"/><path fill="none" fill-opacity="0" stroke="none" stroke-opacity="0" stroke-width=".3" d="M1041 586c7.52-.92 17.56-3.28 25-1 26.61-1.82 51.15-13.67 69.25-30.75 22.01-20.33 19.03-51.3 18.75-78.25-39.45 1.14-82.38-2.36-120.99 2.01-29.56.05-69.42 20.06-63.23 55.77-2.14 35.52 39.45 53.61 71.22 52.22"/><path fill="none" fill-opacity="0" stroke="#9e1427" stroke-opacity=".08" stroke-width=".3" d="M2720 485h32c-8.86-3.3-23.07-3.28-32 0Z"/><path fill="none" fill-opacity="0" stroke="#9e1427" stroke-opacity=".93" stroke-width=".3" d="M2752 485h-32c-42.53.23-77.89 38.31-74 81 11.17-1.17 20.28 2.55 30.93 2.07 8.26-.98 25.43 9.25 23.29-5.85-.34-19.18 16.09-36.08 35.77-34.21 31.72 1.67 35.61 46.03 16.76 65.74-37.62 42.99-95.11 75.85-109.97 135.03-3.38 10.21-3.85 22.6 11.22 18.22h140c8.8-2.17 29.17 6.35 26-9v-35c-.15-13.21-19.37-4.5-28-7h-70c30.63-35.12 68.86-58.05 90.08-98.92 24.4-45.87-6.92-110.99-60.08-112.08Z"/><path fill="none" fill-opacity="0" stroke="#9e1427" stroke-opacity=".02" stroke-width=".3" d="M1291 505c-1.69 5.85-1.63 15.08 0 21zM1291 531c-1.67 18.86-1.66 41.07 0 60z"/><path fill="none" fill-opacity="0" stroke="none" stroke-opacity="0" stroke-width=".3" d="M1041 586c8.61.77 16.47-1.47 25-1-7.44-2.28-17.48.08-25 1"/><path fill="none" fill-opacity="0" stroke="#9e1427" stroke-opacity=".01" stroke-width=".3" d="M768 650c-1.69 6.19-1.64 15.74 0 22z"/><path fill="none" fill-opacity="0" stroke="none" stroke-opacity="0" stroke-width=".3" d="M1024 682c-4.84.6-10.91-1.24-15 1 4.84-.6 10.91 1.24 15-1"/><path fill="none" fill-opacity="0" stroke="#9e1427" stroke-opacity=".01" stroke-width=".3" d="M1624 682c-11.18.66-23.57-1.32-34 1 11.18-.66 23.58 1.32 34-1Z"/><path fill="none" fill-opacity="0" stroke="#9e1427" stroke-opacity=".09" stroke-width=".3" d="M2154 764c-.77-.83-2.48-.43-4-1-3.96-7.31 1.59-18.18 11-16-1.91-4.57-11.49.83-13.2 5.75-2.49 3.7 2.37 15.71 6.2 11.25Z"/><path fill="none" fill-opacity="0" stroke="#9e1427" stroke-opacity=".08" stroke-width=".3" d="M2166 758c.61 2.44-.49 3.66-2 5 6.78-.05 6.76-15.75-1-17 1.71 3.43 6.6 7.59 3 12Z"/><path fill="none" fill-opacity="0" stroke="#040c0d" stroke-opacity=".98" stroke-width=".3" d="M954 747c-10.18-1.93-15.88 14.87-5.07 17.07 9.56 3.73 14.52-13.76 5.07-17.07ZM1341 747c-10.41-2.04-14.66 15.95-3.68 17.66 10.41.98 12.86-14.28 3.68-17.66Z"/><path fill="none" fill-opacity="0" stroke="#040c0d" stroke-opacity=".92" stroke-width=".3" d="M2154 764c2.44-.38 2.23 3.18 5 2-.24-2.73 3.29-2.25 5-3 1.51-1.34 2.61-2.56 2-5 1.31-5.09-1.39-8.4-5-11-9.41-2.18-14.96 8.69-11 16 1.52.57 3.23.17 4 1Z"/><path fill="none" fill-opacity="0" stroke="#040c0d" stroke-opacity=".98" stroke-width=".3" d="M587 749c-4.58-.01-7.63-.97-12-1-5.5 38.26-15.63 73.93-22 112 18.05 5.38 16.19-17.24 17.03-27.96 4.44-7.5 3.1-21.72 11.22-30.79 7.35-9.73 21.16-11.38 31.05-7.55 13.18 4.72 8.36 20.66 6.48 31.08-1.41 11.22-7.04 21.44-6.78 35.22h12c2.19-21.42 13.07-42.09 7.97-63.97-8.58-20.86-36.98-18.09-51.97-6.03 1.22-15.93 5.46-25.24 7-41Z"/><path fill="none" fill-opacity="0" stroke="#9e1427" stroke-opacity=".09" stroke-width=".3" d="M2266 749c-15.97 4.61-34.28-.94-51-1 15.54 4.77 33.76 4.01 51 4z"/><path fill="none" fill-opacity="0" stroke="#040c0d" stroke-opacity=".98" stroke-width=".3" d="M1088 787c10.5 4.59 13.77-9.32 16.75-16.25 5.79-5.11 9.31-21.53-1.75-21.75-12.5-1.28-11.14 13.25-6 20-4.85 4.66-6 12.76-9 18ZM2096 749c-3.95.45-8.46-1.02-12 1-4.7 37.46-14.5 72.3-21 110h12c4.65-17.36 6.77-35.62 11.98-52.98.64-18.84 9.94-38.78 9.02-58.02Z"/><path fill="none" fill-opacity="0" stroke="#040c0d" stroke-opacity=".96" stroke-width=".3" d="M90 806c16.47-6.87 24.53-34.84 7.23-46.23C77.11 751.9 54.37 757.26 32 755c-7.39 34.9-15.21 69.72-21 105 25.21-1.93 52.88 4.6 75.92-5.08 18.8-8.11 22.68-39.14 3.08-48.92m-12-40c9.12 1.67 19.5 9.16 14.22 20.22C89.79 795.97 79.01 800.25 70 801c-10.68-1.88-26.6 3.86-33.97-3.03 3.4-9.65 4.23-20.14 6.9-30.04 10.02-4.43 23.66-.69 35.07-1.93m-51 83c.62-3.56 1.4-7.16 1-11 4.07 6.93.03-7.6 3.26-9.74-1.12-4.77 1.52-10.1 1.74-15.26 20.21 2.34 56.72-9.09 55.67 19.67C79.14 857.01 48.59 846.59 27 849Z"/><path fill="none" fill-opacity="0" stroke="#040c0d" stroke-opacity=".99" stroke-width=".3" d="M501 763c-15.5-4.11-11.57 11.61-17 19-7.65-4.04-14.44.81-14 9 3.88-.25 9.06-.41 13 0-.84 16.17-8.99 31.49-9 49-4.65 21.23 22.46 25.59 36 17-.89-2.96-1.11-6.07-2-9-7.77 2.04-17.39 5.74-22-4 .74-17.05 6.47-33.07 8.68-49.32 3.48-7.99 18.84-1.2 24.32-4.68.4-3.42.4-5.63 0-9-6.88 1.31-13.32-1.34-20 1-1.91-6.24 2.33-12.96 2-19Z"/><path fill="none" fill-opacity="0" stroke="#040c0d" stroke-opacity=".98" stroke-width=".3" d="M1026 763c-4.28.48-9.13-1.06-13 1 .05 2.1 2.1 7.99-1 4 .06 4.95-1.56 9.47-3 14-7.46-3.27-15.29.06-14 9 8.91-2.45 16.43 1.83 10.33 11.33-2.03 14.82-7.36 29.05-7.33 44.67 2.33 16.31 25.97 16.85 37 9-1.71-2.8-1.53-6.14-3-9-5.94 4.52-8.77 2.16-16 4-12.46-14.34 1.75-34.56 3.07-51.93-.63-14.09 15.36-5.12 23.93-7.07.36-3.98 1.52-7.45-1-11-6 .12-12.63.22-19 1-.47-6.72 2.72-12.5 3-19ZM1638 763h-12c-.72 5.75-3.02 11-3.08 16.92-3.08 5.59-10.6-1.22-14.92 2.08 3.14 3.59-2.06 6.22-1 10h12c-2.14 17.58-7.28 32.99-8.01 49.99-5.16 19.44 26.67 25.03 35.94 13.08-.3-11.45-12.73-3.52-18.93-4.07-10.64-14.86.85-34.21 2.22-50.78-1.05-14.02 16.07-5.4 23.85-9.15 7.3-13.67-10.63-9.71-19.07-10.07 1.21-6.22.57-12.77 3-18Z"/><path fill="none" fill-opacity="0" stroke="#040c0d" stroke-opacity=".01" stroke-width=".3" d="M78 766c-11.41 1.24-25.05-2.5-35.07 1.93-2.67 9.9-3.5 20.39-6.9 30.04 7.37 6.89 23.29 1.15 33.97 3.03 9.01-.75 19.79-5.03 22.22-14.78C97.5 775.16 87.12 767.67 78 766m-5 33c-10.43 2.32-22.82.34-34 1 10.43-2.32 22.82-.34 34-1Z"/><path fill="none" fill-opacity="0" stroke="#9e1427" stroke-opacity=".1" stroke-width=".3" d="M2741 781c2.42 1.12 1.51 2.8 1 5 5.02 1.22-.8-11.93-1-5Z"/><path fill="none" fill-opacity="0" stroke="#040c0d" stroke-opacity=".97" stroke-width=".3" d="M242 825h50c19.9 5.57 13.37-21.23 7.75-30.75-27.53-36.96-84.56 6.37-68.52 45.52 10.11 26.3 46.56 25.89 65.77 10.23.17-3.53-5.14-4.47-5-8-10.41 4.64-21.64 11.27-33.98 6.98-10.9-1.85-18.73-13.37-16.02-23.98m51-10h-49c1.13-29.45 52.15-32.4 49 0Z"/><path fill="none" fill-opacity="0" stroke="#040c0d" stroke-opacity=".96" stroke-width=".3" d="M430 782c-10.35-4.98-16.18 2.91-15.25 11.74-5.4 1.05-8.09-11.41-16.07-11.42-32.68-10.93-62.11 26.31-52.66 56.66 6.05 26.36 41.02 26.91 57.98 12.02-.36 3.12-2.53 5.68-2 9h12c5.17-25.84 8.83-52.08 16-78m-22 25c.11.47 0 1 0 1 4.6 17.57-7.17 42.1-28 41-24.52 2.99-26.92-29.47-16.23-44.23 9.44-15.39 39.57-18.92 44.23 2.23Z"/><path fill="none" fill-opacity="0" stroke="#040c0d" stroke-opacity=".97" stroke-width=".3" d="M740 842c-14.82 10.27-41.83 14.28-48.67-7.33-6.63-15.22 15.11-8.13 23.67-9.67 12.22-.2 24.52.4 36.69-.31 7.41-18.03-4.15-42.25-24.62-43.76-31.39-5.77-55.52 27.68-46.85 56.85 2.49 20.11 29.26 27.25 46.76 21.2 7.92-.89 21.35-7.91 13.02-16.98m-48-26c2.38-28.61 50.45-33.3 50.66-1.32-15.87 3.07-33.94.45-50.66 1.32Z"/><path fill="none" fill-opacity="0" stroke="#040c0d" stroke-opacity=".98" stroke-width=".3" d="M1200 796c10.76-12.98-10.1-14.79-19.32-15.66-22-5.99-50.24 22.3-27.9 39.88 9.59 5.6 21.27 5.53 30.47 10.53 9.7 9.97-5.27 22.41-15.25 19.25-11.91 3.39-18.88-4.99-30-6 .67 3.5-3.38 4.87-4 8 12.48 8.66 28.8 10.55 43.78 7.78 15.07-2.12 22.94-15.66 21.22-29.78-8.67-16.87-32.05-9.61-42-24 1.25-21.75 29.79-14.41 43-10Z"/><path fill="none" fill-opacity="0" stroke="#040c0d" stroke-opacity=".99" stroke-width=".3" d="M1535 791c3.07-1.4 8.36-1.83 11 0 4.44.93 8.7 2.2 12.78 4.22 5.03 2.68 4.35-5.85 8.22-7.22-16.21-11.59-48.34-11.13-58.07 9.93-4.97 10.3 1.63 23.39 12.99 25.15 8.7 5.97 22.1 1.63 27.08 10.92 2.45 13.67-12.61 18.49-22.33 16.33-10.49 1.99-23.6-13.63-29.31-.03 5.6 9.45 20.06 9.81 30.64 10.7 22.05 5.04 49.53-25.84 24.25-40.24-8.96-3.65-19.06-5.24-29-9.01-10.67-9.19 1.73-20.02 11.75-20.75Z"/><path fill="none" fill-opacity="0" stroke="#040c0d" stroke-opacity=".97" stroke-width=".3" d="M1830 795c-8.14-19.15-38.59-17.93-52.7-4.7-15.6 14.22-20.87 38.52-11.05 57.45 12.53 17.16 40.51 17.08 54.75 2.25-.04 3.52-1.95 6.51-2 10h12c3.33-18.32 6.55-36.6 10.67-55.33 2.8-3.71-.17-16.8 3.33-13.67-1.64-4.06 1.28-6.1 0-10h-10c-1.18 5.04-1.34 11.92-5 14m-20-3c30.82 10.58 12.94 64.64-19 58-31.52-10.16-13.57-65.86 19-58Z"/><path fill="none" fill-opacity="0" stroke="#040c0d" stroke-opacity=".98" stroke-width=".3" d="M2245 780c-32.03-.09-55.71 35.05-42.3 64.3 10.19 18.45 39.26 22.12 55.07 9.47 13.25-3.76 4.78-19.84-4.47-9.47-12.79 14.36-46.52 2.92-41.3-20.3-.98-21.63 21.87-39.5 41.75-30.75 4.79 8.13 19.45 11.27 18-1-6.96-8.22-17.36-10.18-26.75-12.25Z"/><path fill="none" fill-opacity="0" stroke="#040c0d" stroke-opacity=".97" stroke-width=".3" d="M2447 794c-11.32-18.7-39.33-16.61-53.75-2.75-15.09 14.19-18.88 36.95-11 55.5 11.74 19.87 39.42 16.44 54.75 4.25.43 3.23-1.7 5.73-1 9h12c2.42-19.82 6.94-37.55 10-57 3.53 10.14.21-3.73 2.22-7.78 2.61-4.74 3.45-14.91-5-13.44-8.33-3.7-3.64 9.74-8.22 12.22m-20-2c31.56 11.2 11.17 65.57-20.22 57.22-31.43-11.41-11.77-65.3 20.22-57.22Z"/><path fill="none" fill-opacity="0" stroke="#040c0d" stroke-opacity=".96" stroke-width=".3" d="M2742 786c.51-2.2 1.42-3.88-1-5-4.38.02-8.33 1.42-12 0 1.18 4.91-.73 9.03-1 14-9.5-12.37-26.53-19.24-41.97-11.97-28.84 10.65-41.47 53.28-15.27 73.22 14.14 8.71 32.97 4.48 45.24-5.25.18 3.11.01 6.21-1 9h11c6.41-25.74 9.49-49.58 16-74m-72 42c.03-.5 0-1 0-1-1.17-19.94 15.64-38.11 35.67-34.67 22.13 5.87 18.51 34.54 7.41 48.75-13.1 14.67-44.69 10.74-43.08-13.08Z"/><path fill="none" fill-opacity="0" stroke="#040c0d" stroke-opacity=".99" stroke-width=".3" d="M171 781h-10c-6.1 28.63-10.86 50.98-16 79 17.15 5.19 13.42-14.55 17.07-24.92 1.76-19.43 11.38-45.77 35.93-43.08-.31-3.94 1.94-7.19 2-11-12.62-1.62-20.36 6.03-30 11-.49-3.9 1.72-7.06 1-11Z"/><path fill="none" fill-opacity="0" stroke="#040c0d" stroke-opacity=".98" stroke-width=".3" d="M953 782c-10.17-4.73-14.32 2.45-14.69 11.31-5.39 22.9-9.05 44.03-13.31 66.69 14.71 4.73 13.78-9.86 16.67-19.33 3.01-20.33 6.23-38.94 11.33-58.67Z"/><path fill="none" fill-opacity="0" stroke="#040c0d" stroke-opacity=".99" stroke-width=".3" d="M1339 781c-9.7-1.53-14.17 3-13.22 12.78-5.51 15.55-5.99 28.48-9.8 44.2-5.55 13.13-.26 37.33-17.98 41.02-8.09-.83-17.48-3.75-17 8 14.44 6.74 34.44 2.52 40.02-13.98 6.34-31.47 13.34-62.32 17.98-92.02Z"/><path fill="none" fill-opacity="0" stroke="#040c0d" stroke-opacity=".98" stroke-width=".3" d="M1405 781c-17.13-3.97-10.73 15.12-16.22 24.78-3.43 11.83-5.11 23.06-4.56 36 5.38 24.58 38.23 22.8 53.78 9.22.69 3.28-1.41 5.82-1 9h11c5.99-27.61 9.66-51.45 16-78-3.56-1.99-8.02-.58-12-1-3.03 18.82-7.3 36.04-12.25 53.75-7.47 17.1-36.45 23.66-42.82 3.32-2.03-19.47 7.93-39.38 8.07-57.07ZM2029 796c-10.44-20.14-44.66-20.34-58.75-2.75-17.45 13.27-19.69 41.92-6 57.5 15.4 16.24 48.13 13.53 58.75-6.75-4.71 1.47-5.43-4.06-9-5-7.81 12.16-24.76 13.6-36.75 7.75-21.57-16.19-4.84-56.09 19.75-54.75 13.45-7.26 21.17 17.52 32 4ZM2144 860c2.65-20.1 8.78-39.32 11.68-59.32.62-7.35 9.15-23.24-6.45-19.45-6.27 6.44-3.47 17.24-7.3 25.69-2.73 14.82-6.89 35.08-10.93 53.08zM2527 844c-4.34-9.98-3.72-24.58-7.2-36.75-3.88-8.04 2.11-31.74-15.8-25.25 1.13 3.63 2.55 7.2 3 11 .49 2.32-1.4 12.49 2 8 .54 21 5.67 38.37 9 59h13c10.16-20.83 20.6-40.83 33-60 4.73 19.64 7.89 39.71 12 60h13c13.3-26.11 28.21-52.68 41-78-16.74-5.23-17.39 17.61-26.01 25.99-5.7 12.03-12.77 25.74-19.99 36.01-4.44-19.94-8.98-37.7-11.41-59.25-6.28-11.03-16.81 3-19.28 10.55-9 16.66-17.16 33.75-26.31 48.7ZM2861 781h-11c-12.88 21.47-26.7 44.16-39 64-5.78-11.19-5.04-24.44-10.01-35.99-3.35-10.08-1.75-31.63-17.99-26.01 5.89 16.92 7.48 32.27 12.68 49.32 4.64 15.7 9.86 39.65-11.61 46.75-8.51 3.9-19.08-9.05-22.07 4.93 27.17 19.79 49.34-13.73 59.25-35.75 13.46-22.51 28.03-44.21 39.75-67.25Z"/><path fill="none" fill-opacity="0" stroke="#040c0d" stroke-opacity=".84" stroke-width=".3" d="M1535 791c2.54 1.72 8.39 1.56 11 0-2.64-1.83-7.93-1.4-11 0Z"/><path fill="none" fill-opacity="0" stroke="#040c0d" stroke-opacity=".02" stroke-width=".3" d="M293 815c3.15-32.4-47.87-29.45-49 0z"/><path fill="none" fill-opacity="0" stroke="#040c0d" stroke-opacity=".01" stroke-width=".3" d="M408 808v14c-1.6-3.93-1.7-11.14 0-15-4.66-21.15-34.79-17.62-44.23-2.23-10.69 14.76-8.29 47.22 16.23 44.23 20.83 1.1 32.6-23.43 28-41Z"/><path fill="none" fill-opacity="0" stroke="#040c0d" stroke-opacity=".03" stroke-width=".3" d="M692 816c16.72-.87 34.79 1.75 50.66-1.32-.21-31.98-48.28-27.29-50.66 1.32Z"/><path fill="none" fill-opacity="0" stroke="#040c0d" stroke-opacity=".01" stroke-width=".3" d="M1810 792c-32.57-7.86-50.52 47.84-19 58 31.94 6.64 49.82-47.42 19-58ZM2427 792c-31.99-8.08-51.65 45.81-20.22 57.22 31.39 8.35 51.78-46.02 20.22-57.22ZM2670 827c1.96-1.45.56-4.8 1-7 2.19 3.09.43 8.16 1 12-1.98-.47.11-3.6-2-4-1.61 23.82 29.98 27.75 43.08 13.08 11.1-14.21 14.72-42.88-7.41-48.75-20.03-3.44-36.84 14.73-35.67 34.67Z"/><path fill="none" fill-opacity="0" stroke="none" stroke-opacity="0" stroke-width=".3" d="M73 799c-11.18.66-23.57-1.32-34 1 11.18-.66 23.57 1.32 34-1M408 808s.11-.53 0-1c-1.7 3.86-1.6 11.07 0 15z"/><path fill="none" fill-opacity="0" stroke="#040c0d" stroke-opacity=".01" stroke-width=".3" d="M27 849c21.59-2.41 52.14 8.01 61.67-16.33C89.72 803.91 53.21 815.34 33 813c-.22 5.16-2.86 10.49-1.74 15.26-3.23 2.14.81 16.67-3.26 9.74.4 3.84-.38 7.44-1 11Z"/><path fill="none" fill-opacity="0" stroke="none" stroke-opacity="0" stroke-width=".3" d="M1760 819c-1.7 4.19-1.61 11.74 0 16z"/><path fill="none" fill-opacity="0" stroke="#9e1427" stroke-opacity=".01" stroke-width=".3" d="M2670 827s.03.5 0 1c2.11.4.02 3.53 2 4-.57-3.84 1.19-8.91-1-12-.44 2.2.96 5.55-1 7ZM294 826c-16.02 2.5-34.71.02-50 1 15.89.9 35.25 3.06 50-1ZM730 828c-3.04-4.7-11.48.94-17-1-5.99.61-12.74-.9-18 0 10.68 2.33 23.5.33 35 1Z"/><path fill="none" fill-opacity="0" stroke="#040c0d" stroke-opacity=".99" stroke-width=".3" d="M785 882c13.63 1.53 15.55-16.94 21.07-25.93 7.46-17.68-21.6-15.01-17.07.93 9.12 5.03-2.69 17.49-4 25Z"/><path fill="none" fill-opacity="0" stroke="#9e1427" stroke-opacity=".07" stroke-width=".3" d="M29 861c-6.65-1.42-17.46 3.18-21-3 .62 7.71 15.57 3.34 21 3Z"/><path fill="none" fill-opacity="0" stroke="#9e1427" stroke-opacity=".02" stroke-width=".3" d="M381 862c-2.83 1.58-6.54-1.61-9 1 2.54 1.26 7.52 2.23 9-1Z"/><path fill="none" fill-opacity="0" stroke="#9e1427" stroke-opacity=".01" stroke-width=".3" d="M1416 862c-3.21.98-6.07-.08-9 1 1.94 1.61 7.69 2.03 9-1Z"/><path fill="none" fill-opacity="0" stroke="#9e1427" stroke-opacity=".02" stroke-width=".3" d="M1799 862c-4.34.76-7.7.93-12 0 2.1 3.2 9.87 3.14 12 0ZM1997 862c-4.28.85-8.88-.34-12 1 2.84 1.41 9.84 2.39 12-1ZM2414 862c-3.54 1.61-6.76-.71-10 1 2.24 1.54 8.41 2.17 10-1Z"/><path fill="none" fill-opacity="0" d="M0 892h2869V0H0zm2266-143v3c-17.24.01-35.46.77-51-4-173.5-15.88-315.02-180.05-316-355-11.14-200.74 154.8-388.55 354.7-388.69 3.89 20.92-14.47 45.73 2.05 62.94 18.43 16.65 34.8-24.71 51-4 8.35 18.37 9.79 43.97-1 61.5-14.47 20.18-32.98-21.99-50-3-15.31 17.57-.16 42.36-1.75 63.25-94.89 10.22-132.84 115.11-129 201 .4 75.58 32.57 164.01 111 183 8.85 4.85 23.55-.37 29.97 6.03 1.76 10.4 3.57 20.8 5.96 31.04 3.84 11.46-4.49 21.96-13.68 10.68-15.2-14.85-40.8-3.9-45.24 14.26-8.3 25.28-10.63 66.41 17.09 80.89 10.29 2.74 21.49 1.13 29.98-4.82 9.81-12.63 15.59-.06 11.92 10.92-2.08 10.3-3.01 20.91-6 31m6-564c-3.43-9.46-3.46-20.54-4.98-30.03-2.23-7.72-4.73-30.57 7.73-17.72 15.16 13.1 43.3 9.17 48.24-12.26 9.65-26.87 9.22-69.92-20.28-82.7-10.7-1.8-20.16 3.19-27.46 9.96-13.31 11.84-10.38-10.37-8.27-18.27 2.79-9.94-.17-23.17 7.25-30.75 156.99.79 297.32 120.13 338.08 266.46 54.58 176.18-33.83 378.58-198.39 451.23-37.75 17.59-78.41 27.77-120.92 31.08-17.7 4.27-6.68-14.09-7.67-23.67 2.05-9.59 2.93-22.78.36-33.02-2.3-9.73-15.84-13.43-23.91-7.53-8.72 3.19-15.6 15.42-25.67 10.11-18.24-11.66-14.03-40.2-10.18-57.96 1.2-8.89 11.61-20.06 20.82-12.68 7.92 5.44 15.87 12.73 26.92 10.42 21.36-9.4 11.69-39.06 8.56-56.9-4.74-15.63 15.91-8.8 22.06-15.48 67.88-25.1 92.54-101.09 95.71-167.29 3.22-81.47-17.49-174.01-96.22-206.78-10.37-3.36-20.97-4.47-31.78-6.22M342 42c-12.09 2.32-26.15.34-39 1 12.09-2.32 26.15-.34 39-1m424 3c-43.77 2.33-89.48.33-134 1 43.76-2.33 89.48-.33 134-1m523 341c4.18-.65 1.01 10.89 2 15-2.03-1.77-.53-5.48-1-8-2.33 90.43-.33 182.82-1 274-3.71 8.37-18.74 2.01-27 4h-91c-13.26 2.5-6.28-15.27-8-23v-31c-26.73 28.16-59.59 52.07-98.02 58.98-79.7 12.34-173.91.25-215.3-78.66-26.04-52.88-14.48-128.9 36.57-164.07 74.12-55.43 176.2-38.34 268.42-41.58 5.62-40.42-25.24-78.68-65.34-84-66.41-12.28-131.99 6.16-188.33 38.33-14.61-31.5-31.11-60.04-46.92-90.08 62.04-42.58 137-57 211.92-57.92 72.89 1.54 149.7 15.85 193.25 80.75 20.57 33.09 27.05 72.06 28.75 111.25 1.6-.53.73-2.75 1-4M13 350c-.52 7.51-1.41 15.2 0 23-3.31-4.48-3.3-17.68 0-23m1478 72v33c-2.22-10.35-1.76-22.3 0-33m-200 26v22c-1.64-6.26-1.69-15.81 0-22m1461 37c53.16 1.09 84.48 66.21 60.08 112.08-21.22 40.87-59.45 63.8-90.08 98.92h70c8.63 2.5 27.85-6.21 28 7v35c3.17 15.35-17.2 6.83-26 9h-140c-15.07 4.38-14.6-8.01-11.22-18.22 14.86-59.18 72.35-92.04 109.97-135.03 18.85-19.71 14.96-64.07-16.76-65.74-19.68-1.87-36.11 15.03-35.77 34.21 2.14 15.1-15.03 4.87-23.29 5.85-10.65.48-19.76-3.24-30.93-2.07-3.89-42.69 31.47-80.77 74-81 8.93-3.28 23.14-3.3 32 0m-1461 20v21c-1.63-5.92-1.69-15.15 0-21m0 26v60c-1.66-18.93-1.67-41.14 0-60M768 650v22c-1.64-6.26-1.69-15.81 0-22m256 32c-4.09 2.24-10.16.4-15 1 4.09-2.24 10.16-.4 15-1m600 0c-10.42 2.32-22.82.34-34 1 10.43-2.32 22.82-.34 34-1m537 65c3.61 2.6 6.31 5.91 5 11 3.6-4.41-1.29-8.57-3-12 7.76 1.25 7.78 16.95 1 17-1.71.75-5.24.27-5 3-2.77 1.18-2.56-2.38-5-2-3.83 4.46-8.69-7.55-6.2-11.25 1.71-4.92 11.29-10.32 13.2-5.75m-1207 0c9.45 3.31 4.49 20.8-5.07 17.07-10.81-2.2-5.11-19 5.07-17.07m387 0c9.18 3.38 6.73 18.64-3.68 17.66-10.98-1.71-6.73-19.7 3.68-17.66m-754 2c-1.54 15.76-5.78 25.07-7 41 14.99-12.06 43.39-14.83 51.97 6.03 5.1 21.88-5.78 42.55-7.97 63.97h-12c-.26-13.78 5.37-24 6.78-35.22 1.88-10.42 6.7-26.36-6.48-31.08-9.89-3.83-23.7-2.18-31.05 7.55-8.12 9.07-6.78 23.29-11.22 30.79-.84 10.72 1.02 33.34-17.03 27.96 6.37-38.07 16.5-73.74 22-112 4.37.03 7.42.99 12 1m501 38c3-5.24 4.15-13.34 9-18-5.14-6.75-6.5-21.28 6-20 11.06.22 7.54 16.64 1.75 21.75-2.98 6.93-6.25 20.84-16.75 16.25m1008-38c.92 19.24-8.38 39.18-9.02 58.02-5.21 17.36-7.33 35.62-11.98 52.98h-12c6.5-37.7 16.3-72.54 21-110 3.54-2.02 8.05-.55 12-1M90 806c19.6 9.78 15.72 40.81-3.08 48.92C63.88 864.6 36.21 858.07 11 860c5.79-35.28 13.61-70.1 21-105 22.37 2.26 45.11-3.1 65.23 4.77 17.3 11.39 9.24 39.36-7.23 46.23m411-43c.33 6.04-3.91 12.76-2 19 6.68-2.34 13.12.31 20-1 .4 3.37.4 5.58 0 9-5.48 3.48-20.84-3.31-24.32 4.68-2.21 16.25-7.94 32.27-8.68 49.32 4.61 9.74 14.23 6.04 22 4 .89 2.93 1.11 6.04 2 9-13.54 8.59-40.65 4.23-36-17 .01-17.51 8.16-32.83 9-49-3.94-.41-9.12-.25-13 0-.44-8.19 6.35-13.04 14-9 5.43-7.39 1.5-23.11 17-19m525 0c-.28 6.5-3.47 12.28-3 19 6.37-.78 13-.88 19-1 2.52 3.55 1.36 7.02 1 11-8.57 1.95-24.56-7.02-23.93 7.07-1.32 17.37-15.53 37.59-3.07 51.93 7.23-1.84 10.06.52 16-4 1.47 2.86 1.29 6.2 3 9-11.03 7.85-34.67 7.31-37-9-.03-15.62 5.3-29.85 7.33-44.67 6.1-9.5-1.42-13.78-10.33-11.33-1.29-8.94 6.54-12.27 14-9 1.44-4.53 3.06-9.05 3-14 3.1 3.99 1.05-1.9 1-4 3.87-2.06 8.72-.52 13-1m612 0c-2.43 5.23-1.79 11.78-3 18 8.44.36 26.37-3.6 19.07 10.07-7.78 3.75-24.9-4.87-23.85 9.15-1.37 16.57-12.86 35.92-2.22 50.78 6.2.55 18.63-7.38 18.93 4.07-9.27 11.95-41.1 6.36-35.94-13.08.73-17 5.87-32.41 8.01-49.99h-12c-1.06-3.78 4.14-6.41 1-10 4.32-3.3 11.84 3.51 14.92-2.08.06-5.92 2.36-11.17 3.08-16.92zm1104 23c-6.51 24.42-9.59 48.26-16 74h-11c1.01-2.79 1.18-5.89 1-9-12.27 9.73-31.1 13.96-45.24 5.25-26.2-19.94-13.57-62.57 15.27-73.22 15.44-7.27 32.47-.4 41.97 11.97.27-4.97 2.18-9.09 1-14 3.67 1.42 7.62.02 12 0 .2-6.93 6.02 6.22 1 5M242 825c-2.71 10.61 5.12 22.13 16.02 23.98 12.34 4.29 23.57-2.34 33.98-6.98-.14 3.53 5.17 4.47 5 8-19.21 15.66-55.66 16.07-65.77-10.23-16.04-39.15 40.99-82.48 68.52-45.52 5.62 9.52 12.15 36.32-7.75 30.75zm188-43c-7.17 25.92-10.83 52.16-16 78h-12c-.53-3.32 1.64-5.88 2-9-16.96 14.89-51.93 14.34-57.98-12.02-9.45-30.35 19.98-67.59 52.66-56.66 7.98.01 10.67 12.47 16.07 11.42-.93-8.83 4.9-16.72 15.25-11.74m310 60c8.33 9.07-5.1 16.09-13.02 16.98-17.5 6.05-44.27-1.09-46.76-21.2-8.67-29.17 15.46-62.62 46.85-56.85 20.47 1.51 32.03 25.73 24.62 43.76-12.17.71-24.47.11-36.69.31-8.56 1.54-30.3-5.55-23.67 9.67 6.84 21.61 33.85 17.6 48.67 7.33m460-46c-13.21-4.41-41.75-11.75-43 10 9.95 14.39 33.33 7.13 42 24 1.72 14.12-6.15 27.66-21.22 29.78-14.98 2.77-31.3.88-43.78-7.78.62-3.13 4.67-4.5 4-8 11.12 1.01 18.09 9.39 30 6 9.98 3.16 24.95-9.28 15.25-19.25-9.2-5-20.88-4.93-30.47-10.53-22.34-17.58 5.9-45.87 27.9-39.88 9.22.87 30.08 2.68 19.32 15.66m346-5c-2.61 1.56-8.46 1.72-11 0-10.02.73-22.42 11.56-11.75 20.75 9.94 3.77 20.04 5.36 29 9.01 25.28 14.4-2.2 45.28-24.25 40.24-10.58-.89-25.04-1.25-30.64-10.7 5.71-13.6 18.82 2.02 29.31.03 9.72 2.16 24.78-2.66 22.33-16.33-4.98-9.29-18.38-4.95-27.08-10.92-11.36-1.76-17.96-14.85-12.99-25.15 9.73-21.06 41.86-21.52 58.07-9.93-3.87 1.37-3.19 9.9-8.22 7.22-4.08-2.02-8.34-3.29-12.78-4.22m284 4c3.66-2.08 3.82-8.96 5-14h10c1.28 3.9-1.64 5.94 0 10-3.5-3.13-.53 9.96-3.33 13.67-4.12 18.73-7.34 37.01-10.67 55.33h-12c.05-3.49 1.96-6.48 2-10-14.24 14.83-42.22 14.91-54.75-2.25-9.82-18.93-4.55-43.23 11.05-57.45 14.11-13.23 44.56-14.45 52.7 4.7m415-15c9.39 2.07 19.79 4.03 26.75 12.25 1.45 12.27-13.21 9.13-18 1-19.88-8.75-42.73 9.12-41.75 30.75-5.22 23.22 28.51 34.66 41.3 20.3 9.25-10.37 17.72 5.71 4.47 9.47-15.81 12.65-44.88 8.98-55.07-9.47-13.41-29.25 10.27-64.39 42.3-64.3m202 14c4.58-2.48-.11-15.92 8.22-12.22 8.45-1.47 7.61 8.7 5 13.44-2.01 4.05 1.31 17.92-2.22 7.78-3.06 19.45-7.58 37.18-10 57h-12c-.7-3.27 1.43-5.77 1-9-15.33 12.19-43.01 15.62-54.75-4.25-7.88-18.55-4.09-41.31 11-55.5 14.42-13.86 42.43-15.95 53.75 2.75M171 781c.72 3.94-1.49 7.1-1 11 9.64-4.97 17.38-12.62 30-11-.06 3.81-2.31 7.06-2 11-24.55-2.69-34.17 23.65-35.93 43.08-3.65 10.37.08 30.11-17.07 24.92 5.14-28.02 9.9-50.37 16-79zm782 1c-5.1 19.73-8.32 38.34-11.33 58.67-2.89 9.47-1.96 24.06-16.67 19.33 4.26-22.66 7.92-43.79 13.31-66.69.37-8.86 4.52-16.04 14.69-11.31m386-1c-4.64 29.7-11.64 60.55-17.98 92.02-5.58 16.5-25.58 20.72-40.02 13.98-.48-11.75 8.91-8.83 17-8 17.72-3.69 12.43-27.89 17.98-41.02 3.81-15.72 4.29-28.65 9.8-44.2-.95-9.78 3.52-14.31 13.22-12.78m66 0c-.14 17.69-10.1 37.6-8.07 57.07 6.37 20.34 35.35 13.78 42.82-3.32 4.95-17.71 9.22-34.93 12.25-53.75 3.98.42 8.44-.99 12 1-6.34 26.55-10.01 50.39-16 78h-11c-.41-3.18 1.69-5.72 1-9-15.55 13.58-48.4 15.36-53.78-9.22-.55-12.94 1.13-24.17 4.56-36 5.49-9.66-.91-28.75 16.22-24.78m624 15c-10.83 13.52-18.55-11.26-32-4-24.59-1.34-41.32 38.56-19.75 54.75 11.99 5.85 28.94 4.41 36.75-7.75 3.57.94 4.29 6.47 9 5-10.62 20.28-43.35 22.99-58.75 6.75-13.69-15.58-11.45-44.23 6-57.5 14.09-17.59 48.31-17.39 58.75 2.75m115 64h-13c4.04-18 8.2-38.26 10.93-53.08 3.83-8.45 1.03-19.25 7.3-25.69 15.6-3.79 7.07 12.1 6.45 19.45-2.9 20-9.03 39.22-11.68 59.32m383-16c9.15-14.95 17.31-32.04 26.31-48.7 2.47-7.55 13-21.58 19.28-10.55 2.43 21.55 6.97 39.31 11.41 59.25 7.22-10.27 14.29-23.98 19.99-36.01 8.62-8.38 9.27-31.22 26.01-25.99-12.79 25.32-27.7 51.89-41 78h-13c-4.11-20.29-7.27-40.36-12-60-12.4 19.17-22.84 39.17-33 60h-13c-3.33-20.63-8.46-38-9-59-3.4 4.49-1.51-5.68-2-8-.45-3.8-1.87-7.37-3-11 17.91-6.49 11.92 17.21 15.8 25.25 3.48 12.17 2.86 26.77 7.2 36.75m334-63c-11.72 23.04-26.29 44.74-39.75 67.25-9.91 22.02-32.08 55.54-59.25 35.75 2.99-13.98 13.56-1.03 22.07-4.93 21.47-7.1 16.25-31.05 11.61-46.75-5.2-17.05-6.79-32.4-12.68-49.32 16.24-5.62 14.64 15.93 17.99 26.01 4.97 11.55 4.23 24.8 10.01 35.99 12.3-19.84 26.12-42.53 39-64zm-1101 38v16c-1.61-4.26-1.7-11.81 0-16m-1466 7c-14.75 4.06-34.11 1.9-50 1 15.29-.98 33.98 1.5 50-1m436 2c-11.5-.67-24.32 1.33-35-1 5.26-.9 12.01.61 18 0 5.52 1.94 13.96-3.7 17 1m55 54c1.31-7.51 13.12-19.97 4-25-4.53-15.94 24.53-18.61 17.07-.93-5.52 8.99-7.44 27.46-21.07 25.93M29 861c-5.43.34-20.38 4.71-21-3 3.54 6.18 14.35 1.58 21 3m352 1c-1.48 3.23-6.46 2.26-9 1 2.46-2.61 6.17.58 9-1m1035 0c-1.31 3.03-7.06 2.61-9 1 2.93-1.08 5.79-.02 9-1m383 0c-2.13 3.14-9.9 3.2-12 0 4.3.93 7.66.76 12 0m198 0c-2.16 3.39-9.16 2.41-12 1 3.12-1.34 7.72-.15 12-1m417 0c-1.59 3.17-7.76 2.54-10 1 3.24-1.71 6.46.61 10-1"/><path fill="#9e1427" fill-opacity=".98" d="M2215 748c16.72.06 35.03 5.61 51 1 2.99-10.09 3.92-20.7 6-31 3.67-10.98-2.11-23.55-11.92-10.92-8.49 5.95-19.69 7.56-29.98 4.82-27.72-14.48-25.39-55.61-17.09-80.89 4.44-18.16 30.04-29.11 45.24-14.26 9.19 11.28 17.52.78 13.68-10.68-2.39-10.24-4.2-20.64-5.96-31.04-6.42-6.4-21.12-1.18-29.97-6.03-78.43-18.99-110.6-107.42-111-183-3.84-85.89 34.11-190.78 129-201 1.59-20.89-13.56-45.68 1.75-63.25 17.02-18.99 35.53 23.18 50 3 10.79-17.53 9.35-43.13 1-61.5-16.2-20.71-32.57 20.65-51 4-16.52-17.21 1.84-42.02-2.05-62.94-199.9.14-365.84 187.95-354.7 388.69.98 174.95 142.5 339.12 316 355"/><path fill="#9e1427" fill-opacity=".98" d="M2272 185c10.81 1.75 21.41 2.86 31.78 6.22 78.73 32.77 99.44 125.31 96.22 206.78-3.17 66.2-27.83 142.19-95.71 167.29-6.15 6.68-26.8-.15-22.06 15.48 3.13 17.84 12.8 47.5-8.56 56.9-11.05 2.31-19-4.98-26.92-10.42-9.21-7.38-19.62 3.79-20.82 12.68-3.85 17.76-8.06 46.3 10.18 57.96 10.07 5.31 16.95-6.92 25.67-10.11 8.07-5.9 21.61-2.2 23.91 7.53 2.57 10.24 1.69 23.43-.36 33.02.99 9.58-10.03 27.94 7.67 23.67 42.51-3.31 83.17-13.49 120.92-31.08 164.56-72.65 252.97-275.05 198.39-451.23-40.76-146.33-181.09-265.67-338.08-266.46-7.42 7.58-4.46 20.81-7.25 30.75-2.11 7.9-5.04 30.11 8.27 18.27 7.3-6.77 16.76-11.76 27.46-9.96 29.5 12.78 29.93 55.83 20.28 82.7-4.94 21.43-33.08 25.36-48.24 12.26-12.46-12.85-9.96 10-7.73 17.72 1.52 9.49 1.55 20.57 4.98 30.03"/><path fill="#9e1427" fill-opacity=".01" d="M342 42c-12.85.66-26.91-1.32-39 1 12.85-.66 26.91 1.32 39-1"/><path fill="#040c0d" d="M488 246c23.48-26.38 52.12-53.22 77.25-78.75 13.47-9.36-7.1-19.61-12-28.5C495.4 80.01 419.85 45.38 337 45 212.62 35.23 92.81 105.57 44 216c-3.42-5.49-1.52 8.23-5.68 12.32C18 278.95 10.44 336 16 392c-1.85 4.8 3.8 23.88-2 15 9.26 23.51 10.93 52.14 21.68 76.32 8.8 22.19 20.06 44.78 34.07 63.93C124.39 631.42 217.38 676.71 312 680c27.65 2.62 60.09-.55 83.32-4.34C465.66 664.57 533.16 624.28 573 563c-28.97-27.59-56.88-56.37-86-83-26.48 33.85-61.75 63.76-104.78 74.22-3.06 3.63-15.63.32-12.22 3.78-30.18 1.82-62.54 3.64-90.31-6.69-47.17-13.3-88.74-53.13-108.92-99.08-32.28-74.5-24.38-175.19 35.48-237.98 58.12-63.27 159.68-66.31 226.5-19 21 12.22 36.4 35.62 55.25 50.75"/><path fill="#9e1427" fill-opacity=".01" d="M766 45c-44.52.67-90.24-1.33-134 1 44.52-.67 90.23 1.33 134-1"/><path fill="#040c0d" d="M765 47c-43.18.03-88.13-.02-132 0 .09 26.92-.12 54.75 0 81-.67 164.72.44 340.24 0 512 2.78 10.25-7.64 34.35 10 31h123c-.67-207.92 1.33-416.5-1-624M1290 393c-.52-2.19 1.14-5.62-1-7-.27 1.25.6 3.47-1 4-1.7-39.19-8.18-78.16-28.75-111.25-43.55-64.9-120.36-79.21-193.25-80.75-74.92.92-149.88 15.34-211.92 57.92C869.89 285.96 886.39 314.5 901 346c56.34-32.17 121.92-50.61 188.33-38.33 40.1 5.32 70.96 43.58 65.34 84-92.22 3.24-194.3-13.85-268.42 41.58-51.05 35.17-62.61 111.19-36.57 164.07 41.39 78.91 135.6 91 215.3 78.66 38.43-6.91 71.29-30.82 98.02-58.98v31c1.72 7.73-5.26 25.5 8 23h91c8.26-1.99 23.29 4.37 27-4 .67-91.18-1.33-183.57 1-274m-224 192c-8.53-.47-16.39 1.77-25 1-31.77 1.39-73.36-16.7-71.22-52.22-6.19-35.71 33.67-55.72 63.23-55.77 38.61-4.37 81.54-.87 120.99-2.01.28 26.95 3.26 57.92-18.75 78.25-18.1 17.08-42.64 28.93-69.25 30.75M1715 375c34.38-19.09 67.89-39.28 102.98-58.98C1782.83 236.65 1695 197.56 1612 198c-33.46-.03-62.29 4.14-90.78 11.22-49.84 13.56-98.27 45.53-127.47 90.53-61.16 93.56-52.43 232.57 30.5 311 50.35 51.22 120.59 71.34 193.75 69.25 83.31.91 167.19-45.51 201-123-34.91-18.33-67.98-37.92-103-58-22 54.57-86.06 85.61-142.97 66.98-56.36-16.3-88.59-73.68-85.03-129.98-2.25-55.89 32.82-114.82 88.93-126.07 57.51-13.39 115.43 12.22 138.07 65.07"/><path fill="#9e1427" fill-opacity=".02" d="M13 350c-3.3 5.32-3.31 18.52 0 23-1.41-7.8-.52-15.49 0-23"/><path fill="#9e1427" fill-opacity=".01" d="M1289 386c2.14 1.38.48 4.81 1 7 .47 2.52-1.03 6.23 1 8-.99-4.11 2.18-15.65-2-15M1491 422c-1.76 10.7-2.22 22.65 0 33z"/><path fill="#9e1427" fill-opacity=".02" d="M1291 448c-1.69 6.19-1.64 15.74 0 22z"/><path fill="none" fill-opacity="0" d="M1041 586c7.52-.92 17.56-3.28 25-1 26.61-1.82 51.15-13.67 69.25-30.75 22.01-20.33 19.03-51.3 18.75-78.25-39.45 1.14-82.38-2.36-120.99 2.01-29.56.05-69.42 20.06-63.23 55.77-2.14 35.52 39.45 53.61 71.22 52.22"/><path fill="#9e1427" fill-opacity=".08" d="M2720 485h32c-8.86-3.3-23.07-3.28-32 0"/><path fill="#9e1427" fill-opacity=".93" d="M2752 485h-32c-42.53.23-77.89 38.31-74 81 11.17-1.17 20.28 2.55 30.93 2.07 8.26-.98 25.43 9.25 23.29-5.85-.34-19.18 16.09-36.08 35.77-34.21 31.72 1.67 35.61 46.03 16.76 65.74-37.62 42.99-95.11 75.85-109.97 135.03-3.38 10.21-3.85 22.6 11.22 18.22h140c8.8-2.17 29.17 6.35 26-9v-35c-.15-13.21-19.37-4.5-28-7h-70c30.63-35.12 68.86-58.05 90.08-98.92 24.4-45.87-6.92-110.99-60.08-112.08"/><path fill="#9e1427" fill-opacity=".02" d="M1291 505c-1.69 5.85-1.63 15.08 0 21zM1291 531c-1.67 18.86-1.66 41.07 0 60z"/><path fill="none" fill-opacity="0" d="M1041 586c8.61.77 16.47-1.47 25-1-7.44-2.28-17.48.08-25 1"/><path fill="#9e1427" fill-opacity=".01" d="M768 650c-1.69 6.19-1.64 15.74 0 22z"/><path fill="none" fill-opacity="0" d="M1024 682c-4.84.6-10.91-1.24-15 1 4.84-.6 10.91 1.24 15-1"/><path fill="#9e1427" fill-opacity=".01" d="M1624 682c-11.18.66-23.57-1.32-34 1 11.18-.66 23.58 1.32 34-1"/><path fill="#9e1427" fill-opacity=".09" d="M2154 764c-.77-.83-2.48-.43-4-1-3.96-7.31 1.59-18.18 11-16-1.91-4.57-11.49.83-13.2 5.75-2.49 3.7 2.37 15.71 6.2 11.25"/><path fill="#9e1427" fill-opacity=".08" d="M2166 758c.61 2.44-.49 3.66-2 5 6.78-.05 6.76-15.75-1-17 1.71 3.43 6.6 7.59 3 12"/><path fill="#040c0d" fill-opacity=".98" d="M954 747c-10.18-1.93-15.88 14.87-5.07 17.07 9.56 3.73 14.52-13.76 5.07-17.07M1341 747c-10.41-2.04-14.66 15.95-3.68 17.66 10.41.98 12.86-14.28 3.68-17.66"/><path fill="#040c0d" fill-opacity=".92" d="M2154 764c2.44-.38 2.23 3.18 5 2-.24-2.73 3.29-2.25 5-3 1.51-1.34 2.61-2.56 2-5 1.31-5.09-1.39-8.4-5-11-9.41-2.18-14.96 8.69-11 16 1.52.57 3.23.17 4 1"/><path fill="#040c0d" fill-opacity=".98" d="M587 749c-4.58-.01-7.63-.97-12-1-5.5 38.26-15.63 73.93-22 112 18.05 5.38 16.19-17.24 17.03-27.96 4.44-7.5 3.1-21.72 11.22-30.79 7.35-9.73 21.16-11.38 31.05-7.55 13.18 4.72 8.36 20.66 6.48 31.08-1.41 11.22-7.04 21.44-6.78 35.22h12c2.19-21.42 13.07-42.09 7.97-63.97-8.58-20.86-36.98-18.09-51.97-6.03 1.22-15.93 5.46-25.24 7-41"/><path fill="#9e1427" fill-opacity=".09" d="M2266 749c-15.97 4.61-34.28-.94-51-1 15.54 4.77 33.76 4.01 51 4z"/><path fill="#040c0d" fill-opacity=".98" d="M1088 787c10.5 4.59 13.77-9.32 16.75-16.25 5.79-5.11 9.31-21.53-1.75-21.75-12.5-1.28-11.14 13.25-6 20-4.85 4.66-6 12.76-9 18M2096 749c-3.95.45-8.46-1.02-12 1-4.7 37.46-14.5 72.3-21 110h12c4.65-17.36 6.77-35.62 11.98-52.98.64-18.84 9.94-38.78 9.02-58.02"/><path fill="#040c0d" fill-opacity=".96" d="M90 806c16.47-6.87 24.53-34.84 7.23-46.23C77.11 751.9 54.37 757.26 32 755c-7.39 34.9-15.21 69.72-21 105 25.21-1.93 52.88 4.6 75.92-5.08 18.8-8.11 22.68-39.14 3.08-48.92m-12-40c9.12 1.67 19.5 9.16 14.22 20.22C89.79 795.97 79.01 800.25 70 801c-10.68-1.88-26.6 3.86-33.97-3.03 3.4-9.65 4.23-20.14 6.9-30.04 10.02-4.43 23.66-.69 35.07-1.93m-51 83c.62-3.56 1.4-7.16 1-11 4.07 6.93.03-7.6 3.26-9.74-1.12-4.77 1.52-10.1 1.74-15.26 20.21 2.34 56.72-9.09 55.67 19.67C79.14 857.01 48.59 846.59 27 849"/><path fill="#040c0d" fill-opacity=".99" d="M501 763c-15.5-4.11-11.57 11.61-17 19-7.65-4.04-14.44.81-14 9 3.88-.25 9.06-.41 13 0-.84 16.17-8.99 31.49-9 49-4.65 21.23 22.46 25.59 36 17-.89-2.96-1.11-6.07-2-9-7.77 2.04-17.39 5.74-22-4 .74-17.05 6.47-33.07 8.68-49.32 3.48-7.99 18.84-1.2 24.32-4.68.4-3.42.4-5.63 0-9-6.88 1.31-13.32-1.34-20 1-1.91-6.24 2.33-12.96 2-19"/><path fill="#040c0d" fill-opacity=".98" d="M1026 763c-4.28.48-9.13-1.06-13 1 .05 2.1 2.1 7.99-1 4 .06 4.95-1.56 9.47-3 14-7.46-3.27-15.29.06-14 9 8.91-2.45 16.43 1.83 10.33 11.33-2.03 14.82-7.36 29.05-7.33 44.67 2.33 16.31 25.97 16.85 37 9-1.71-2.8-1.53-6.14-3-9-5.94 4.52-8.77 2.16-16 4-12.46-14.34 1.75-34.56 3.07-51.93-.63-14.09 15.36-5.12 23.93-7.07.36-3.98 1.52-7.45-1-11-6 .12-12.63.22-19 1-.47-6.72 2.72-12.5 3-19M1638 763h-12c-.72 5.75-3.02 11-3.08 16.92-3.08 5.59-10.6-1.22-14.92 2.08 3.14 3.59-2.06 6.22-1 10h12c-2.14 17.58-7.28 32.99-8.01 49.99-5.16 19.44 26.67 25.03 35.94 13.08-.3-11.45-12.73-3.52-18.93-4.07-10.64-14.86.85-34.21 2.22-50.78-1.05-14.02 16.07-5.4 23.85-9.15 7.3-13.67-10.63-9.71-19.07-10.07 1.21-6.22.57-12.77 3-18"/><path fill="#040c0d" fill-opacity=".01" d="M78 766c-11.41 1.24-25.05-2.5-35.07 1.93-2.67 9.9-3.5 20.39-6.9 30.04 7.37 6.89 23.29 1.15 33.97 3.03 9.01-.75 19.79-5.03 22.22-14.78C97.5 775.16 87.12 767.67 78 766m-5 33c-10.43 2.32-22.82.34-34 1 10.43-2.32 22.82-.34 34-1"/><path fill="#9e1427" fill-opacity=".1" d="M2741 781c2.42 1.12 1.51 2.8 1 5 5.02 1.22-.8-11.93-1-5"/><path fill="#040c0d" fill-opacity=".97" d="M242 825h50c19.9 5.57 13.37-21.23 7.75-30.75-27.53-36.96-84.56 6.37-68.52 45.52 10.11 26.3 46.56 25.89 65.77 10.23.17-3.53-5.14-4.47-5-8-10.41 4.64-21.64 11.27-33.98 6.98-10.9-1.85-18.73-13.37-16.02-23.98m51-10h-49c1.13-29.45 52.15-32.4 49 0"/><path fill="#040c0d" fill-opacity=".96" d="M430 782c-10.35-4.98-16.18 2.91-15.25 11.74-5.4 1.05-8.09-11.41-16.07-11.42-32.68-10.93-62.11 26.31-52.66 56.66 6.05 26.36 41.02 26.91 57.98 12.02-.36 3.12-2.53 5.68-2 9h12c5.17-25.84 8.83-52.08 16-78m-22 25c.11.47 0 1 0 1 4.6 17.57-7.17 42.1-28 41-24.52 2.99-26.92-29.47-16.23-44.23 9.44-15.39 39.57-18.92 44.23 2.23"/><path fill="#040c0d" fill-opacity=".97" d="M740 842c-14.82 10.27-41.83 14.28-48.67-7.33-6.63-15.22 15.11-8.13 23.67-9.67 12.22-.2 24.52.4 36.69-.31 7.41-18.03-4.15-42.25-24.62-43.76-31.39-5.77-55.52 27.68-46.85 56.85 2.49 20.11 29.26 27.25 46.76 21.2 7.92-.89 21.35-7.91 13.02-16.98m-48-26c2.38-28.61 50.45-33.3 50.66-1.32-15.87 3.07-33.94.45-50.66 1.32"/><path fill="#040c0d" fill-opacity=".98" d="M1200 796c10.76-12.98-10.1-14.79-19.32-15.66-22-5.99-50.24 22.3-27.9 39.88 9.59 5.6 21.27 5.53 30.47 10.53 9.7 9.97-5.27 22.41-15.25 19.25-11.91 3.39-18.88-4.99-30-6 .67 3.5-3.38 4.87-4 8 12.48 8.66 28.8 10.55 43.78 7.78 15.07-2.12 22.94-15.66 21.22-29.78-8.67-16.87-32.05-9.61-42-24 1.25-21.75 29.79-14.41 43-10"/><path fill="#040c0d" fill-opacity=".99" d="M1535 791c3.07-1.4 8.36-1.83 11 0 4.44.93 8.7 2.2 12.78 4.22 5.03 2.68 4.35-5.85 8.22-7.22-16.21-11.59-48.34-11.13-58.07 9.93-4.97 10.3 1.63 23.39 12.99 25.15 8.7 5.97 22.1 1.63 27.08 10.92 2.45 13.67-12.61 18.49-22.33 16.33-10.49 1.99-23.6-13.63-29.31-.03 5.6 9.45 20.06 9.81 30.64 10.7 22.05 5.04 49.53-25.84 24.25-40.24-8.96-3.65-19.06-5.24-29-9.01-10.67-9.19 1.73-20.02 11.75-20.75"/><path fill="#040c0d" fill-opacity=".97" d="M1830 795c-8.14-19.15-38.59-17.93-52.7-4.7-15.6 14.22-20.87 38.52-11.05 57.45 12.53 17.16 40.51 17.08 54.75 2.25-.04 3.52-1.95 6.51-2 10h12c3.33-18.32 6.55-36.6 10.67-55.33 2.8-3.71-.17-16.8 3.33-13.67-1.64-4.06 1.28-6.1 0-10h-10c-1.18 5.04-1.34 11.92-5 14m-20-3c30.82 10.58 12.94 64.64-19 58-31.52-10.16-13.57-65.86 19-58"/><path fill="#040c0d" fill-opacity=".98" d="M2245 780c-32.03-.09-55.71 35.05-42.3 64.3 10.19 18.45 39.26 22.12 55.07 9.47 13.25-3.76 4.78-19.84-4.47-9.47-12.79 14.36-46.52 2.92-41.3-20.3-.98-21.63 21.87-39.5 41.75-30.75 4.79 8.13 19.45 11.27 18-1-6.96-8.22-17.36-10.18-26.75-12.25"/><path fill="#040c0d" fill-opacity=".97" d="M2447 794c-11.32-18.7-39.33-16.61-53.75-2.75-15.09 14.19-18.88 36.95-11 55.5 11.74 19.87 39.42 16.44 54.75 4.25.43 3.23-1.7 5.73-1 9h12c2.42-19.82 6.94-37.55 10-57 3.53 10.14.21-3.73 2.22-7.78 2.61-4.74 3.45-14.91-5-13.44-8.33-3.7-3.64 9.74-8.22 12.22m-20-2c31.56 11.2 11.17 65.57-20.22 57.22-31.43-11.41-11.77-65.3 20.22-57.22"/><path fill="#040c0d" fill-opacity=".96" d="M2742 786c.51-2.2 1.42-3.88-1-5-4.38.02-8.33 1.42-12 0 1.18 4.91-.73 9.03-1 14-9.5-12.37-26.53-19.24-41.97-11.97-28.84 10.65-41.47 53.28-15.27 73.22 14.14 8.71 32.97 4.48 45.24-5.25.18 3.11.01 6.21-1 9h11c6.41-25.74 9.49-49.58 16-74m-72 42c.03-.5 0-1 0-1-1.17-19.94 15.64-38.11 35.67-34.67 22.13 5.87 18.51 34.54 7.41 48.75-13.1 14.67-44.69 10.74-43.08-13.08"/><path fill="#040c0d" fill-opacity=".99" d="M171 781h-10c-6.1 28.63-10.86 50.98-16 79 17.15 5.19 13.42-14.55 17.07-24.92 1.76-19.43 11.38-45.77 35.93-43.08-.31-3.94 1.94-7.19 2-11-12.62-1.62-20.36 6.03-30 11-.49-3.9 1.72-7.06 1-11"/><path fill="#040c0d" fill-opacity=".98" d="M953 782c-10.17-4.73-14.32 2.45-14.69 11.31-5.39 22.9-9.05 44.03-13.31 66.69 14.71 4.73 13.78-9.86 16.67-19.33 3.01-20.33 6.23-38.94 11.33-58.67"/><path fill="#040c0d" fill-opacity=".99" d="M1339 781c-9.7-1.53-14.17 3-13.22 12.78-5.51 15.55-5.99 28.48-9.8 44.2-5.55 13.13-.26 37.33-17.98 41.02-8.09-.83-17.48-3.75-17 8 14.44 6.74 34.44 2.52 40.02-13.98 6.34-31.47 13.34-62.32 17.98-92.02"/><path fill="#040c0d" fill-opacity=".98" d="M1405 781c-17.13-3.97-10.73 15.12-16.22 24.78-3.43 11.83-5.11 23.06-4.56 36 5.38 24.58 38.23 22.8 53.78 9.22.69 3.28-1.41 5.82-1 9h11c5.99-27.61 9.66-51.45 16-78-3.56-1.99-8.02-.58-12-1-3.03 18.82-7.3 36.04-12.25 53.75-7.47 17.1-36.45 23.66-42.82 3.32-2.03-19.47 7.93-39.38 8.07-57.07M2029 796c-10.44-20.14-44.66-20.34-58.75-2.75-17.45 13.27-19.69 41.92-6 57.5 15.4 16.24 48.13 13.53 58.75-6.75-4.71 1.47-5.43-4.06-9-5-7.81 12.16-24.76 13.6-36.75 7.75-21.57-16.19-4.84-56.09 19.75-54.75 13.45-7.26 21.17 17.52 32 4M2144 860c2.65-20.1 8.78-39.32 11.68-59.32.62-7.35 9.15-23.24-6.45-19.45-6.27 6.44-3.47 17.24-7.3 25.69-2.73 14.82-6.89 35.08-10.93 53.08zM2527 844c-4.34-9.98-3.72-24.58-7.2-36.75-3.88-8.04 2.11-31.74-15.8-25.25 1.13 3.63 2.55 7.2 3 11 .49 2.32-1.4 12.49 2 8 .54 21 5.67 38.37 9 59h13c10.16-20.83 20.6-40.83 33-60 4.73 19.64 7.89 39.71 12 60h13c13.3-26.11 28.21-52.68 41-78-16.74-5.23-17.39 17.61-26.01 25.99-5.7 12.03-12.77 25.74-19.99 36.01-4.44-19.94-8.98-37.7-11.41-59.25-6.28-11.03-16.81 3-19.28 10.55-9 16.66-17.16 33.75-26.31 48.7M2861 781h-11c-12.88 21.47-26.7 44.16-39 64-5.78-11.19-5.04-24.44-10.01-35.99-3.35-10.08-1.75-31.63-17.99-26.01 5.89 16.92 7.48 32.27 12.68 49.32 4.64 15.7 9.86 39.65-11.61 46.75-8.51 3.9-19.08-9.05-22.07 4.93 27.17 19.79 49.34-13.73 59.25-35.75 13.46-22.51 28.03-44.21 39.75-67.25"/><path fill="#040c0d" fill-opacity=".84" d="M1535 791c2.54 1.72 8.39 1.56 11 0-2.64-1.83-7.93-1.4-11 0"/><path fill="#040c0d" fill-opacity=".02" d="M293 815c3.15-32.4-47.87-29.45-49 0z"/><path fill="#040c0d" fill-opacity=".01" d="M408 808v14c-1.6-3.93-1.7-11.14 0-15-4.66-21.15-34.79-17.62-44.23-2.23-10.69 14.76-8.29 47.22 16.23 44.23 20.83 1.1 32.6-23.43 28-41"/><path fill="#040c0d" fill-opacity=".03" d="M692 816c16.72-.87 34.79 1.75 50.66-1.32-.21-31.98-48.28-27.29-50.66 1.32"/><path fill="#040c0d" fill-opacity=".01" d="M1810 792c-32.57-7.86-50.52 47.84-19 58 31.94 6.64 49.82-47.42 19-58M2427 792c-31.99-8.08-51.65 45.81-20.22 57.22 31.39 8.35 51.78-46.02 20.22-57.22M2670 827c1.96-1.45.56-4.8 1-7 2.19 3.09.43 8.16 1 12-1.98-.47.11-3.6-2-4-1.61 23.82 29.98 27.75 43.08 13.08 11.1-14.21 14.72-42.88-7.41-48.75-20.03-3.44-36.84 14.73-35.67 34.67"/><path fill="none" fill-opacity="0" d="M73 799c-11.18.66-23.57-1.32-34 1 11.18-.66 23.57 1.32 34-1M408 808s.11-.53 0-1c-1.7 3.86-1.6 11.07 0 15z"/><path fill="#040c0d" fill-opacity=".01" d="M27 849c21.59-2.41 52.14 8.01 61.67-16.33C89.72 803.91 53.21 815.34 33 813c-.22 5.16-2.86 10.49-1.74 15.26-3.23 2.14.81 16.67-3.26 9.74.4 3.84-.38 7.44-1 11"/><path fill="none" fill-opacity="0" d="M1760 819c-1.7 4.19-1.61 11.74 0 16z"/><path fill="#9e1427" fill-opacity=".01" d="M2670 827s.03.5 0 1c2.11.4.02 3.53 2 4-.57-3.84 1.19-8.91-1-12-.44 2.2.96 5.55-1 7M294 826c-16.02 2.5-34.71.02-50 1 15.89.9 35.25 3.06 50-1M730 828c-3.04-4.7-11.48.94-17-1-5.99.61-12.74-.9-18 0 10.68 2.33 23.5.33 35 1"/><path fill="#040c0d" fill-opacity=".99" d="M785 882c13.63 1.53 15.55-16.94 21.07-25.93 7.46-17.68-21.6-15.01-17.07.93 9.12 5.03-2.69 17.49-4 25"/><path fill="#9e1427" fill-opacity=".07" d="M29 861c-6.65-1.42-17.46 3.18-21-3 .62 7.71 15.57 3.34 21 3"/><path fill="#9e1427" fill-opacity=".02" d="M381 862c-2.83 1.58-6.54-1.61-9 1 2.54 1.26 7.52 2.23 9-1"/><path fill="#9e1427" fill-opacity=".01" d="M1416 862c-3.21.98-6.07-.08-9 1 1.94 1.61 7.69 2.03 9-1"/><path fill="#9e1427" fill-opacity=".02" d="M1799 862c-4.34.76-7.7.93-12 0 2.1 3.2 9.87 3.14 12 0M1997 862c-4.28.85-8.88-.34-12 1 2.84 1.41 9.84 2.39 12-1M2414 862c-3.54 1.61-6.76-.71-10 1 2.24 1.54 8.41 2.17 10-1"/></svg>