<svg xmlns="http://www.w3.org/2000/svg" xmlns:v="https://svgstorm.com"
viewBox = "0 0 3026 846"
width="3026"
height="846">
<g fill="None" fill-opacity="0.0" stroke="#040C0D" stroke-opacity="0.00" stroke-width="0.3"><path d="
M 0.00 846.00 
L 3026.00 846.00
L 3026.00 0.00
L 0.00 0.00
L 0.00 846.00
M 2384.00 211.00 
C 2326.45 230.23 2296.61 288.12 2283.23 342.23 C 2269.97 407.70 2270.39 480.49 2295.75 541.25 C 2314.88 596.05 2365.50 642.68 2427.00 642.00
C 2428.76 652.40 2430.76 662.75 2432.99 673.01 C 2433.38 680.86 2437.70 702.59 2423.92 693.08 C 2411.31 679.02 2384.91 676.63 2374.75 695.75 C 2359.96 721.42 2360.68 761.83 2377.11 784.89 C 2389.34 801.41 2413.88 795.91 2427.08 783.08 C 2439.95 776.81 2431.42 800.61 2432.67 807.67 C 2428.94 817.36 2430.45 828.59 2426.00 838.00
C 2284.46 840.36 2154.08 761.33 2089.00 638.00
C 2003.60 494.49 2016.74 290.56 2120.75 159.75 C 2190.17 69.15 2296.05 10.78 2412.00 8.00 C 2419.30 29.46 2395.31 63.57 2419.70 79.30 C 2431.09 83.73 2441.35 75.42 2450.25 69.25 C 2461.30 59.24 2473.57 72.77 2473.99 84.01 C 2477.43 96.59 2477.68 108.88 2476.00 122.00 C 2472.57 132.21 2470.26 148.96 2455.33 145.67 C 2444.96 141.41 2438.17 131.06 2425.99 131.01 C 2411.72 131.22 2407.20 146.57 2409.00 159.00 C 2409.22 172.38 2412.75 184.78 2413.98 198.02 C 2415.83 211.58 2393.00 205.95 2384.00 211.00
M 2445.00 838.00 
C 2445.45 816.25 2454.97 793.42 2447.02 771.98 C 2430.83 750.87 2413.61 779.26 2396.33 778.67 C 2378.34 768.66 2379.61 742.14 2382.97 723.97 C 2382.47 714.28 2386.17 702.94 2395.22 699.22 C 2404.91 694.64 2411.14 705.67 2419.70 709.30 C 2442.19 724.18 2455.71 693.17 2449.00 674.00 C 2448.12 663.13 2445.12 652.82 2444.00 642.00 C 2450.04 634.89 2463.33 637.85 2471.22 632.22 C 2545.90 600.01 2567.03 512.06 2572.00 439.00 C 2572.49 359.88 2558.47 275.15 2492.10 224.90 C 2475.68 214.24 2457.27 206.62 2437.00 206.00 C 2424.93 204.10 2432.37 186.38 2428.01 177.99 C 2429.62 169.67 2420.29 150.92 2431.22 149.78 C 2444.33 162.23 2470.38 169.05 2481.77 150.77 C 2497.50 126.02 2497.74 88.89 2483.08 62.92 C 2473.32 45.49 2445.67 46.75 2433.25 61.25 C 2418.79 68.07 2428.48 45.93 2427.78 38.78 C 2428.74 28.69 2431.45 18.59 2432.00 8.00
C 2569.62 9.02 2692.73 92.73 2758.77 208.23 C 2830.25 331.09 2832.23 504.02 2764.70 629.70 C 2702.72 746.25 2580.35 833.84 2445.00 838.00
M 362.00 71.00 
C 355.24 73.30 346.51 71.36 339.00 72.00
C 345.76 69.70 354.49 71.64 362.00 71.00
M 454.00 87.00 
C 456.66 92.75 467.11 91.15 473.69 95.31 C 519.35 114.13 569.54 144.97 602.30 186.70 C 606.66 190.76 616.34 198.74 607.25 204.25 C 581.09 232.74 550.75 262.54 522.97 289.97 C 505.60 274.89 491.44 253.17 471.75 241.24 C 426.53 202.82 355.46 192.14 296.32 209.32 C 217.44 235.21 167.97 317.50 166.00 397.00 C 160.06 416.92 167.31 437.18 165.00 458.00
C 167.83 455.27 167.65 465.86 167.00 470.00
C 169.85 467.87 168.90 476.17 169.00 480.00
C 172.80 475.68 168.91 484.61 170.00 487.00
C 175.10 491.46 174.03 505.32 177.97 510.04 C 190.17 547.09 213.65 584.42 248.70 610.30 C 255.29 614.61 262.01 623.47 270.00 622.00
C 276.11 630.60 289.18 632.69 299.01 635.99 C 309.06 639.27 321.05 644.03 333.67 643.33 C 356.84 645.16 381.80 646.07 405.75 639.41 C 422.61 638.21 442.08 626.77 460.03 619.03 C 474.16 608.69 488.97 596.90 503.75 581.75 C 510.52 575.60 515.53 560.22 525.70 562.31 C 556.30 590.63 585.60 620.14 614.00 648.00
C 608.14 663.77 590.96 675.85 580.75 689.75 C 552.67 717.28 522.28 736.78 485.98 750.98 C 467.04 759.18 446.34 766.31 426.00 767.00
C 428.85 769.53 416.16 769.34 411.99 770.99 C 361.68 774.76 305.89 776.90 259.90 760.10 C 173.53 743.09 93.17 675.45 54.25 591.75 C 10.71 508.16 7.95 393.12 34.78 299.78 C 57.50 228.53 102.95 161.02 167.08 124.08 C 202.69 101.19 242.18 87.17 283.22 78.22 C 303.77 77.02 323.09 73.43 347.00 75.00 C 377.75 73.44 408.32 78.23 436.00 84.00 C 442.22 82.93 447.37 90.40 454.00 87.00
M 822.00 763.00 
C 786.87 764.63 751.45 763.43 716.26 763.40 C 706.42 762.80 690.22 766.66 681.00 762.00
C 678.67 535.24 680.67 306.51 680.00 79.00
C 727.52 78.99 776.20 79.01 823.00 79.00
C 822.33 306.83 824.33 535.99 822.00 763.00
M 825.00 86.00 
C 825.00 117.33 825.00 148.67 825.00 180.00
C 823.33 149.73 823.33 116.19 825.00 86.00
M 678.00 92.00 
C 678.00 315.33 678.00 538.67 678.00 762.00
C 676.34 539.73 676.33 314.20 678.00 92.00
M 825.00 182.00 
C 825.00 191.00 825.00 200.00 825.00 209.00
C 823.35 201.08 823.32 189.85 825.00 182.00
M 349.00 204.00 
C 345.58 206.21 340.18 204.42 336.00 205.00
C 339.42 202.79 344.82 204.58 349.00 204.00
M 825.00 232.00 
C 825.00 237.33 825.00 242.67 825.00 248.00
C 823.39 243.74 823.30 236.19 825.00 232.00
M 825.00 250.00 
C 825.00 255.67 825.00 261.33 825.00 267.00
C 823.38 262.41 823.30 254.52 825.00 250.00
M 1895.00 609.00 
C 1911.28 624.40 1932.79 628.98 1950.00 643.00
C 1911.03 721.13 1830.48 770.93 1746.00 771.00 C 1718.31 770.77 1690.73 771.58 1664.93 768.07 C 1603.55 757.17 1544.82 726.01 1504.23 672.77 C 1490.62 655.71 1483.37 639.52 1473.23 619.77 C 1466.72 596.61 1457.06 577.26 1457.00 557.00
C 1452.42 560.06 1459.14 544.34 1453.10 541.90 C 1453.01 527.30 1451.25 512.73 1452.00 497.00 C 1460.17 458.30 1462.97 413.97 1485.92 380.92 C 1508.77 339.09 1548.33 302.47 1589.08 284.08 C 1601.31 280.38 1612.45 272.81 1624.74 269.40 C 1635.60 264.64 1646.89 266.62 1659.22 261.22 C 1665.89 260.91 1672.69 258.58 1680.00 260.00
C 1676.45 255.63 1689.42 260.64 1693.00 259.00
C 1687.48 256.27 1701.46 257.85 1703.74 256.60 C 1718.93 257.20 1735.65 257.03 1748.22 257.22 C 1773.54 258.38 1801.23 264.16 1827.07 273.93 C 1878.82 288.41 1921.75 329.64 1948.92 379.08 C 1936.49 393.06 1916.42 398.33 1901.25 409.25 C 1885.47 418.98 1868.03 427.38 1853.75 437.75 C 1848.28 438.96 1842.84 447.91 1837.75 442.25 C 1813.47 392.14 1763.55 365.68 1708.00 372.00 C 1658.80 374.10 1612.32 416.39 1601.07 466.07 C 1589.78 511.39 1594.36 568.33 1622.75 608.25 C 1641.49 623.87 1657.36 645.64 1679.70 648.35 C 1711.19 662.77 1755.00 656.47 1782.07 642.07 C 1803.55 630.18 1822.50 610.89 1832.92 590.92 C 1837.09 572.71 1854.23 588.85 1862.77 593.23 C 1874.57 598.23 1883.39 607.95 1895.00 609.00
M 1382.00 753.00 
C 1385.75 769.07 1362.50 763.21 1353.75 763.20 C 1328.15 765.47 1298.90 762.88 1274.92 763.93 C 1264.07 761.00 1242.67 769.55 1248.00 750.00
C 1251.05 735.57 1246.73 720.82 1248.00 706.00
C 1219.36 733.77 1191.83 754.41 1155.33 764.33 C 1136.92 769.77 1120.64 770.81 1097.00 772.00 C 1073.42 773.49 1048.33 769.31 1029.00 768.00
C 1032.40 764.52 1020.02 767.71 1016.93 764.07 C 972.38 751.28 922.39 721.53 908.69 673.31 C 904.08 669.35 905.52 662.79 904.00 657.00
C 901.33 660.17 902.66 647.56 900.01 643.99 C 890.93 586.98 909.28 536.21 958.23 503.23 C 995.53 477.95 1043.87 468.64 1088.03 464.98 C 1132.76 460.56 1181.61 464.18 1228.00 463.00 C 1238.30 465.64 1239.99 459.63 1238.00 451.00 C 1240.63 401.19 1188.86 365.44 1141.00 370.00 C 1080.53 364.96 1028.52 380.37 980.10 406.10 C 975.17 406.10 971.98 415.25 966.00 412.00
C 960.35 394.75 947.30 380.41 942.69 362.31 C 931.97 348.97 926.23 333.52 919.00 317.00
C 932.35 303.27 951.15 300.13 967.08 289.08 C 987.24 286.25 1004.81 273.96 1024.68 271.68 C 1070.39 258.79 1113.05 256.29 1163.67 257.33 C 1176.78 257.72 1183.18 257.93 1194.67 260.33 C 1224.92 264.07 1255.51 270.51 1280.03 281.98 C 1320.54 301.64 1361.82 340.64 1369.33 388.67 C 1373.84 398.38 1373.00 412.54 1379.00 420.00
C 1379.31 444.05 1383.63 467.91 1382.00 495.00 C 1382.00 581.00 1382.00 667.00 1382.00 753.00
M 825.00 269.00 
C 825.00 326.33 825.00 383.67 825.00 441.00
C 823.33 384.73 823.33 325.20 825.00 269.00
M 1147.00 371.00 
C 1133.57 373.33 1118.18 371.34 1104.00 372.00
C 1117.87 369.32 1132.30 371.51 1147.00 371.00
M 1385.00 482.00 
C 1385.00 487.00 1385.00 492.00 1385.00 497.00
C 1383.40 493.07 1383.30 485.86 1385.00 482.00
M 825.00 509.00 
C 825.00 514.00 825.00 519.00 825.00 524.00
C 823.40 520.07 823.30 512.86 825.00 509.00
M 825.00 539.00 
C 825.00 551.33 825.00 563.67 825.00 576.00
C 823.34 564.74 823.33 550.19 825.00 539.00
M 2940.00 546.00 
C 2976.00 545.44 3010.26 572.25 3017.92 607.08 C 3026.44 644.80 3009.31 681.68 2983.25 707.25 C 2961.36 732.07 2933.27 751.32 2914.00 778.00
C 2949.33 778.00 2984.67 778.00 3020.00 778.00
C 3020.01 791.33 3020.00 804.67 3020.00 818.00 C 3025.58 836.84 3004.20 829.85 2993.00 831.00 C 2939.00 831.00 2885.00 831.00 2831.00 831.00 C 2823.75 823.32 2831.54 808.54 2833.97 799.97 C 2853.06 744.46 2905.81 711.50 2944.75 668.75 C 2967.11 649.01 2968.56 597.23 2931.31 593.69 C 2909.23 590.28 2888.64 611.19 2892.00 634.00 C 2886.80 644.74 2870.02 634.73 2860.00 636.00 C 2852.39 632.17 2828.81 639.10 2833.76 625.75 C 2833.18 582.82 2873.18 546.37 2916.00 546.00
C 2923.89 544.72 2932.09 544.73 2940.00 546.00
M 825.00 586.00 
C 825.00 640.33 825.00 694.67 825.00 749.00
C 823.34 695.73 823.33 639.20 825.00 586.00
M 1743.00 652.00 
C 1730.93 655.00 1717.82 653.17 1705.00 653.00
C 1717.29 650.64 1730.15 653.28 1743.00 652.00 Z"/>
</g>
<g fill="None" fill-opacity="0.0" stroke="#9E1427" stroke-opacity="0.10" stroke-width="0.3"><path d="
M 2089.00 638.00 
C 1989.29 460.35 2028.38 209.97 2198.08 85.08 C 2251.81 44.71 2314.91 19.89 2381.07 11.07 C 2391.33 13.29 2414.99 0.45 2412.00 19.00 C 2410.37 39.04 2395.23 72.84 2422.67 81.33 C 2434.94 85.94 2443.31 74.94 2452.70 69.70 C 2465.05 63.12 2472.13 78.84 2473.33 88.67 C 2476.49 101.13 2475.40 115.63 2473.00 128.00 C 2471.60 138.55 2460.51 150.24 2449.92 141.08 C 2441.12 134.99 2431.50 126.09 2419.93 129.93 C 2396.94 144.40 2410.45 176.42 2412.00 198.00 C 2413.58 210.86 2390.94 202.94 2384.00 211.00
C 2393.00 205.95 2415.83 211.58 2413.98 198.02 C 2412.75 184.78 2409.22 172.38 2409.00 159.00 C 2407.20 146.57 2411.72 131.22 2425.99 131.01 C 2438.17 131.06 2444.96 141.41 2455.33 145.67 C 2470.26 148.96 2472.57 132.21 2476.00 122.00 C 2477.68 108.88 2477.43 96.59 2473.99 84.01 C 2473.57 72.77 2461.30 59.24 2450.25 69.25 C 2441.35 75.42 2431.09 83.73 2419.70 79.30 C 2395.31 63.57 2419.30 29.46 2412.00 8.00 C 2296.05 10.78 2190.17 69.15 2120.75 159.75 C 2016.74 290.56 2003.60 494.49 2089.00 638.00 Z"/>
</g>
<g fill="None" fill-opacity="0.0" stroke="#9E1427" stroke-opacity="0.98" stroke-width="0.3"><path d="
M 2445.00 838.00 
C 2580.35 833.84 2702.72 746.25 2764.70 629.70 C 2832.23 504.02 2830.25 331.09 2758.77 208.23 C 2692.73 92.73 2569.62 9.02 2432.00 8.00
C 2431.45 18.59 2428.74 28.69 2427.78 38.78 C 2428.48 45.93 2418.79 68.07 2433.25 61.25 C 2445.67 46.75 2473.32 45.49 2483.08 62.92 C 2497.74 88.89 2497.50 126.02 2481.77 150.77 C 2470.38 169.05 2444.33 162.23 2431.22 149.78 C 2420.29 150.92 2429.62 169.67 2428.01 177.99 C 2432.37 186.38 2424.93 204.10 2437.00 206.00 C 2457.27 206.62 2475.68 214.24 2492.10 224.90 C 2558.47 275.15 2572.49 359.88 2572.00 439.00 C 2567.03 512.06 2545.90 600.01 2471.22 632.22 C 2463.33 637.85 2450.04 634.89 2444.00 642.00 C 2445.12 652.82 2448.12 663.13 2449.00 674.00 C 2455.71 693.17 2442.19 724.18 2419.70 709.30 C 2411.14 705.67 2404.91 694.64 2395.22 699.22 C 2386.17 702.94 2382.47 714.28 2382.97 723.97 C 2379.61 742.14 2378.34 768.66 2396.33 778.67 C 2413.61 779.26 2430.83 750.87 2447.02 771.98 C 2454.97 793.42 2445.45 816.25 2445.00 838.00 Z"/>
</g>
<g fill="None" fill-opacity="0.0" stroke="#9E1427" stroke-opacity="0.99" stroke-width="0.3"><path d="
M 2089.00 638.00 
C 2154.08 761.33 2284.46 840.36 2426.00 838.00
C 2430.45 828.59 2428.94 817.36 2432.67 807.67 C 2431.42 800.61 2439.95 776.81 2427.08 783.08 C 2413.88 795.91 2389.34 801.41 2377.11 784.89 C 2360.68 761.83 2359.96 721.42 2374.75 695.75 C 2384.91 676.63 2411.31 679.02 2423.92 693.08 C 2437.70 702.59 2433.38 680.86 2432.99 673.01 C 2430.76 662.75 2428.76 652.40 2427.00 642.00
C 2365.50 642.68 2314.88 596.05 2295.75 541.25 C 2270.39 480.49 2269.97 407.70 2283.23 342.23 C 2296.61 288.12 2326.45 230.23 2384.00 211.00
C 2390.94 202.94 2413.58 210.86 2412.00 198.00 C 2410.45 176.42 2396.94 144.40 2419.93 129.93 C 2431.50 126.09 2441.12 134.99 2449.92 141.08 C 2460.51 150.24 2471.60 138.55 2473.00 128.00 C 2475.40 115.63 2476.49 101.13 2473.33 88.67 C 2472.13 78.84 2465.05 63.12 2452.70 69.70 C 2443.31 74.94 2434.94 85.94 2422.67 81.33 C 2395.23 72.84 2410.37 39.04 2412.00 19.00 C 2414.99 0.45 2391.33 13.29 2381.07 11.07 C 2314.91 19.89 2251.81 44.71 2198.08 85.08 C 2028.38 209.97 1989.29 460.35 2089.00 638.00 Z"/>
</g>
<g fill="None" fill-opacity="0.0" stroke="#9E1427" stroke-opacity="0.00" stroke-width="0.3"><path d="
M 362.00 71.00 
C 354.49 71.64 345.76 69.70 339.00 72.00
C 346.51 71.36 355.24 73.30 362.00 71.00 Z"/>
</g>
<g fill="None" fill-opacity="0.0" stroke="#040C0D" stroke-opacity="1.00" stroke-width="0.3"><path d="
M 454.00 87.00 
C 447.37 90.40 442.22 82.93 436.00 84.00 C 408.32 78.23 377.75 73.44 347.00 75.00 C 323.09 73.43 303.77 77.02 283.22 78.22 C 242.18 87.17 202.69 101.19 167.08 124.08 C 102.95 161.02 57.50 228.53 34.78 299.78 C 7.95 393.12 10.71 508.16 54.25 591.75 C 93.17 675.45 173.53 743.09 259.90 760.10 C 305.89 776.90 361.68 774.76 411.99 770.99 C 416.16 769.34 428.85 769.53 426.00 767.00
C 446.34 766.31 467.04 759.18 485.98 750.98 C 522.28 736.78 552.67 717.28 580.75 689.75 C 590.96 675.85 608.14 663.77 614.00 648.00
C 585.60 620.14 556.30 590.63 525.70 562.31 C 515.53 560.22 510.52 575.60 503.75 581.75 C 488.97 596.90 474.16 608.69 460.03 619.03 C 442.08 626.77 422.61 638.21 405.75 639.41 C 381.80 646.07 356.84 645.16 333.67 643.33 C 321.05 644.03 309.06 639.27 299.01 635.99 C 289.18 632.69 276.11 630.60 270.00 622.00
C 262.01 623.47 255.29 614.61 248.70 610.30 C 213.65 584.42 190.17 547.09 177.97 510.04 C 174.03 505.32 175.10 491.46 170.00 487.00
C 168.91 484.61 172.80 475.68 169.00 480.00
C 168.90 476.17 169.85 467.87 167.00 470.00
C 167.65 465.86 167.83 455.27 165.00 458.00
C 167.31 437.18 160.06 416.92 166.00 397.00 C 167.97 317.50 217.44 235.21 296.32 209.32 C 355.46 192.14 426.53 202.82 471.75 241.24 C 491.44 253.17 505.60 274.89 522.97 289.97 C 550.75 262.54 581.09 232.74 607.25 204.25 C 616.34 198.74 606.66 190.76 602.30 186.70 C 569.54 144.97 519.35 114.13 473.69 95.31 C 467.11 91.15 456.66 92.75 454.00 87.00 Z"/>
</g>
<g fill="None" fill-opacity="0.0" stroke="#040C0D" stroke-opacity="1.00" stroke-width="0.3"><path d="
M 681.00 762.00 
C 727.84 762.67 775.99 760.67 822.00 763.00
C 824.33 535.99 822.33 306.83 823.00 79.00
C 776.20 79.01 727.52 78.99 680.00 79.00
C 680.67 306.51 678.67 535.24 681.00 762.00 Z"/>
</g>
<g fill="None" fill-opacity="0.0" stroke="#9E1427" stroke-opacity="0.02" stroke-width="0.3"><path d="
M 825.00 86.00 
C 823.33 116.19 823.33 149.73 825.00 180.00
C 825.00 148.67 825.00 117.33 825.00 86.00 Z"/>
</g>
<g fill="None" fill-opacity="0.0" stroke="#9E1427" stroke-opacity="0.00" stroke-width="0.3"><path d="
M 678.00 92.00 
C 676.33 314.20 676.34 539.73 678.00 762.00
C 678.00 538.67 678.00 315.33 678.00 92.00 Z"/>
</g>
<g fill="None" fill-opacity="0.0" stroke="#9E1427" stroke-opacity="0.02" stroke-width="0.3"><path d="
M 825.00 182.00 
C 823.32 189.85 823.35 201.08 825.00 209.00
C 825.00 200.00 825.00 191.00 825.00 182.00 Z"/>
</g>
<g fill="None" fill-opacity="0.0" stroke="#9E1427" stroke-opacity="0.00" stroke-width="0.3"><path d="
M 349.00 204.00 
C 344.82 204.58 339.42 202.79 336.00 205.00
C 340.18 204.42 345.58 206.21 349.00 204.00 Z"/>
</g>
<g fill="None" fill-opacity="0.0" stroke="#9E1427" stroke-opacity="0.02" stroke-width="0.3"><path d="
M 825.00 232.00 
C 823.30 236.19 823.39 243.74 825.00 248.00
C 825.00 242.67 825.00 237.33 825.00 232.00 Z"/>
</g>
<g fill="None" fill-opacity="0.0" stroke="#9E1427" stroke-opacity="0.02" stroke-width="0.3"><path d="
M 825.00 250.00 
C 823.30 254.52 823.38 262.41 825.00 267.00
C 825.00 261.33 825.00 255.67 825.00 250.00 Z"/>
</g>
<g fill="None" fill-opacity="0.0" stroke="#040C0D" stroke-opacity="1.00" stroke-width="0.3"><path d="
M 1895.00 609.00 
C 1883.39 607.95 1874.57 598.23 1862.77 593.23 C 1854.23 588.85 1837.09 572.71 1832.92 590.92 C 1822.50 610.89 1803.55 630.18 1782.07 642.07 C 1755.00 656.47 1711.19 662.77 1679.70 648.35 C 1657.36 645.64 1641.49 623.87 1622.75 608.25 C 1594.36 568.33 1589.78 511.39 1601.07 466.07 C 1612.32 416.39 1658.80 374.10 1708.00 372.00 C 1763.55 365.68 1813.47 392.14 1837.75 442.25 C 1842.84 447.91 1848.28 438.96 1853.75 437.75 C 1868.03 427.38 1885.47 418.98 1901.25 409.25 C 1916.42 398.33 1936.49 393.06 1948.92 379.08 C 1921.75 329.64 1878.82 288.41 1827.07 273.93 C 1801.23 264.16 1773.54 258.38 1748.22 257.22 C 1735.65 257.03 1718.93 257.20 1703.74 256.60 C 1701.46 257.85 1687.48 256.27 1693.00 259.00
C 1689.42 260.64 1676.45 255.63 1680.00 260.00
C 1672.69 258.58 1665.89 260.91 1659.22 261.22 C 1646.89 266.62 1635.60 264.64 1624.74 269.40 C 1612.45 272.81 1601.31 280.38 1589.08 284.08 C 1548.33 302.47 1508.77 339.09 1485.92 380.92 C 1462.97 413.97 1460.17 458.30 1452.00 497.00 C 1451.25 512.73 1453.01 527.30 1453.10 541.90 C 1459.14 544.34 1452.42 560.06 1457.00 557.00
C 1457.06 577.26 1466.72 596.61 1473.23 619.77 C 1483.37 639.52 1490.62 655.71 1504.23 672.77 C 1544.82 726.01 1603.55 757.17 1664.93 768.07 C 1690.73 771.58 1718.31 770.77 1746.00 771.00 C 1830.48 770.93 1911.03 721.13 1950.00 643.00
C 1932.79 628.98 1911.28 624.40 1895.00 609.00 Z"/>
</g>
<g fill="None" fill-opacity="0.0" stroke="#040C0D" stroke-opacity="1.00" stroke-width="0.3"><path d="
M 1248.00 750.00 
C 1250.19 753.09 1248.43 758.16 1249.00 762.00
C 1293.00 762.00 1337.00 762.00 1381.00 762.00
C 1381.59 759.16 1379.78 755.02 1382.00 753.00
C 1382.00 667.00 1382.00 581.00 1382.00 495.00 C 1383.63 467.91 1379.31 444.05 1379.00 420.00
C 1373.00 412.54 1373.84 398.38 1369.33 388.67 C 1361.82 340.64 1320.54 301.64 1280.03 281.98 C 1255.51 270.51 1224.92 264.07 1194.67 260.33 C 1183.18 257.93 1176.78 257.72 1163.67 257.33 C 1113.05 256.29 1070.39 258.79 1024.68 271.68 C 1004.81 273.96 987.24 286.25 967.08 289.08 C 951.15 300.13 932.35 303.27 919.00 317.00
C 926.23 333.52 931.97 348.97 942.69 362.31 C 947.30 380.41 960.35 394.75 966.00 412.00
C 971.98 415.25 975.17 406.10 980.10 406.10 C 1028.52 380.37 1080.53 364.96 1141.00 370.00 C 1188.86 365.44 1240.63 401.19 1238.00 451.00 C 1239.99 459.63 1238.30 465.64 1228.00 463.00 C 1181.61 464.18 1132.76 460.56 1088.03 464.98 C 1043.87 468.64 995.53 477.95 958.23 503.23 C 909.28 536.21 890.93 586.98 900.01 643.99 C 902.66 647.56 901.33 660.17 904.00 657.00
C 905.52 662.79 904.08 669.35 908.69 673.31 C 922.39 721.53 972.38 751.28 1016.93 764.07 C 1020.02 767.71 1032.40 764.52 1029.00 768.00
C 1048.33 769.31 1073.42 773.49 1097.00 772.00 C 1120.64 770.81 1136.92 769.77 1155.33 764.33 C 1191.83 754.41 1219.36 733.77 1248.00 706.00
C 1246.73 720.82 1251.05 735.57 1248.00 750.00
M 1238.00 553.00 
C 1238.64 583.22 1241.87 618.00 1215.77 637.77 C 1177.60 679.03 1106.30 684.14 1059.77 656.23 C 1037.26 639.58 1031.72 602.74 1049.25 580.25 C 1069.16 556.39 1101.10 554.58 1130.00 553.00 C 1166.00 553.00 1202.00 553.00 1238.00 553.00 Z"/>
</g>
<g fill="None" fill-opacity="0.0" stroke="#9E1427" stroke-opacity="0.02" stroke-width="0.3"><path d="
M 825.00 269.00 
C 823.33 325.20 823.33 384.73 825.00 441.00
C 825.00 383.67 825.00 326.33 825.00 269.00 Z"/>
</g>
<g fill="None" fill-opacity="0.0" stroke="#9E1427" stroke-opacity="0.01" stroke-width="0.3"><path d="
M 1147.00 371.00 
C 1132.30 371.51 1117.87 369.32 1104.00 372.00
C 1118.18 371.34 1133.57 373.33 1147.00 371.00 Z"/>
</g>
<g fill="None" fill-opacity="0.0" stroke="#9E1427" stroke-opacity="0.01" stroke-width="0.3"><path d="
M 1385.00 482.00 
C 1383.30 485.86 1383.40 493.07 1385.00 497.00
C 1385.00 492.00 1385.00 487.00 1385.00 482.00 Z"/>
</g>
<g fill="None" fill-opacity="0.0" stroke="#9E1427" stroke-opacity="0.02" stroke-width="0.3"><path d="
M 825.00 509.00 
C 823.30 512.86 823.40 520.07 825.00 524.00
C 825.00 519.00 825.00 514.00 825.00 509.00 Z"/>
</g>
<g fill="None" fill-opacity="0.0" stroke="#9E1427" stroke-opacity="0.02" stroke-width="0.3"><path d="
M 825.00 539.00 
C 823.33 550.19 823.34 564.74 825.00 576.00
C 825.00 563.67 825.00 551.33 825.00 539.00 Z"/>
</g>
<g fill="None" fill-opacity="0.0" stroke="#9E1427" stroke-opacity="0.20" stroke-width="0.3"><path d="
M 2916.00 546.00 
C 2922.92 547.64 2933.15 547.68 2940.00 546.00
C 2932.09 544.73 2923.89 544.72 2916.00 546.00 Z"/>
</g>
<g fill="None" fill-opacity="0.0" stroke="#9E1427" stroke-opacity="0.93" stroke-width="0.3"><path d="
M 2940.00 546.00 
C 2933.15 547.68 2922.92 547.64 2916.00 546.00
C 2873.18 546.37 2833.18 582.82 2833.76 625.75 C 2828.81 639.10 2852.39 632.17 2860.00 636.00 C 2870.02 634.73 2886.80 644.74 2892.00 634.00 C 2888.64 611.19 2909.23 590.28 2931.31 593.69 C 2968.56 597.23 2967.11 649.01 2944.75 668.75 C 2905.81 711.50 2853.06 744.46 2833.97 799.97 C 2831.54 808.54 2823.75 823.32 2831.00 831.00 C 2885.00 831.00 2939.00 831.00 2993.00 831.00 C 3004.20 829.85 3025.58 836.84 3020.00 818.00 C 3020.00 804.67 3020.01 791.33 3020.00 778.00
C 2984.67 778.00 2949.33 778.00 2914.00 778.00
C 2933.27 751.32 2961.36 732.07 2983.25 707.25 C 3009.31 681.68 3026.44 644.80 3017.92 607.08 C 3010.26 572.25 2976.00 545.44 2940.00 546.00 Z"/>
</g>
<g fill="None" fill-opacity="0.0" stroke="#040C0D" stroke-opacity="0.00" stroke-width="0.3"><path d="
M 1238.00 553.00 
C 1202.00 553.00 1166.00 553.00 1130.00 553.00 C 1101.10 554.58 1069.16 556.39 1049.25 580.25 C 1031.72 602.74 1037.26 639.58 1059.77 656.23 C 1106.30 684.14 1177.60 679.03 1215.77 637.77 C 1241.87 618.00 1238.64 583.22 1238.00 553.00 Z"/>
</g>
<g fill="None" fill-opacity="0.0" stroke="#9E1427" stroke-opacity="0.02" stroke-width="0.3"><path d="
M 825.00 586.00 
C 823.33 639.20 823.34 695.73 825.00 749.00
C 825.00 694.67 825.00 640.33 825.00 586.00 Z"/>
</g>
<g fill="None" fill-opacity="0.0" stroke="#9E1427" stroke-opacity="0.01" stroke-width="0.3"><path d="
M 1743.00 652.00 
C 1730.15 653.28 1717.29 650.64 1705.00 653.00
C 1717.82 653.17 1730.93 655.00 1743.00 652.00 Z"/>
</g>
<g fill="None" fill-opacity="0.0" stroke="#040C0D" stroke-opacity="0.86" stroke-width="0.3"><path d="
M 1382.00 753.00 
C 1379.78 755.02 1381.59 759.16 1381.00 762.00
C 1337.00 762.00 1293.00 762.00 1249.00 762.00
C 1248.43 758.16 1250.19 753.09 1248.00 750.00
C 1242.67 769.55 1264.07 761.00 1274.92 763.93 C 1298.90 762.88 1328.15 765.47 1353.75 763.20 C 1362.50 763.21 1385.75 769.07 1382.00 753.00 Z"/>
</g>
<g fill="None" fill-opacity="0.0" stroke="#040C0D" stroke-opacity="0.83" stroke-width="0.3"><path d="
M 822.00 763.00 
C 775.99 760.67 727.84 762.67 681.00 762.00
C 690.22 766.66 706.42 762.80 716.26 763.40 C 751.45 763.43 786.87 764.63 822.00 763.00 Z"/>
</g>
<g fill="#040C0D" fill-opacity="0.00" stroke="None"><path d="
M 0.00 846.00 
L 3026.00 846.00
L 3026.00 0.00
L 0.00 0.00
L 0.00 846.00
M 2384.00 211.00 
C 2326.45 230.23 2296.61 288.12 2283.23 342.23 C 2269.97 407.70 2270.39 480.49 2295.75 541.25 C 2314.88 596.05 2365.50 642.68 2427.00 642.00
C 2428.76 652.40 2430.76 662.75 2432.99 673.01 C 2433.38 680.86 2437.70 702.59 2423.92 693.08 C 2411.31 679.02 2384.91 676.63 2374.75 695.75 C 2359.96 721.42 2360.68 761.83 2377.11 784.89 C 2389.34 801.41 2413.88 795.91 2427.08 783.08 C 2439.95 776.81 2431.42 800.61 2432.67 807.67 C 2428.94 817.36 2430.45 828.59 2426.00 838.00
C 2284.46 840.36 2154.08 761.33 2089.00 638.00
C 2003.60 494.49 2016.74 290.56 2120.75 159.75 C 2190.17 69.15 2296.05 10.78 2412.00 8.00 C 2419.30 29.46 2395.31 63.57 2419.70 79.30 C 2431.09 83.73 2441.35 75.42 2450.25 69.25 C 2461.30 59.24 2473.57 72.77 2473.99 84.01 C 2477.43 96.59 2477.68 108.88 2476.00 122.00 C 2472.57 132.21 2470.26 148.96 2455.33 145.67 C 2444.96 141.41 2438.17 131.06 2425.99 131.01 C 2411.72 131.22 2407.20 146.57 2409.00 159.00 C 2409.22 172.38 2412.75 184.78 2413.98 198.02 C 2415.83 211.58 2393.00 205.95 2384.00 211.00
M 2445.00 838.00 
C 2445.45 816.25 2454.97 793.42 2447.02 771.98 C 2430.83 750.87 2413.61 779.26 2396.33 778.67 C 2378.34 768.66 2379.61 742.14 2382.97 723.97 C 2382.47 714.28 2386.17 702.94 2395.22 699.22 C 2404.91 694.64 2411.14 705.67 2419.70 709.30 C 2442.19 724.18 2455.71 693.17 2449.00 674.00 C 2448.12 663.13 2445.12 652.82 2444.00 642.00 C 2450.04 634.89 2463.33 637.85 2471.22 632.22 C 2545.90 600.01 2567.03 512.06 2572.00 439.00 C 2572.49 359.88 2558.47 275.15 2492.10 224.90 C 2475.68 214.24 2457.27 206.62 2437.00 206.00 C 2424.93 204.10 2432.37 186.38 2428.01 177.99 C 2429.62 169.67 2420.29 150.92 2431.22 149.78 C 2444.33 162.23 2470.38 169.05 2481.77 150.77 C 2497.50 126.02 2497.74 88.89 2483.08 62.92 C 2473.32 45.49 2445.67 46.75 2433.25 61.25 C 2418.79 68.07 2428.48 45.93 2427.78 38.78 C 2428.74 28.69 2431.45 18.59 2432.00 8.00
C 2569.62 9.02 2692.73 92.73 2758.77 208.23 C 2830.25 331.09 2832.23 504.02 2764.70 629.70 C 2702.72 746.25 2580.35 833.84 2445.00 838.00
M 362.00 71.00 
C 355.24 73.30 346.51 71.36 339.00 72.00
C 345.76 69.70 354.49 71.64 362.00 71.00
M 822.00 763.00 
C 786.87 764.63 751.45 763.43 716.26 763.40 C 706.42 762.80 690.22 766.66 681.00 762.00
C 678.67 535.24 680.67 306.51 680.00 79.00
C 727.52 78.99 776.20 79.01 823.00 79.00
C 822.33 306.83 824.33 535.99 822.00 763.00
M 825.00 86.00 
C 825.00 117.33 825.00 148.67 825.00 180.00
C 823.33 149.73 823.33 116.19 825.00 86.00
M 678.00 92.00 
C 678.00 315.33 678.00 538.67 678.00 762.00
C 676.34 539.73 676.33 314.20 678.00 92.00
M 825.00 182.00 
C 825.00 191.00 825.00 200.00 825.00 209.00
C 823.35 201.08 823.32 189.85 825.00 182.00
M 349.00 204.00 
C 345.58 206.21 340.18 204.42 336.00 205.00
C 339.42 202.79 344.82 204.58 349.00 204.00
M 825.00 232.00 
C 825.00 237.33 825.00 242.67 825.00 248.00
C 823.39 243.74 823.30 236.19 825.00 232.00
M 825.00 250.00 
C 825.00 255.67 825.00 261.33 825.00 267.00
C 823.38 262.41 823.30 254.52 825.00 250.00
M 1382.00 753.00 
C 1385.75 769.07 1362.50 763.21 1353.75 763.20 C 1328.15 765.47 1298.90 762.88 1274.92 763.93 C 1264.07 761.00 1242.67 769.55 1248.00 750.00
C 1251.05 735.57 1246.73 720.82 1248.00 706.00
C 1219.36 733.77 1191.83 754.41 1155.33 764.33 C 1136.92 769.77 1120.64 770.81 1097.00 772.00 C 1073.42 773.49 1048.33 769.31 1029.00 768.00
C 1032.40 764.52 1020.02 767.71 1016.93 764.07 C 972.38 751.28 922.39 721.53 908.69 673.31 C 904.08 669.35 905.52 662.79 904.00 657.00
C 901.33 660.17 902.66 647.56 900.01 643.99 C 890.93 586.98 909.28 536.21 958.23 503.23 C 995.53 477.95 1043.87 468.64 1088.03 464.98 C 1132.76 460.56 1181.61 464.18 1228.00 463.00 C 1238.30 465.64 1239.99 459.63 1238.00 451.00 C 1240.63 401.19 1188.86 365.44 1141.00 370.00 C 1080.53 364.96 1028.52 380.37 980.10 406.10 C 975.17 406.10 971.98 415.25 966.00 412.00
C 960.35 394.75 947.30 380.41 942.69 362.31 C 931.97 348.97 926.23 333.52 919.00 317.00
C 932.35 303.27 951.15 300.13 967.08 289.08 C 987.24 286.25 1004.81 273.96 1024.68 271.68 C 1070.39 258.79 1113.05 256.29 1163.67 257.33 C 1176.78 257.72 1183.18 257.93 1194.67 260.33 C 1224.92 264.07 1255.51 270.51 1280.03 281.98 C 1320.54 301.64 1361.82 340.64 1369.33 388.67 C 1373.84 398.38 1373.00 412.54 1379.00 420.00
C 1379.31 444.05 1383.63 467.91 1382.00 495.00 C 1382.00 581.00 1382.00 667.00 1382.00 753.00
M 825.00 269.00 
C 825.00 326.33 825.00 383.67 825.00 441.00
C 823.33 384.73 823.33 325.20 825.00 269.00
M 1147.00 371.00 
C 1133.57 373.33 1118.18 371.34 1104.00 372.00
C 1117.87 369.32 1132.30 371.51 1147.00 371.00
M 1385.00 482.00 
C 1385.00 487.00 1385.00 492.00 1385.00 497.00
C 1383.40 493.07 1383.30 485.86 1385.00 482.00
M 825.00 509.00 
C 825.00 514.00 825.00 519.00 825.00 524.00
C 823.40 520.07 823.30 512.86 825.00 509.00
M 825.00 539.00 
C 825.00 551.33 825.00 563.67 825.00 576.00
C 823.34 564.74 823.33 550.19 825.00 539.00
M 2940.00 546.00 
C 2976.00 545.44 3010.26 572.25 3017.92 607.08 C 3026.44 644.80 3009.31 681.68 2983.25 707.25 C 2961.36 732.07 2933.27 751.32 2914.00 778.00
C 2949.33 778.00 2984.67 778.00 3020.00 778.00
C 3020.01 791.33 3020.00 804.67 3020.00 818.00 C 3025.58 836.84 3004.20 829.85 2993.00 831.00 C 2939.00 831.00 2885.00 831.00 2831.00 831.00 C 2823.75 823.32 2831.54 808.54 2833.97 799.97 C 2853.06 744.46 2905.81 711.50 2944.75 668.75 C 2967.11 649.01 2968.56 597.23 2931.31 593.69 C 2909.23 590.28 2888.64 611.19 2892.00 634.00 C 2886.80 644.74 2870.02 634.73 2860.00 636.00 C 2852.39 632.17 2828.81 639.10 2833.76 625.75 C 2833.18 582.82 2873.18 546.37 2916.00 546.00
C 2923.89 544.72 2932.09 544.73 2940.00 546.00
M 825.00 586.00 
C 825.00 640.33 825.00 694.67 825.00 749.00
C 823.34 695.73 823.33 639.20 825.00 586.00
M 1743.00 652.00 
C 1730.93 655.00 1717.82 653.17 1705.00 653.00
C 1717.29 650.64 1730.15 653.28 1743.00 652.00 Z"/>
</g>
<g fill="#9E1427" fill-opacity="0.10" stroke="None"><path d="
M 2089.00 638.00 
C 1989.29 460.35 2028.38 209.97 2198.08 85.08 C 2251.81 44.71 2314.91 19.89 2381.07 11.07 C 2391.33 13.29 2414.99 0.45 2412.00 19.00 C 2410.37 39.04 2395.23 72.84 2422.67 81.33 C 2434.94 85.94 2443.31 74.94 2452.70 69.70 C 2465.05 63.12 2472.13 78.84 2473.33 88.67 C 2476.49 101.13 2475.40 115.63 2473.00 128.00 C 2471.60 138.55 2460.51 150.24 2449.92 141.08 C 2441.12 134.99 2431.50 126.09 2419.93 129.93 C 2396.94 144.40 2410.45 176.42 2412.00 198.00 C 2413.58 210.86 2390.94 202.94 2384.00 211.00
C 2393.00 205.95 2415.83 211.58 2413.98 198.02 C 2412.75 184.78 2409.22 172.38 2409.00 159.00 C 2407.20 146.57 2411.72 131.22 2425.99 131.01 C 2438.17 131.06 2444.96 141.41 2455.33 145.67 C 2470.26 148.96 2472.57 132.21 2476.00 122.00 C 2477.68 108.88 2477.43 96.59 2473.99 84.01 C 2473.57 72.77 2461.30 59.24 2450.25 69.25 C 2441.35 75.42 2431.09 83.73 2419.70 79.30 C 2395.31 63.57 2419.30 29.46 2412.00 8.00 C 2296.05 10.78 2190.17 69.15 2120.75 159.75 C 2016.74 290.56 2003.60 494.49 2089.00 638.00 Z"/>
</g>
<g fill="#9E1427" fill-opacity="0.98" stroke="None"><path d="
M 2445.00 838.00 
C 2580.35 833.84 2702.72 746.25 2764.70 629.70 C 2832.23 504.02 2830.25 331.09 2758.77 208.23 C 2692.73 92.73 2569.62 9.02 2432.00 8.00
C 2431.45 18.59 2428.74 28.69 2427.78 38.78 C 2428.48 45.93 2418.79 68.07 2433.25 61.25 C 2445.67 46.75 2473.32 45.49 2483.08 62.92 C 2497.74 88.89 2497.50 126.02 2481.77 150.77 C 2470.38 169.05 2444.33 162.23 2431.22 149.78 C 2420.29 150.92 2429.62 169.67 2428.01 177.99 C 2432.37 186.38 2424.93 204.10 2437.00 206.00 C 2457.27 206.62 2475.68 214.24 2492.10 224.90 C 2558.47 275.15 2572.49 359.88 2572.00 439.00 C 2567.03 512.06 2545.90 600.01 2471.22 632.22 C 2463.33 637.85 2450.04 634.89 2444.00 642.00 C 2445.12 652.82 2448.12 663.13 2449.00 674.00 C 2455.71 693.17 2442.19 724.18 2419.70 709.30 C 2411.14 705.67 2404.91 694.64 2395.22 699.22 C 2386.17 702.94 2382.47 714.28 2382.97 723.97 C 2379.61 742.14 2378.34 768.66 2396.33 778.67 C 2413.61 779.26 2430.83 750.87 2447.02 771.98 C 2454.97 793.42 2445.45 816.25 2445.00 838.00 Z"/>
</g>
<g fill="#9E1427" fill-opacity="0.99" stroke="None"><path d="
M 2089.00 638.00 
C 2154.08 761.33 2284.46 840.36 2426.00 838.00
C 2430.45 828.59 2428.94 817.36 2432.67 807.67 C 2431.42 800.61 2439.95 776.81 2427.08 783.08 C 2413.88 795.91 2389.34 801.41 2377.11 784.89 C 2360.68 761.83 2359.96 721.42 2374.75 695.75 C 2384.91 676.63 2411.31 679.02 2423.92 693.08 C 2437.70 702.59 2433.38 680.86 2432.99 673.01 C 2430.76 662.75 2428.76 652.40 2427.00 642.00
C 2365.50 642.68 2314.88 596.05 2295.75 541.25 C 2270.39 480.49 2269.97 407.70 2283.23 342.23 C 2296.61 288.12 2326.45 230.23 2384.00 211.00
C 2390.94 202.94 2413.58 210.86 2412.00 198.00 C 2410.45 176.42 2396.94 144.40 2419.93 129.93 C 2431.50 126.09 2441.12 134.99 2449.92 141.08 C 2460.51 150.24 2471.60 138.55 2473.00 128.00 C 2475.40 115.63 2476.49 101.13 2473.33 88.67 C 2472.13 78.84 2465.05 63.12 2452.70 69.70 C 2443.31 74.94 2434.94 85.94 2422.67 81.33 C 2395.23 72.84 2410.37 39.04 2412.00 19.00 C 2414.99 0.45 2391.33 13.29 2381.07 11.07 C 2314.91 19.89 2251.81 44.71 2198.08 85.08 C 2028.38 209.97 1989.29 460.35 2089.00 638.00 Z"/>
</g>
<g fill="#9E1427" fill-opacity="0.00" stroke="None"><path d="
M 362.00 71.00 
C 354.49 71.64 345.76 69.70 339.00 72.00
C 346.51 71.36 355.24 73.30 362.00 71.00 Z"/>
</g>
<g fill="#040C0D" fill-opacity="1.00" stroke="None"><path d="
M 454.00 87.00 
C 447.37 90.40 442.22 82.93 436.00 84.00 C 408.32 78.23 377.75 73.44 347.00 75.00 C 323.09 73.43 303.77 77.02 283.22 78.22 C 242.18 87.17 202.69 101.19 167.08 124.08 C 102.95 161.02 57.50 228.53 34.78 299.78 C 7.95 393.12 10.71 508.16 54.25 591.75 C 93.17 675.45 173.53 743.09 259.90 760.10 C 305.89 776.90 361.68 774.76 411.99 770.99 C 416.16 769.34 428.85 769.53 426.00 767.00
C 446.34 766.31 467.04 759.18 485.98 750.98 C 522.28 736.78 552.67 717.28 580.75 689.75 C 590.96 675.85 608.14 663.77 614.00 648.00
C 585.60 620.14 556.30 590.63 525.70 562.31 C 515.53 560.22 510.52 575.60 503.75 581.75 C 488.97 596.90 474.16 608.69 460.03 619.03 C 442.08 626.77 422.61 638.21 405.75 639.41 C 381.80 646.07 356.84 645.16 333.67 643.33 C 321.05 644.03 309.06 639.27 299.01 635.99 C 289.18 632.69 276.11 630.60 270.00 622.00
C 262.01 623.47 255.29 614.61 248.70 610.30 C 213.65 584.42 190.17 547.09 177.97 510.04 C 174.03 505.32 175.10 491.46 170.00 487.00
C 168.91 484.61 172.80 475.68 169.00 480.00
C 168.90 476.17 169.85 467.87 167.00 470.00
C 167.65 465.86 167.83 455.27 165.00 458.00
C 167.31 437.18 160.06 416.92 166.00 397.00 C 167.97 317.50 217.44 235.21 296.32 209.32 C 355.46 192.14 426.53 202.82 471.75 241.24 C 491.44 253.17 505.60 274.89 522.97 289.97 C 550.75 262.54 581.09 232.74 607.25 204.25 C 616.34 198.74 606.66 190.76 602.30 186.70 C 569.54 144.97 519.35 114.13 473.69 95.31 C 467.11 91.15 456.66 92.75 454.00 87.00 Z"/>
</g>
<g fill="#040C0D" fill-opacity="1.00" stroke="None"><path d="
M 681.00 762.00 
C 727.84 762.67 775.99 760.67 822.00 763.00
C 824.33 535.99 822.33 306.83 823.00 79.00
C 776.20 79.01 727.52 78.99 680.00 79.00
C 680.67 306.51 678.67 535.24 681.00 762.00 Z"/>
</g>
<g fill="#9E1427" fill-opacity="0.02" stroke="None"><path d="
M 825.00 86.00 
C 823.33 116.19 823.33 149.73 825.00 180.00
C 825.00 148.67 825.00 117.33 825.00 86.00 Z"/>
</g>
<g fill="#9E1427" fill-opacity="0.00" stroke="None"><path d="
M 678.00 92.00 
C 676.33 314.20 676.34 539.73 678.00 762.00
C 678.00 538.67 678.00 315.33 678.00 92.00 Z"/>
</g>
<g fill="#9E1427" fill-opacity="0.02" stroke="None"><path d="
M 825.00 182.00 
C 823.32 189.85 823.35 201.08 825.00 209.00
C 825.00 200.00 825.00 191.00 825.00 182.00 Z"/>
</g>
<g fill="#9E1427" fill-opacity="0.00" stroke="None"><path d="
M 349.00 204.00 
C 344.82 204.58 339.42 202.79 336.00 205.00
C 340.18 204.42 345.58 206.21 349.00 204.00 Z"/>
</g>
<g fill="#9E1427" fill-opacity="0.02" stroke="None"><path d="
M 825.00 232.00 
C 823.30 236.19 823.39 243.74 825.00 248.00
C 825.00 242.67 825.00 237.33 825.00 232.00 Z"/>
</g>
<g fill="#9E1427" fill-opacity="0.02" stroke="None"><path d="
M 825.00 250.00 
C 823.30 254.52 823.38 262.41 825.00 267.00
C 825.00 261.33 825.00 255.67 825.00 250.00 Z"/>
</g>
<g fill="#040C0D" fill-opacity="1.00" stroke="None"><path d="
M 1895.00 609.00 
C 1883.39 607.95 1874.57 598.23 1862.77 593.23 C 1854.23 588.85 1837.09 572.71 1832.92 590.92 C 1822.50 610.89 1803.55 630.18 1782.07 642.07 C 1755.00 656.47 1711.19 662.77 1679.70 648.35 C 1657.36 645.64 1641.49 623.87 1622.75 608.25 C 1594.36 568.33 1589.78 511.39 1601.07 466.07 C 1612.32 416.39 1658.80 374.10 1708.00 372.00 C 1763.55 365.68 1813.47 392.14 1837.75 442.25 C 1842.84 447.91 1848.28 438.96 1853.75 437.75 C 1868.03 427.38 1885.47 418.98 1901.25 409.25 C 1916.42 398.33 1936.49 393.06 1948.92 379.08 C 1921.75 329.64 1878.82 288.41 1827.07 273.93 C 1801.23 264.16 1773.54 258.38 1748.22 257.22 C 1735.65 257.03 1718.93 257.20 1703.74 256.60 C 1701.46 257.85 1687.48 256.27 1693.00 259.00
C 1689.42 260.64 1676.45 255.63 1680.00 260.00
C 1672.69 258.58 1665.89 260.91 1659.22 261.22 C 1646.89 266.62 1635.60 264.64 1624.74 269.40 C 1612.45 272.81 1601.31 280.38 1589.08 284.08 C 1548.33 302.47 1508.77 339.09 1485.92 380.92 C 1462.97 413.97 1460.17 458.30 1452.00 497.00 C 1451.25 512.73 1453.01 527.30 1453.10 541.90 C 1459.14 544.34 1452.42 560.06 1457.00 557.00
C 1457.06 577.26 1466.72 596.61 1473.23 619.77 C 1483.37 639.52 1490.62 655.71 1504.23 672.77 C 1544.82 726.01 1603.55 757.17 1664.93 768.07 C 1690.73 771.58 1718.31 770.77 1746.00 771.00 C 1830.48 770.93 1911.03 721.13 1950.00 643.00
C 1932.79 628.98 1911.28 624.40 1895.00 609.00 Z"/>
</g>
<g fill="#040C0D" fill-opacity="1.00" stroke="None"><path d="
M 1248.00 750.00 
C 1250.19 753.09 1248.43 758.16 1249.00 762.00
C 1293.00 762.00 1337.00 762.00 1381.00 762.00
C 1381.59 759.16 1379.78 755.02 1382.00 753.00
C 1382.00 667.00 1382.00 581.00 1382.00 495.00 C 1383.63 467.91 1379.31 444.05 1379.00 420.00
C 1373.00 412.54 1373.84 398.38 1369.33 388.67 C 1361.82 340.64 1320.54 301.64 1280.03 281.98 C 1255.51 270.51 1224.92 264.07 1194.67 260.33 C 1183.18 257.93 1176.78 257.72 1163.67 257.33 C 1113.05 256.29 1070.39 258.79 1024.68 271.68 C 1004.81 273.96 987.24 286.25 967.08 289.08 C 951.15 300.13 932.35 303.27 919.00 317.00
C 926.23 333.52 931.97 348.97 942.69 362.31 C 947.30 380.41 960.35 394.75 966.00 412.00
C 971.98 415.25 975.17 406.10 980.10 406.10 C 1028.52 380.37 1080.53 364.96 1141.00 370.00 C 1188.86 365.44 1240.63 401.19 1238.00 451.00 C 1239.99 459.63 1238.30 465.64 1228.00 463.00 C 1181.61 464.18 1132.76 460.56 1088.03 464.98 C 1043.87 468.64 995.53 477.95 958.23 503.23 C 909.28 536.21 890.93 586.98 900.01 643.99 C 902.66 647.56 901.33 660.17 904.00 657.00
C 905.52 662.79 904.08 669.35 908.69 673.31 C 922.39 721.53 972.38 751.28 1016.93 764.07 C 1020.02 767.71 1032.40 764.52 1029.00 768.00
C 1048.33 769.31 1073.42 773.49 1097.00 772.00 C 1120.64 770.81 1136.92 769.77 1155.33 764.33 C 1191.83 754.41 1219.36 733.77 1248.00 706.00
C 1246.73 720.82 1251.05 735.57 1248.00 750.00
M 1238.00 553.00 
C 1238.64 583.22 1241.87 618.00 1215.77 637.77 C 1177.60 679.03 1106.30 684.14 1059.77 656.23 C 1037.26 639.58 1031.72 602.74 1049.25 580.25 C 1069.16 556.39 1101.10 554.58 1130.00 553.00 C 1166.00 553.00 1202.00 553.00 1238.00 553.00 Z"/>
</g>
<g fill="#9E1427" fill-opacity="0.02" stroke="None"><path d="
M 825.00 269.00 
C 823.33 325.20 823.33 384.73 825.00 441.00
C 825.00 383.67 825.00 326.33 825.00 269.00 Z"/>
</g>
<g fill="#9E1427" fill-opacity="0.01" stroke="None"><path d="
M 1147.00 371.00 
C 1132.30 371.51 1117.87 369.32 1104.00 372.00
C 1118.18 371.34 1133.57 373.33 1147.00 371.00 Z"/>
</g>
<g fill="#9E1427" fill-opacity="0.01" stroke="None"><path d="
M 1385.00 482.00 
C 1383.30 485.86 1383.40 493.07 1385.00 497.00
C 1385.00 492.00 1385.00 487.00 1385.00 482.00 Z"/>
</g>
<g fill="#9E1427" fill-opacity="0.02" stroke="None"><path d="
M 825.00 509.00 
C 823.30 512.86 823.40 520.07 825.00 524.00
C 825.00 519.00 825.00 514.00 825.00 509.00 Z"/>
</g>
<g fill="#9E1427" fill-opacity="0.02" stroke="None"><path d="
M 825.00 539.00 
C 823.33 550.19 823.34 564.74 825.00 576.00
C 825.00 563.67 825.00 551.33 825.00 539.00 Z"/>
</g>
<g fill="#9E1427" fill-opacity="0.20" stroke="None"><path d="
M 2916.00 546.00 
C 2922.92 547.64 2933.15 547.68 2940.00 546.00
C 2932.09 544.73 2923.89 544.72 2916.00 546.00 Z"/>
</g>
<g fill="#9E1427" fill-opacity="0.93" stroke="None"><path d="
M 2940.00 546.00 
C 2933.15 547.68 2922.92 547.64 2916.00 546.00
C 2873.18 546.37 2833.18 582.82 2833.76 625.75 C 2828.81 639.10 2852.39 632.17 2860.00 636.00 C 2870.02 634.73 2886.80 644.74 2892.00 634.00 C 2888.64 611.19 2909.23 590.28 2931.31 593.69 C 2968.56 597.23 2967.11 649.01 2944.75 668.75 C 2905.81 711.50 2853.06 744.46 2833.97 799.97 C 2831.54 808.54 2823.75 823.32 2831.00 831.00 C 2885.00 831.00 2939.00 831.00 2993.00 831.00 C 3004.20 829.85 3025.58 836.84 3020.00 818.00 C 3020.00 804.67 3020.01 791.33 3020.00 778.00
C 2984.67 778.00 2949.33 778.00 2914.00 778.00
C 2933.27 751.32 2961.36 732.07 2983.25 707.25 C 3009.31 681.68 3026.44 644.80 3017.92 607.08 C 3010.26 572.25 2976.00 545.44 2940.00 546.00 Z"/>
</g>
<g fill="#040C0D" fill-opacity="0.00" stroke="None"><path d="
M 1238.00 553.00 
C 1202.00 553.00 1166.00 553.00 1130.00 553.00 C 1101.10 554.58 1069.16 556.39 1049.25 580.25 C 1031.72 602.74 1037.26 639.58 1059.77 656.23 C 1106.30 684.14 1177.60 679.03 1215.77 637.77 C 1241.87 618.00 1238.64 583.22 1238.00 553.00 Z"/>
</g>
<g fill="#9E1427" fill-opacity="0.02" stroke="None"><path d="
M 825.00 586.00 
C 823.33 639.20 823.34 695.73 825.00 749.00
C 825.00 694.67 825.00 640.33 825.00 586.00 Z"/>
</g>
<g fill="#9E1427" fill-opacity="0.01" stroke="None"><path d="
M 1743.00 652.00 
C 1730.15 653.28 1717.29 650.64 1705.00 653.00
C 1717.82 653.17 1730.93 655.00 1743.00 652.00 Z"/>
</g>
<g fill="#040C0D" fill-opacity="0.86" stroke="None"><path d="
M 1382.00 753.00 
C 1379.78 755.02 1381.59 759.16 1381.00 762.00
C 1337.00 762.00 1293.00 762.00 1249.00 762.00
C 1248.43 758.16 1250.19 753.09 1248.00 750.00
C 1242.67 769.55 1264.07 761.00 1274.92 763.93 C 1298.90 762.88 1328.15 765.47 1353.75 763.20 C 1362.50 763.21 1385.75 769.07 1382.00 753.00 Z"/>
</g>
<g fill="#040C0D" fill-opacity="0.83" stroke="None"><path d="
M 822.00 763.00 
C 775.99 760.67 727.84 762.67 681.00 762.00
C 690.22 766.66 706.42 762.80 716.26 763.40 C 751.45 763.43 786.87 764.63 822.00 763.00 Z"/>
</g>
</svg>