<svg xmlns="http://www.w3.org/2000/svg" xmlns:v="https://svgstorm.com"
viewBox = "0 0 2869 892"
width="2869"
height="892">
<g fill="None" fill-opacity="0.0" stroke="#040C0D" stroke-opacity="0.00" stroke-width="0.3"><path d="
M 0.00 892.00 
L 2869.00 892.00
L 2869.00 0.00
L 0.00 0.00
L 0.00 892.00
M 2266.00 749.00 
C 2266.00 750.00 2266.00 751.00 2266.00 752.00
C 2248.76 752.01 2230.54 752.77 2215.00 748.00
C 2041.50 732.12 1899.98 567.95 1899.00 393.00 C 1887.86 192.26 2053.80 4.45 2253.70 4.31 C 2257.59 25.23 2239.23 50.04 2255.75 67.25 C 2274.18 83.90 2290.55 42.54 2306.75 63.25 C 2315.10 81.62 2316.54 107.22 2305.75 124.75 C 2291.28 144.93 2272.77 102.76 2255.75 121.75 C 2240.44 139.32 2255.59 164.11 2254.00 185.00
C 2159.11 195.22 2121.16 300.11 2125.00 386.00 C 2125.40 461.58 2157.57 550.01 2236.00 569.00 C 2244.85 573.85 2259.55 568.63 2265.97 575.03 C 2267.73 585.43 2269.54 595.83 2271.93 606.07 C 2275.77 617.53 2267.44 628.03 2258.25 616.75 C 2243.05 601.90 2217.45 612.85 2213.01 631.01 C 2204.71 656.29 2202.38 697.42 2230.10 711.90 C 2240.39 714.64 2251.59 713.03 2260.08 707.08 C 2269.89 694.45 2275.67 707.02 2272.00 718.00 C 2269.92 728.30 2268.99 738.91 2266.00 749.00
M 2272.00 185.00 
C 2268.57 175.54 2268.54 164.46 2267.02 154.97 C 2264.79 147.25 2262.29 124.40 2274.75 137.25 C 2289.91 150.35 2318.05 146.42 2322.99 124.99 C 2332.64 98.12 2332.21 55.07 2302.71 42.29 C 2292.01 40.49 2282.55 45.48 2275.25 52.25 C 2261.94 64.09 2264.87 41.88 2266.98 33.98 C 2269.77 24.04 2266.81 10.81 2274.23 3.23 C 2431.22 4.02 2571.55 123.36 2612.31 269.69 C 2666.89 445.87 2578.48 648.27 2413.92 720.92 C 2376.17 738.51 2335.51 748.69 2293.00 752.00 C 2275.30 756.27 2286.32 737.91 2285.33 728.33 C 2287.38 718.74 2288.26 705.55 2285.69 695.31 C 2283.39 685.58 2269.85 681.88 2261.78 687.78 C 2253.06 690.97 2246.18 703.20 2236.11 697.89 C 2217.87 686.23 2222.08 657.69 2225.93 639.93 C 2227.13 631.04 2237.54 619.87 2246.75 627.25 C 2254.67 632.69 2262.62 639.98 2273.67 637.67 C 2295.03 628.27 2285.36 598.61 2282.23 580.77 C 2277.49 565.14 2298.14 571.97 2304.29 565.29 C 2372.17 540.19 2396.83 464.20 2400.00 398.00 C 2403.22 316.53 2382.51 223.99 2303.78 191.22 C 2293.41 187.86 2282.81 186.75 2272.00 185.00
M 342.00 42.00 
C 329.91 44.32 315.85 42.34 303.00 43.00
C 315.09 40.68 329.15 42.66 342.00 42.00
M 488.00 246.00 
C 469.15 230.87 453.75 207.47 432.75 195.25 C 365.93 147.94 264.37 150.98 206.25 214.25 C 146.39 277.04 138.49 377.73 170.77 452.23 C 190.95 498.18 232.52 538.01 279.69 551.31 C 307.46 561.64 339.82 559.82 370.00 558.00
C 366.59 554.54 379.16 557.85 382.22 554.22 C 425.25 543.76 460.52 513.85 487.00 480.00
C 516.12 506.63 544.03 535.41 573.00 563.00
C 533.16 624.28 465.66 664.57 395.32 675.66 C 372.09 679.45 339.65 682.62 312.00 680.00 C 217.38 676.71 124.39 631.42 69.75 547.25 C 55.74 528.10 44.48 505.51 35.68 483.32 C 24.93 459.14 23.26 430.51 14.00 407.00
C 19.80 415.88 14.15 396.80 16.00 392.00 C 10.44 336.00 18.00 278.95 38.32 228.32 C 42.48 224.23 40.58 210.51 44.00 216.00
C 92.81 105.57 212.62 35.23 337.00 45.00 C 419.85 45.38 495.40 80.01 553.25 138.75 C 558.15 147.64 578.72 157.89 565.25 167.25 C 540.12 192.78 511.48 219.62 488.00 246.00
M 766.00 45.00 
C 722.23 47.33 676.52 45.33 632.00 46.00
C 675.76 43.67 721.48 45.67 766.00 45.00
M 765.00 47.00 
C 767.33 254.50 765.33 463.08 766.00 671.00
C 725.00 671.00 684.00 671.00 643.00 671.00 C 625.36 674.35 635.78 650.25 633.00 640.00 C 633.44 468.24 632.33 292.72 633.00 128.00 C 632.88 101.75 633.09 73.92 633.00 47.00
C 676.87 46.98 721.82 47.03 765.00 47.00
M 1289.00 386.00 
C 1293.18 385.35 1290.01 396.89 1291.00 401.00
C 1288.97 399.23 1290.47 395.52 1290.00 393.00
C 1287.67 483.43 1289.67 575.82 1289.00 667.00 C 1285.29 675.37 1270.26 669.01 1262.00 671.00 C 1231.67 671.00 1201.33 671.00 1171.00 671.00 C 1157.74 673.50 1164.72 655.73 1163.00 648.00 C 1163.00 637.67 1163.00 627.33 1163.00 617.00
C 1136.27 645.16 1103.41 669.07 1064.98 675.98 C 985.28 688.32 891.07 676.23 849.68 597.32 C 823.64 544.44 835.20 468.42 886.25 433.25 C 960.37 377.82 1062.45 394.91 1154.67 391.67 C 1160.29 351.25 1129.43 312.99 1089.33 307.67 C 1022.92 295.39 957.34 313.83 901.00 346.00
C 886.39 314.50 869.89 285.96 854.08 255.92 C 916.12 213.34 991.08 198.92 1066.00 198.00 C 1138.89 199.54 1215.70 213.85 1259.25 278.75 C 1279.82 311.84 1286.30 350.81 1288.00 390.00
C 1289.60 389.47 1288.73 387.25 1289.00 386.00
M 1715.00 375.00 
C 1692.36 322.15 1634.44 296.54 1576.93 309.93 C 1520.82 321.18 1485.75 380.11 1488.00 436.00 C 1484.44 492.30 1516.67 549.68 1573.03 565.98 C 1629.94 584.61 1694.00 553.57 1716.00 499.00
C 1751.02 519.08 1784.09 538.67 1819.00 557.00
C 1785.19 634.49 1701.31 680.91 1618.00 680.00 C 1544.84 682.09 1474.60 661.97 1424.25 610.75 C 1341.32 532.32 1332.59 393.31 1393.75 299.75 C 1422.95 254.75 1471.38 222.78 1521.22 209.22 C 1549.71 202.14 1578.54 197.97 1612.00 198.00 C 1695.00 197.56 1782.83 236.65 1817.98 316.02 C 1782.89 335.72 1749.38 355.91 1715.00 375.00
M 13.00 350.00 
C 12.48 357.51 11.59 365.20 13.00 373.00
C 9.69 368.52 9.70 355.32 13.00 350.00
M 1491.00 422.00 
C 1491.00 433.00 1491.00 444.00 1491.00 455.00
C 1488.78 444.65 1489.24 432.70 1491.00 422.00
M 1291.00 448.00 
C 1291.00 455.33 1291.00 462.67 1291.00 470.00
C 1289.36 463.74 1289.31 454.19 1291.00 448.00
M 2752.00 485.00 
C 2805.16 486.09 2836.48 551.21 2812.08 597.08 C 2790.86 637.95 2752.63 660.88 2722.00 696.00
C 2745.33 696.00 2768.67 696.00 2792.00 696.00 C 2800.63 698.50 2819.85 689.79 2820.00 703.00 C 2820.00 714.67 2820.00 726.33 2820.00 738.00 C 2823.17 753.35 2802.80 744.83 2794.00 747.00 C 2747.34 747.00 2700.67 747.00 2654.00 747.00 C 2638.93 751.38 2639.40 738.99 2642.78 728.78 C 2657.64 669.60 2715.13 636.74 2752.75 593.75 C 2771.60 574.04 2767.71 529.68 2735.99 528.01 C 2716.31 526.14 2699.88 543.04 2700.22 562.22 C 2702.36 577.32 2685.19 567.09 2676.93 568.07 C 2666.28 568.55 2657.17 564.83 2646.00 566.00
C 2642.11 523.31 2677.47 485.23 2720.00 485.00
C 2728.93 481.72 2743.14 481.70 2752.00 485.00
M 1291.00 505.00 
C 1291.00 512.00 1291.00 519.00 1291.00 526.00
C 1289.37 520.08 1289.31 510.85 1291.00 505.00
M 1291.00 531.00 
C 1291.00 551.00 1291.00 571.00 1291.00 591.00
C 1289.34 572.07 1289.33 549.86 1291.00 531.00
M 768.00 650.00 
C 768.00 657.33 768.00 664.67 768.00 672.00
C 766.36 665.74 766.31 656.19 768.00 650.00
M 1024.00 682.00 
C 1019.91 684.24 1013.84 682.40 1009.00 683.00
C 1013.09 680.76 1019.16 682.60 1024.00 682.00
M 1624.00 682.00 
C 1613.58 684.32 1601.18 682.34 1590.00 683.00
C 1600.43 680.68 1612.82 682.66 1624.00 682.00
M 2161.00 747.00 
C 2164.61 749.60 2167.31 752.91 2166.00 758.00
C 2169.60 753.59 2164.71 749.43 2163.00 746.00
C 2170.76 747.25 2170.78 762.95 2164.00 763.00
C 2162.29 763.75 2158.76 763.27 2159.00 766.00
C 2156.23 767.18 2156.44 763.62 2154.00 764.00
C 2150.17 768.46 2145.31 756.45 2147.80 752.75 C 2149.51 747.83 2159.09 742.43 2161.00 747.00
M 954.00 747.00 
C 963.45 750.31 958.49 767.80 948.93 764.07 C 938.12 761.87 943.82 745.07 954.00 747.00
M 1341.00 747.00 
C 1350.18 750.38 1347.73 765.64 1337.32 764.66 C 1326.34 762.95 1330.59 744.96 1341.00 747.00
M 587.00 749.00 
C 585.46 764.76 581.22 774.07 580.00 790.00
C 594.99 777.94 623.39 775.17 631.97 796.03 C 637.07 817.91 626.19 838.58 624.00 860.00
C 620.00 860.00 616.00 860.00 612.00 860.00
C 611.74 846.22 617.37 836.00 618.78 824.78 C 620.66 814.36 625.48 798.42 612.30 793.70 C 602.41 789.87 588.60 791.52 581.25 801.25 C 573.13 810.32 574.47 824.54 570.03 832.04 C 569.19 842.76 571.05 865.38 553.00 860.00
C 559.37 821.93 569.50 786.26 575.00 748.00
C 579.37 748.03 582.42 748.99 587.00 749.00
M 1088.00 787.00 
C 1091.00 781.76 1092.15 773.66 1097.00 769.00
C 1091.86 762.25 1090.50 747.72 1103.00 749.00 C 1114.06 749.22 1110.54 765.64 1104.75 770.75 C 1101.77 777.68 1098.50 791.59 1088.00 787.00
M 2096.00 749.00 
C 2096.92 768.24 2087.62 788.18 2086.98 807.02 C 2081.77 824.38 2079.65 842.64 2075.00 860.00
C 2071.00 860.00 2067.00 860.00 2063.00 860.00
C 2069.50 822.30 2079.30 787.46 2084.00 750.00
C 2087.54 747.98 2092.05 749.45 2096.00 749.00
M 90.00 806.00 
C 109.60 815.78 105.72 846.81 86.92 854.92 C 63.88 864.60 36.21 858.07 11.00 860.00
C 16.79 824.72 24.61 789.90 32.00 755.00
C 54.37 757.26 77.11 751.90 97.23 759.77 C 114.53 771.16 106.47 799.13 90.00 806.00
M 501.00 763.00 
C 501.33 769.04 497.09 775.76 499.00 782.00
C 505.68 779.66 512.12 782.31 519.00 781.00
C 519.40 784.37 519.40 786.58 519.00 790.00
C 513.52 793.48 498.16 786.69 494.68 794.68 C 492.47 810.93 486.74 826.95 486.00 844.00 C 490.61 853.74 500.23 850.04 508.00 848.00
C 508.89 850.93 509.11 854.04 510.00 857.00
C 496.46 865.59 469.35 861.23 474.00 840.00 C 474.01 822.49 482.16 807.17 483.00 791.00
C 479.06 790.59 473.88 790.75 470.00 791.00
C 469.56 782.81 476.35 777.96 484.00 782.00
C 489.43 774.61 485.50 758.89 501.00 763.00
M 1026.00 763.00 
C 1025.72 769.50 1022.53 775.28 1023.00 782.00
C 1029.37 781.22 1036.00 781.12 1042.00 781.00
C 1044.52 784.55 1043.36 788.02 1043.00 792.00
C 1034.43 793.95 1018.44 784.98 1019.07 799.07 C 1017.75 816.44 1003.54 836.66 1016.00 851.00
C 1023.23 849.16 1026.06 851.52 1032.00 847.00
C 1033.47 849.86 1033.29 853.20 1035.00 856.00
C 1023.97 863.85 1000.33 863.31 998.00 847.00 C 997.97 831.38 1003.30 817.15 1005.33 802.33 C 1011.43 792.83 1003.91 788.55 995.00 791.00
C 993.71 782.06 1001.54 778.73 1009.00 782.00
C 1010.44 777.47 1012.06 772.95 1012.00 768.00
C 1015.10 771.99 1013.05 766.10 1013.00 764.00
C 1016.87 761.94 1021.72 763.48 1026.00 763.00
M 1638.00 763.00 
C 1635.57 768.23 1636.21 774.78 1635.00 781.00
C 1643.44 781.36 1661.37 777.40 1654.07 791.07 C 1646.29 794.82 1629.17 786.20 1630.22 800.22 C 1628.85 816.79 1617.36 836.14 1628.00 851.00
C 1634.20 851.55 1646.63 843.62 1646.93 855.07 C 1637.66 867.02 1605.83 861.43 1610.99 841.99 C 1611.72 824.99 1616.86 809.58 1619.00 792.00
C 1615.00 792.00 1611.00 792.00 1607.00 792.00
C 1605.94 788.22 1611.14 785.59 1608.00 782.00
C 1612.32 778.70 1619.84 785.51 1622.92 779.92 C 1622.98 774.00 1625.28 768.75 1626.00 763.00
C 1630.00 763.00 1634.00 763.00 1638.00 763.00
M 2742.00 786.00 
C 2735.49 810.42 2732.41 834.26 2726.00 860.00
C 2722.33 860.00 2718.67 860.00 2715.00 860.00
C 2716.01 857.21 2716.18 854.11 2716.00 851.00
C 2703.73 860.73 2684.90 864.96 2670.76 856.25 C 2644.56 836.31 2657.19 793.68 2686.03 783.03 C 2701.47 775.76 2718.50 782.63 2728.00 795.00
C 2728.27 790.03 2730.18 785.91 2729.00 781.00
C 2732.67 782.42 2736.62 781.02 2741.00 781.00
C 2741.20 774.07 2747.02 787.22 2742.00 786.00
M 242.00 825.00 
C 239.29 835.61 247.12 847.13 258.02 848.98 C 270.36 853.27 281.59 846.64 292.00 842.00
C 291.86 845.53 297.17 846.47 297.00 850.00
C 277.79 865.66 241.34 866.07 231.23 839.77 C 215.19 800.62 272.22 757.29 299.75 794.25 C 305.37 803.77 311.90 830.57 292.00 825.00 C 275.33 825.00 258.67 825.00 242.00 825.00
M 430.00 782.00 
C 422.83 807.92 419.17 834.16 414.00 860.00
C 410.00 860.00 406.00 860.00 402.00 860.00
C 401.47 856.68 403.64 854.12 404.00 851.00
C 387.04 865.89 352.07 865.34 346.02 838.98 C 336.57 808.63 366.00 771.39 398.68 782.32 C 406.66 782.33 409.35 794.79 414.75 793.74 C 413.82 784.91 419.65 777.02 430.00 782.00
M 740.00 842.00 
C 748.33 851.07 734.90 858.09 726.98 858.98 C 709.48 865.03 682.71 857.89 680.22 837.78 C 671.55 808.61 695.68 775.16 727.07 780.93 C 747.54 782.44 759.10 806.66 751.69 824.69 C 739.52 825.40 727.22 824.80 715.00 825.00 C 706.44 826.54 684.70 819.45 691.33 834.67 C 698.17 856.28 725.18 852.27 740.00 842.00
M 1200.00 796.00 
C 1186.79 791.59 1158.25 784.25 1157.00 806.00 C 1166.95 820.39 1190.33 813.13 1199.00 830.00
C 1200.72 844.12 1192.85 857.66 1177.78 859.78 C 1162.80 862.55 1146.48 860.66 1134.00 852.00
C 1134.62 848.87 1138.67 847.50 1138.00 844.00
C 1149.12 845.01 1156.09 853.39 1168.00 850.00 C 1177.98 853.16 1192.95 840.72 1183.25 830.75 C 1174.05 825.75 1162.37 825.82 1152.78 820.22 C 1130.44 802.64 1158.68 774.35 1180.68 780.34 C 1189.90 781.21 1210.76 783.02 1200.00 796.00
M 1546.00 791.00 
C 1543.39 792.56 1537.54 792.72 1535.00 791.00
C 1524.98 791.73 1512.58 802.56 1523.25 811.75 C 1533.19 815.52 1543.29 817.11 1552.25 820.76 C 1577.53 835.16 1550.05 866.04 1528.00 861.00 C 1517.42 860.11 1502.96 859.75 1497.36 850.30 C 1503.07 836.70 1516.18 852.32 1526.67 850.33 C 1536.39 852.49 1551.45 847.67 1549.00 834.00 C 1544.02 824.71 1530.62 829.05 1521.92 823.08 C 1510.56 821.32 1503.96 808.23 1508.93 797.93 C 1518.66 776.87 1550.79 776.41 1567.00 788.00
C 1563.13 789.37 1563.81 797.90 1558.78 795.22 C 1554.70 793.20 1550.44 791.93 1546.00 791.00
M 1830.00 795.00 
C 1833.66 792.92 1833.82 786.04 1835.00 781.00
C 1838.33 781.00 1841.67 781.00 1845.00 781.00
C 1846.28 784.90 1843.36 786.94 1845.00 791.00
C 1841.50 787.87 1844.47 800.96 1841.67 804.67 C 1837.55 823.40 1834.33 841.68 1831.00 860.00
C 1827.00 860.00 1823.00 860.00 1819.00 860.00
C 1819.05 856.51 1820.96 853.52 1821.00 850.00
C 1806.76 864.83 1778.78 864.91 1766.25 847.75 C 1756.43 828.82 1761.70 804.52 1777.30 790.30 C 1791.41 777.07 1821.86 775.85 1830.00 795.00
M 2245.00 780.00 
C 2254.39 782.07 2264.79 784.03 2271.75 792.25 C 2273.20 804.52 2258.54 801.38 2253.75 793.25 C 2233.87 784.50 2211.02 802.37 2212.00 824.00 C 2206.78 847.22 2240.51 858.66 2253.30 844.30 C 2262.55 833.93 2271.02 850.01 2257.77 853.77 C 2241.96 866.42 2212.89 862.75 2202.70 844.30 C 2189.29 815.05 2212.97 779.91 2245.00 780.00
M 2447.00 794.00 
C 2451.58 791.52 2446.89 778.08 2455.22 781.78 C 2463.67 780.31 2462.83 790.48 2460.22 795.22 C 2458.21 799.27 2461.53 813.14 2458.00 803.00
C 2454.94 822.45 2450.42 840.18 2448.00 860.00
C 2444.00 860.00 2440.00 860.00 2436.00 860.00
C 2435.30 856.73 2437.43 854.23 2437.00 851.00
C 2421.67 863.19 2393.99 866.62 2382.25 846.75 C 2374.37 828.20 2378.16 805.44 2393.25 791.25 C 2407.67 777.39 2435.68 775.30 2447.00 794.00
M 171.00 781.00 
C 171.72 784.94 169.51 788.10 170.00 792.00
C 179.64 787.03 187.38 779.38 200.00 781.00
C 199.94 784.81 197.69 788.06 198.00 792.00
C 173.45 789.31 163.83 815.65 162.07 835.08 C 158.42 845.45 162.15 865.19 145.00 860.00
C 150.14 831.98 154.90 809.63 161.00 781.00
C 164.33 781.00 167.67 781.00 171.00 781.00
M 953.00 782.00 
C 947.90 801.73 944.68 820.34 941.67 840.67 C 938.78 850.14 939.71 864.73 925.00 860.00
C 929.26 837.34 932.92 816.21 938.31 793.31 C 938.68 784.45 942.83 777.27 953.00 782.00
M 1339.00 781.00 
C 1334.36 810.70 1327.36 841.55 1321.02 873.02 C 1315.44 889.52 1295.44 893.74 1281.00 887.00
C 1280.52 875.25 1289.91 878.17 1298.00 879.00 C 1315.72 875.31 1310.43 851.11 1315.98 837.98 C 1319.79 822.26 1320.27 809.33 1325.78 793.78 C 1324.83 784.00 1329.30 779.47 1339.00 781.00
M 1405.00 781.00 
C 1404.86 798.69 1394.90 818.60 1396.93 838.07 C 1403.30 858.41 1432.28 851.85 1439.75 834.75 C 1444.70 817.04 1448.97 799.82 1452.00 781.00
C 1455.98 781.42 1460.44 780.01 1464.00 782.00
C 1457.66 808.55 1453.99 832.39 1448.00 860.00
C 1444.33 860.00 1440.67 860.00 1437.00 860.00
C 1436.59 856.82 1438.69 854.28 1438.00 851.00
C 1422.45 864.58 1389.60 866.36 1384.22 841.78 C 1383.67 828.84 1385.35 817.61 1388.78 805.78 C 1394.27 796.12 1387.87 777.03 1405.00 781.00
M 2029.00 796.00 
C 2018.17 809.52 2010.45 784.74 1997.00 792.00 C 1972.41 790.66 1955.68 830.56 1977.25 846.75 C 1989.24 852.60 2006.19 851.16 2014.00 839.00
C 2017.57 839.94 2018.29 845.47 2023.00 844.00
C 2012.38 864.28 1979.65 866.99 1964.25 850.75 C 1950.56 835.17 1952.80 806.52 1970.25 793.25 C 1984.34 775.66 2018.56 775.86 2029.00 796.00
M 2144.00 860.00 
C 2139.67 860.00 2135.33 860.00 2131.00 860.00
C 2135.04 842.00 2139.20 821.74 2141.93 806.92 C 2145.76 798.47 2142.96 787.67 2149.23 781.23 C 2164.83 777.44 2156.30 793.33 2155.68 800.68 C 2152.78 820.68 2146.65 839.90 2144.00 860.00
M 2527.00 844.00 
C 2536.15 829.05 2544.31 811.96 2553.31 795.30 C 2555.78 787.75 2566.31 773.72 2572.59 784.75 C 2575.02 806.30 2579.56 824.06 2584.00 844.00
C 2591.22 833.73 2598.29 820.02 2603.99 807.99 C 2612.61 799.61 2613.26 776.77 2630.00 782.00
C 2617.21 807.32 2602.30 833.89 2589.00 860.00
C 2584.67 860.00 2580.33 860.00 2576.00 860.00
C 2571.89 839.71 2568.73 819.64 2564.00 800.00
C 2551.60 819.17 2541.16 839.17 2531.00 860.00
C 2526.67 860.00 2522.33 860.00 2518.00 860.00
C 2514.67 839.37 2509.54 822.00 2509.00 801.00
C 2505.60 805.49 2507.49 795.32 2507.00 793.00 C 2506.55 789.20 2505.13 785.63 2504.00 782.00
C 2521.91 775.51 2515.92 799.21 2519.80 807.25 C 2523.28 819.42 2522.66 834.02 2527.00 844.00
M 2861.00 781.00 
C 2849.28 804.04 2834.71 825.74 2821.25 848.25 C 2811.34 870.27 2789.17 903.79 2762.00 884.00
C 2764.99 870.02 2775.56 882.97 2784.07 879.07 C 2805.54 871.97 2800.32 848.02 2795.68 832.32 C 2790.48 815.27 2788.89 799.92 2783.00 783.00
C 2799.24 777.38 2797.64 798.93 2800.99 809.01 C 2805.96 820.56 2805.22 833.81 2811.00 845.00
C 2823.30 825.16 2837.12 802.47 2850.00 781.00
C 2853.67 781.00 2857.33 781.00 2861.00 781.00
M 1760.00 819.00 
C 1760.00 824.33 1760.00 829.67 1760.00 835.00
C 1758.39 830.74 1758.30 823.19 1760.00 819.00
M 294.00 826.00 
C 279.25 830.06 259.89 827.90 244.00 827.00
C 259.29 826.02 277.98 828.50 294.00 826.00
M 730.00 828.00 
C 718.50 827.33 705.68 829.33 695.00 827.00
C 700.26 826.10 707.01 827.61 713.00 827.00 C 718.52 828.94 726.96 823.30 730.00 828.00
M 785.00 882.00 
C 786.31 874.49 798.12 862.03 789.00 857.00
C 784.47 841.06 813.53 838.39 806.07 856.07 C 800.55 865.06 798.63 883.53 785.00 882.00
M 29.00 861.00 
C 23.57 861.34 8.62 865.71 8.00 858.00
C 11.54 864.18 22.35 859.58 29.00 861.00
M 381.00 862.00 
C 379.52 865.23 374.54 864.26 372.00 863.00
C 374.46 860.39 378.17 863.58 381.00 862.00
M 1416.00 862.00 
C 1414.69 865.03 1408.94 864.61 1407.00 863.00
C 1409.93 861.92 1412.79 862.98 1416.00 862.00
M 1799.00 862.00 
C 1796.87 865.14 1789.10 865.20 1787.00 862.00
C 1791.30 862.93 1794.66 862.76 1799.00 862.00
M 1997.00 862.00 
C 1994.84 865.39 1987.84 864.41 1985.00 863.00
C 1988.12 861.66 1992.72 862.85 1997.00 862.00
M 2414.00 862.00 
C 2412.41 865.17 2406.24 864.54 2404.00 863.00
C 2407.24 861.29 2410.46 863.61 2414.00 862.00 Z"/>
</g>
<g fill="None" fill-opacity="0.0" stroke="#9E1427" stroke-opacity="0.98" stroke-width="0.3"><path d="
M 2215.00 748.00 
C 2231.72 748.06 2250.03 753.61 2266.00 749.00
C 2268.99 738.91 2269.92 728.30 2272.00 718.00 C 2275.67 707.02 2269.89 694.45 2260.08 707.08 C 2251.59 713.03 2240.39 714.64 2230.10 711.90 C 2202.38 697.42 2204.71 656.29 2213.01 631.01 C 2217.45 612.85 2243.05 601.90 2258.25 616.75 C 2267.44 628.03 2275.77 617.53 2271.93 606.07 C 2269.54 595.83 2267.73 585.43 2265.97 575.03 C 2259.55 568.63 2244.85 573.85 2236.00 569.00 C 2157.57 550.01 2125.40 461.58 2125.00 386.00 C 2121.16 300.11 2159.11 195.22 2254.00 185.00
C 2255.59 164.11 2240.44 139.32 2255.75 121.75 C 2272.77 102.76 2291.28 144.93 2305.75 124.75 C 2316.54 107.22 2315.10 81.62 2306.75 63.25 C 2290.55 42.54 2274.18 83.90 2255.75 67.25 C 2239.23 50.04 2257.59 25.23 2253.70 4.31 C 2053.80 4.45 1887.86 192.26 1899.00 393.00 C 1899.98 567.95 2041.50 732.12 2215.00 748.00 Z"/>
</g>
<g fill="None" fill-opacity="0.0" stroke="#9E1427" stroke-opacity="0.98" stroke-width="0.3"><path d="
M 2272.00 185.00 
C 2282.81 186.75 2293.41 187.86 2303.78 191.22 C 2382.51 223.99 2403.22 316.53 2400.00 398.00 C 2396.83 464.20 2372.17 540.19 2304.29 565.29 C 2298.14 571.97 2277.49 565.14 2282.23 580.77 C 2285.36 598.61 2295.03 628.27 2273.67 637.67 C 2262.62 639.98 2254.67 632.69 2246.75 627.25 C 2237.54 619.87 2227.13 631.04 2225.93 639.93 C 2222.08 657.69 2217.87 686.23 2236.11 697.89 C 2246.18 703.20 2253.06 690.97 2261.78 687.78 C 2269.85 681.88 2283.39 685.58 2285.69 695.31 C 2288.26 705.55 2287.38 718.74 2285.33 728.33 C 2286.32 737.91 2275.30 756.27 2293.00 752.00 C 2335.51 748.69 2376.17 738.51 2413.92 720.92 C 2578.48 648.27 2666.89 445.87 2612.31 269.69 C 2571.55 123.36 2431.22 4.02 2274.23 3.23 C 2266.81 10.81 2269.77 24.04 2266.98 33.98 C 2264.87 41.88 2261.94 64.09 2275.25 52.25 C 2282.55 45.48 2292.01 40.49 2302.71 42.29 C 2332.21 55.07 2332.64 98.12 2322.99 124.99 C 2318.05 146.42 2289.91 150.35 2274.75 137.25 C 2262.29 124.40 2264.79 147.25 2267.02 154.97 C 2268.54 164.46 2268.57 175.54 2272.00 185.00 Z"/>
</g>
<g fill="None" fill-opacity="0.0" stroke="#9E1427" stroke-opacity="0.01" stroke-width="0.3"><path d="
M 342.00 42.00 
C 329.15 42.66 315.09 40.68 303.00 43.00
C 315.85 42.34 329.91 44.32 342.00 42.00 Z"/>
</g>
<g fill="None" fill-opacity="0.0" stroke="#040C0D" stroke-opacity="1.00" stroke-width="0.3"><path d="
M 488.00 246.00 
C 511.48 219.62 540.12 192.78 565.25 167.25 C 578.72 157.89 558.15 147.64 553.25 138.75 C 495.40 80.01 419.85 45.38 337.00 45.00 C 212.62 35.23 92.81 105.57 44.00 216.00
C 40.58 210.51 42.48 224.23 38.32 228.32 C 18.00 278.95 10.44 336.00 16.00 392.00 C 14.15 396.80 19.80 415.88 14.00 407.00
C 23.26 430.51 24.93 459.14 35.68 483.32 C 44.48 505.51 55.74 528.10 69.75 547.25 C 124.39 631.42 217.38 676.71 312.00 680.00 C 339.65 682.62 372.09 679.45 395.32 675.66 C 465.66 664.57 533.16 624.28 573.00 563.00
C 544.03 535.41 516.12 506.63 487.00 480.00
C 460.52 513.85 425.25 543.76 382.22 554.22 C 379.16 557.85 366.59 554.54 370.00 558.00
C 339.82 559.82 307.46 561.64 279.69 551.31 C 232.52 538.01 190.95 498.18 170.77 452.23 C 138.49 377.73 146.39 277.04 206.25 214.25 C 264.37 150.98 365.93 147.94 432.75 195.25 C 453.75 207.47 469.15 230.87 488.00 246.00 Z"/>
</g>
<g fill="None" fill-opacity="0.0" stroke="#9E1427" stroke-opacity="0.01" stroke-width="0.3"><path d="
M 766.00 45.00 
C 721.48 45.67 675.76 43.67 632.00 46.00
C 676.52 45.33 722.23 47.33 766.00 45.00 Z"/>
</g>
<g fill="None" fill-opacity="0.0" stroke="#040C0D" stroke-opacity="1.00" stroke-width="0.3"><path d="
M 765.00 47.00 
C 721.82 47.03 676.87 46.98 633.00 47.00
C 633.09 73.92 632.88 101.75 633.00 128.00 C 632.33 292.72 633.44 468.24 633.00 640.00 C 635.78 650.25 625.36 674.35 643.00 671.00 C 684.00 671.00 725.00 671.00 766.00 671.00
C 765.33 463.08 767.33 254.50 765.00 47.00 Z"/>
</g>
<g fill="None" fill-opacity="0.0" stroke="#040C0D" stroke-opacity="1.00" stroke-width="0.3"><path d="
M 1290.00 393.00 
C 1289.48 390.81 1291.14 387.38 1289.00 386.00
C 1288.73 387.25 1289.60 389.47 1288.00 390.00
C 1286.30 350.81 1279.82 311.84 1259.25 278.75 C 1215.70 213.85 1138.89 199.54 1066.00 198.00 C 991.08 198.92 916.12 213.34 854.08 255.92 C 869.89 285.96 886.39 314.50 901.00 346.00
C 957.34 313.83 1022.92 295.39 1089.33 307.67 C 1129.43 312.99 1160.29 351.25 1154.67 391.67 C 1062.45 394.91 960.37 377.82 886.25 433.25 C 835.20 468.42 823.64 544.44 849.68 597.32 C 891.07 676.23 985.28 688.32 1064.98 675.98 C 1103.41 669.07 1136.27 645.16 1163.00 617.00
C 1163.00 627.33 1163.00 637.67 1163.00 648.00 C 1164.72 655.73 1157.74 673.50 1171.00 671.00 C 1201.33 671.00 1231.67 671.00 1262.00 671.00 C 1270.26 669.01 1285.29 675.37 1289.00 667.00 C 1289.67 575.82 1287.67 483.43 1290.00 393.00
M 1066.00 585.00 
C 1057.47 584.53 1049.61 586.77 1041.00 586.00
C 1009.23 587.39 967.64 569.30 969.78 533.78 C 963.59 498.07 1003.45 478.06 1033.01 478.01 C 1071.62 473.64 1114.55 477.14 1154.00 476.00
C 1154.28 502.95 1157.26 533.92 1135.25 554.25 C 1117.15 571.33 1092.61 583.18 1066.00 585.00 Z"/>
</g>
<g fill="None" fill-opacity="0.0" stroke="#040C0D" stroke-opacity="1.00" stroke-width="0.3"><path d="
M 1715.00 375.00 
C 1749.38 355.91 1782.89 335.72 1817.98 316.02 C 1782.83 236.65 1695.00 197.56 1612.00 198.00 C 1578.54 197.97 1549.71 202.14 1521.22 209.22 C 1471.38 222.78 1422.95 254.75 1393.75 299.75 C 1332.59 393.31 1341.32 532.32 1424.25 610.75 C 1474.60 661.97 1544.84 682.09 1618.00 680.00 C 1701.31 680.91 1785.19 634.49 1819.00 557.00
C 1784.09 538.67 1751.02 519.08 1716.00 499.00
C 1694.00 553.57 1629.94 584.61 1573.03 565.98 C 1516.67 549.68 1484.44 492.30 1488.00 436.00 C 1485.75 380.11 1520.82 321.18 1576.93 309.93 C 1634.44 296.54 1692.36 322.15 1715.00 375.00 Z"/>
</g>
<g fill="None" fill-opacity="0.0" stroke="#9E1427" stroke-opacity="0.02" stroke-width="0.3"><path d="
M 13.00 350.00 
C 9.70 355.32 9.69 368.52 13.00 373.00
C 11.59 365.20 12.48 357.51 13.00 350.00 Z"/>
</g>
<g fill="None" fill-opacity="0.0" stroke="#9E1427" stroke-opacity="0.01" stroke-width="0.3"><path d="
M 1289.00 386.00 
C 1291.14 387.38 1289.48 390.81 1290.00 393.00
C 1290.47 395.52 1288.97 399.23 1291.00 401.00
C 1290.01 396.89 1293.18 385.35 1289.00 386.00 Z"/>
</g>
<g fill="None" fill-opacity="0.0" stroke="#9E1427" stroke-opacity="0.01" stroke-width="0.3"><path d="
M 1491.00 422.00 
C 1489.24 432.70 1488.78 444.65 1491.00 455.00
C 1491.00 444.00 1491.00 433.00 1491.00 422.00 Z"/>
</g>
<g fill="None" fill-opacity="0.0" stroke="#9E1427" stroke-opacity="0.02" stroke-width="0.3"><path d="
M 1291.00 448.00 
C 1289.31 454.19 1289.36 463.74 1291.00 470.00
C 1291.00 462.67 1291.00 455.33 1291.00 448.00 Z"/>
</g>
<g fill="None" fill-opacity="0.0" stroke="#040C0D" stroke-opacity="0.00" stroke-width="0.3"><path d="
M 1041.00 586.00 
C 1048.52 585.08 1058.56 582.72 1066.00 585.00
C 1092.61 583.18 1117.15 571.33 1135.25 554.25 C 1157.26 533.92 1154.28 502.95 1154.00 476.00
C 1114.55 477.14 1071.62 473.64 1033.01 478.01 C 1003.45 478.06 963.59 498.07 969.78 533.78 C 967.64 569.30 1009.23 587.39 1041.00 586.00 Z"/>
</g>
<g fill="None" fill-opacity="0.0" stroke="#9E1427" stroke-opacity="0.08" stroke-width="0.3"><path d="
M 2720.00 485.00 
C 2730.67 485.00 2741.33 485.00 2752.00 485.00
C 2743.14 481.70 2728.93 481.72 2720.00 485.00 Z"/>
</g>
<g fill="None" fill-opacity="0.0" stroke="#9E1427" stroke-opacity="0.93" stroke-width="0.3"><path d="
M 2752.00 485.00 
C 2741.33 485.00 2730.67 485.00 2720.00 485.00
C 2677.47 485.23 2642.11 523.31 2646.00 566.00
C 2657.17 564.83 2666.28 568.55 2676.93 568.07 C 2685.19 567.09 2702.36 577.32 2700.22 562.22 C 2699.88 543.04 2716.31 526.14 2735.99 528.01 C 2767.71 529.68 2771.60 574.04 2752.75 593.75 C 2715.13 636.74 2657.64 669.60 2642.78 728.78 C 2639.40 738.99 2638.93 751.38 2654.00 747.00 C 2700.67 747.00 2747.34 747.00 2794.00 747.00 C 2802.80 744.83 2823.17 753.35 2820.00 738.00 C 2820.00 726.33 2820.00 714.67 2820.00 703.00 C 2819.85 689.79 2800.63 698.50 2792.00 696.00 C 2768.67 696.00 2745.33 696.00 2722.00 696.00
C 2752.63 660.88 2790.86 637.95 2812.08 597.08 C 2836.48 551.21 2805.16 486.09 2752.00 485.00 Z"/>
</g>
<g fill="None" fill-opacity="0.0" stroke="#9E1427" stroke-opacity="0.02" stroke-width="0.3"><path d="
M 1291.00 505.00 
C 1289.31 510.85 1289.37 520.08 1291.00 526.00
C 1291.00 519.00 1291.00 512.00 1291.00 505.00 Z"/>
</g>
<g fill="None" fill-opacity="0.0" stroke="#9E1427" stroke-opacity="0.02" stroke-width="0.3"><path d="
M 1291.00 531.00 
C 1289.33 549.86 1289.34 572.07 1291.00 591.00
C 1291.00 571.00 1291.00 551.00 1291.00 531.00 Z"/>
</g>
<g fill="None" fill-opacity="0.0" stroke="#9E1427" stroke-opacity="0.00" stroke-width="0.3"><path d="
M 1041.00 586.00 
C 1049.61 586.77 1057.47 584.53 1066.00 585.00
C 1058.56 582.72 1048.52 585.08 1041.00 586.00 Z"/>
</g>
<g fill="None" fill-opacity="0.0" stroke="#9E1427" stroke-opacity="0.01" stroke-width="0.3"><path d="
M 768.00 650.00 
C 766.31 656.19 766.36 665.74 768.00 672.00
C 768.00 664.67 768.00 657.33 768.00 650.00 Z"/>
</g>
<g fill="None" fill-opacity="0.0" stroke="#9E1427" stroke-opacity="0.00" stroke-width="0.3"><path d="
M 1024.00 682.00 
C 1019.16 682.60 1013.09 680.76 1009.00 683.00
C 1013.84 682.40 1019.91 684.24 1024.00 682.00 Z"/>
</g>
<g fill="None" fill-opacity="0.0" stroke="#9E1427" stroke-opacity="0.01" stroke-width="0.3"><path d="
M 1624.00 682.00 
C 1612.82 682.66 1600.43 680.68 1590.00 683.00
C 1601.18 682.34 1613.58 684.32 1624.00 682.00 Z"/>
</g>
<g fill="None" fill-opacity="0.0" stroke="#9E1427" stroke-opacity="0.09" stroke-width="0.3"><path d="
M 2154.00 764.00 
C 2153.23 763.17 2151.52 763.57 2150.00 763.00
C 2146.04 755.69 2151.59 744.82 2161.00 747.00
C 2159.09 742.43 2149.51 747.83 2147.80 752.75 C 2145.31 756.45 2150.17 768.46 2154.00 764.00 Z"/>
</g>
<g fill="None" fill-opacity="0.0" stroke="#9E1427" stroke-opacity="0.08" stroke-width="0.3"><path d="
M 2166.00 758.00 
C 2166.61 760.44 2165.51 761.66 2164.00 763.00
C 2170.78 762.95 2170.76 747.25 2163.00 746.00
C 2164.71 749.43 2169.60 753.59 2166.00 758.00 Z"/>
</g>
<g fill="None" fill-opacity="0.0" stroke="#040C0D" stroke-opacity="0.98" stroke-width="0.3"><path d="
M 954.00 747.00 
C 943.82 745.07 938.12 761.87 948.93 764.07 C 958.49 767.80 963.45 750.31 954.00 747.00 Z"/>
</g>
<g fill="None" fill-opacity="0.0" stroke="#040C0D" stroke-opacity="0.98" stroke-width="0.3"><path d="
M 1341.00 747.00 
C 1330.59 744.96 1326.34 762.95 1337.32 764.66 C 1347.73 765.64 1350.18 750.38 1341.00 747.00 Z"/>
</g>
<g fill="None" fill-opacity="0.0" stroke="#040C0D" stroke-opacity="0.92" stroke-width="0.3"><path d="
M 2154.00 764.00 
C 2156.44 763.62 2156.23 767.18 2159.00 766.00
C 2158.76 763.27 2162.29 763.75 2164.00 763.00
C 2165.51 761.66 2166.61 760.44 2166.00 758.00
C 2167.31 752.91 2164.61 749.60 2161.00 747.00
C 2151.59 744.82 2146.04 755.69 2150.00 763.00
C 2151.52 763.57 2153.23 763.17 2154.00 764.00 Z"/>
</g>
<g fill="None" fill-opacity="0.0" stroke="#040C0D" stroke-opacity="0.98" stroke-width="0.3"><path d="
M 587.00 749.00 
C 582.42 748.99 579.37 748.03 575.00 748.00
C 569.50 786.26 559.37 821.93 553.00 860.00
C 571.05 865.38 569.19 842.76 570.03 832.04 C 574.47 824.54 573.13 810.32 581.25 801.25 C 588.60 791.52 602.41 789.87 612.30 793.70 C 625.48 798.42 620.66 814.36 618.78 824.78 C 617.37 836.00 611.74 846.22 612.00 860.00
C 616.00 860.00 620.00 860.00 624.00 860.00
C 626.19 838.58 637.07 817.91 631.97 796.03 C 623.39 775.17 594.99 777.94 580.00 790.00
C 581.22 774.07 585.46 764.76 587.00 749.00 Z"/>
</g>
<g fill="None" fill-opacity="0.0" stroke="#9E1427" stroke-opacity="0.09" stroke-width="0.3"><path d="
M 2266.00 749.00 
C 2250.03 753.61 2231.72 748.06 2215.00 748.00
C 2230.54 752.77 2248.76 752.01 2266.00 752.00
C 2266.00 751.00 2266.00 750.00 2266.00 749.00 Z"/>
</g>
<g fill="None" fill-opacity="0.0" stroke="#040C0D" stroke-opacity="0.98" stroke-width="0.3"><path d="
M 1088.00 787.00 
C 1098.50 791.59 1101.77 777.68 1104.75 770.75 C 1110.54 765.64 1114.06 749.22 1103.00 749.00 C 1090.50 747.72 1091.86 762.25 1097.00 769.00
C 1092.15 773.66 1091.00 781.76 1088.00 787.00 Z"/>
</g>
<g fill="None" fill-opacity="0.0" stroke="#040C0D" stroke-opacity="0.98" stroke-width="0.3"><path d="
M 2096.00 749.00 
C 2092.05 749.45 2087.54 747.98 2084.00 750.00
C 2079.30 787.46 2069.50 822.30 2063.00 860.00
C 2067.00 860.00 2071.00 860.00 2075.00 860.00
C 2079.65 842.64 2081.77 824.38 2086.98 807.02 C 2087.62 788.18 2096.92 768.24 2096.00 749.00 Z"/>
</g>
<g fill="None" fill-opacity="0.0" stroke="#040C0D" stroke-opacity="0.96" stroke-width="0.3"><path d="
M 90.00 806.00 
C 106.47 799.13 114.53 771.16 97.23 759.77 C 77.11 751.90 54.37 757.26 32.00 755.00
C 24.61 789.90 16.79 824.72 11.00 860.00
C 36.21 858.07 63.88 864.60 86.92 854.92 C 105.72 846.81 109.60 815.78 90.00 806.00
M 78.00 766.00 
C 87.12 767.67 97.50 775.16 92.22 786.22 C 89.79 795.97 79.01 800.25 70.00 801.00 C 59.32 799.12 43.40 804.86 36.03 797.97 C 39.43 788.32 40.26 777.83 42.93 767.93 C 52.95 763.50 66.59 767.24 78.00 766.00
M 27.00 849.00 
C 27.62 845.44 28.40 841.84 28.00 838.00
C 32.07 844.93 28.03 830.40 31.26 828.26 C 30.14 823.49 32.78 818.16 33.00 813.00
C 53.21 815.34 89.72 803.91 88.67 832.67 C 79.14 857.01 48.59 846.59 27.00 849.00 Z"/>
</g>
<g fill="None" fill-opacity="0.0" stroke="#040C0D" stroke-opacity="0.99" stroke-width="0.3"><path d="
M 501.00 763.00 
C 485.50 758.89 489.43 774.61 484.00 782.00
C 476.35 777.96 469.56 782.81 470.00 791.00
C 473.88 790.75 479.06 790.59 483.00 791.00
C 482.16 807.17 474.01 822.49 474.00 840.00 C 469.35 861.23 496.46 865.59 510.00 857.00
C 509.11 854.04 508.89 850.93 508.00 848.00
C 500.23 850.04 490.61 853.74 486.00 844.00 C 486.74 826.95 492.47 810.93 494.68 794.68 C 498.16 786.69 513.52 793.48 519.00 790.00
C 519.40 786.58 519.40 784.37 519.00 781.00
C 512.12 782.31 505.68 779.66 499.00 782.00
C 497.09 775.76 501.33 769.04 501.00 763.00 Z"/>
</g>
<g fill="None" fill-opacity="0.0" stroke="#040C0D" stroke-opacity="0.98" stroke-width="0.3"><path d="
M 1026.00 763.00 
C 1021.72 763.48 1016.87 761.94 1013.00 764.00
C 1013.05 766.10 1015.10 771.99 1012.00 768.00
C 1012.06 772.95 1010.44 777.47 1009.00 782.00
C 1001.54 778.73 993.71 782.06 995.00 791.00
C 1003.91 788.55 1011.43 792.83 1005.33 802.33 C 1003.30 817.15 997.97 831.38 998.00 847.00 C 1000.33 863.31 1023.97 863.85 1035.00 856.00
C 1033.29 853.20 1033.47 849.86 1032.00 847.00
C 1026.06 851.52 1023.23 849.16 1016.00 851.00
C 1003.54 836.66 1017.75 816.44 1019.07 799.07 C 1018.44 784.98 1034.43 793.95 1043.00 792.00
C 1043.36 788.02 1044.52 784.55 1042.00 781.00
C 1036.00 781.12 1029.37 781.22 1023.00 782.00
C 1022.53 775.28 1025.72 769.50 1026.00 763.00 Z"/>
</g>
<g fill="None" fill-opacity="0.0" stroke="#040C0D" stroke-opacity="0.98" stroke-width="0.3"><path d="
M 1638.00 763.00 
C 1634.00 763.00 1630.00 763.00 1626.00 763.00
C 1625.28 768.75 1622.98 774.00 1622.92 779.92 C 1619.84 785.51 1612.32 778.70 1608.00 782.00
C 1611.14 785.59 1605.94 788.22 1607.00 792.00
C 1611.00 792.00 1615.00 792.00 1619.00 792.00
C 1616.86 809.58 1611.72 824.99 1610.99 841.99 C 1605.83 861.43 1637.66 867.02 1646.93 855.07 C 1646.63 843.62 1634.20 851.55 1628.00 851.00
C 1617.36 836.14 1628.85 816.79 1630.22 800.22 C 1629.17 786.20 1646.29 794.82 1654.07 791.07 C 1661.37 777.40 1643.44 781.36 1635.00 781.00
C 1636.21 774.78 1635.57 768.23 1638.00 763.00 Z"/>
</g>
<g fill="None" fill-opacity="0.0" stroke="#040C0D" stroke-opacity="0.01" stroke-width="0.3"><path d="
M 78.00 766.00 
C 66.59 767.24 52.95 763.50 42.93 767.93 C 40.26 777.83 39.43 788.32 36.03 797.97 C 43.40 804.86 59.32 799.12 70.00 801.00 C 79.01 800.25 89.79 795.97 92.22 786.22 C 97.50 775.16 87.12 767.67 78.00 766.00
M 73.00 799.00 
C 62.57 801.32 50.18 799.34 39.00 800.00
C 49.43 797.68 61.82 799.66 73.00 799.00 Z"/>
</g>
<g fill="None" fill-opacity="0.0" stroke="#9E1427" stroke-opacity="0.10" stroke-width="0.3"><path d="
M 2741.00 781.00 
C 2743.42 782.12 2742.51 783.80 2742.00 786.00
C 2747.02 787.22 2741.20 774.07 2741.00 781.00 Z"/>
</g>
<g fill="None" fill-opacity="0.0" stroke="#040C0D" stroke-opacity="0.97" stroke-width="0.3"><path d="
M 242.00 825.00 
C 258.67 825.00 275.33 825.00 292.00 825.00 C 311.90 830.57 305.37 803.77 299.75 794.25 C 272.22 757.29 215.19 800.62 231.23 839.77 C 241.34 866.07 277.79 865.66 297.00 850.00
C 297.17 846.47 291.86 845.53 292.00 842.00
C 281.59 846.64 270.36 853.27 258.02 848.98 C 247.12 847.13 239.29 835.61 242.00 825.00
M 293.00 815.00 
C 276.67 815.00 260.33 815.00 244.00 815.00
C 245.13 785.55 296.15 782.60 293.00 815.00 Z"/>
</g>
<g fill="None" fill-opacity="0.0" stroke="#040C0D" stroke-opacity="0.96" stroke-width="0.3"><path d="
M 430.00 782.00 
C 419.65 777.02 413.82 784.91 414.75 793.74 C 409.35 794.79 406.66 782.33 398.68 782.32 C 366.00 771.39 336.57 808.63 346.02 838.98 C 352.07 865.34 387.04 865.89 404.00 851.00
C 403.64 854.12 401.47 856.68 402.00 860.00
C 406.00 860.00 410.00 860.00 414.00 860.00
C 419.17 834.16 422.83 807.92 430.00 782.00
M 408.00 807.00 
C 408.11 807.47 408.00 808.00 408.00 808.00
C 412.60 825.57 400.83 850.10 380.00 849.00 C 355.48 851.99 353.08 819.53 363.77 804.77 C 373.21 789.38 403.34 785.85 408.00 807.00 Z"/>
</g>
<g fill="None" fill-opacity="0.0" stroke="#040C0D" stroke-opacity="0.97" stroke-width="0.3"><path d="
M 740.00 842.00 
C 725.18 852.27 698.17 856.28 691.33 834.67 C 684.70 819.45 706.44 826.54 715.00 825.00 C 727.22 824.80 739.52 825.40 751.69 824.69 C 759.10 806.66 747.54 782.44 727.07 780.93 C 695.68 775.16 671.55 808.61 680.22 837.78 C 682.71 857.89 709.48 865.03 726.98 858.98 C 734.90 858.09 748.33 851.07 740.00 842.00
M 692.00 816.00 
C 694.38 787.39 742.45 782.70 742.66 814.68 C 726.79 817.75 708.72 815.13 692.00 816.00 Z"/>
</g>
<g fill="None" fill-opacity="0.0" stroke="#040C0D" stroke-opacity="0.98" stroke-width="0.3"><path d="
M 1200.00 796.00 
C 1210.76 783.02 1189.90 781.21 1180.68 780.34 C 1158.68 774.35 1130.44 802.64 1152.78 820.22 C 1162.37 825.82 1174.05 825.75 1183.25 830.75 C 1192.95 840.72 1177.98 853.16 1168.00 850.00 C 1156.09 853.39 1149.12 845.01 1138.00 844.00
C 1138.67 847.50 1134.62 848.87 1134.00 852.00
C 1146.48 860.66 1162.80 862.55 1177.78 859.78 C 1192.85 857.66 1200.72 844.12 1199.00 830.00
C 1190.33 813.13 1166.95 820.39 1157.00 806.00 C 1158.25 784.25 1186.79 791.59 1200.00 796.00 Z"/>
</g>
<g fill="None" fill-opacity="0.0" stroke="#040C0D" stroke-opacity="0.99" stroke-width="0.3"><path d="
M 1535.00 791.00 
C 1538.07 789.60 1543.36 789.17 1546.00 791.00
C 1550.44 791.93 1554.70 793.20 1558.78 795.22 C 1563.81 797.90 1563.13 789.37 1567.00 788.00
C 1550.79 776.41 1518.66 776.87 1508.93 797.93 C 1503.96 808.23 1510.56 821.32 1521.92 823.08 C 1530.62 829.05 1544.02 824.71 1549.00 834.00 C 1551.45 847.67 1536.39 852.49 1526.67 850.33 C 1516.18 852.32 1503.07 836.70 1497.36 850.30 C 1502.96 859.75 1517.42 860.11 1528.00 861.00 C 1550.05 866.04 1577.53 835.16 1552.25 820.76 C 1543.29 817.11 1533.19 815.52 1523.25 811.75 C 1512.58 802.56 1524.98 791.73 1535.00 791.00 Z"/>
</g>
<g fill="None" fill-opacity="0.0" stroke="#040C0D" stroke-opacity="0.97" stroke-width="0.3"><path d="
M 1830.00 795.00 
C 1821.86 775.85 1791.41 777.07 1777.30 790.30 C 1761.70 804.52 1756.43 828.82 1766.25 847.75 C 1778.78 864.91 1806.76 864.83 1821.00 850.00
C 1820.96 853.52 1819.05 856.51 1819.00 860.00
C 1823.00 860.00 1827.00 860.00 1831.00 860.00
C 1834.33 841.68 1837.55 823.40 1841.67 804.67 C 1844.47 800.96 1841.50 787.87 1845.00 791.00
C 1843.36 786.94 1846.28 784.90 1845.00 781.00
C 1841.67 781.00 1838.33 781.00 1835.00 781.00
C 1833.82 786.04 1833.66 792.92 1830.00 795.00
M 1810.00 792.00 
C 1840.82 802.58 1822.94 856.64 1791.00 850.00 C 1759.48 839.84 1777.43 784.14 1810.00 792.00 Z"/>
</g>
<g fill="None" fill-opacity="0.0" stroke="#040C0D" stroke-opacity="0.98" stroke-width="0.3"><path d="
M 2245.00 780.00 
C 2212.97 779.91 2189.29 815.05 2202.70 844.30 C 2212.89 862.75 2241.96 866.42 2257.77 853.77 C 2271.02 850.01 2262.55 833.93 2253.30 844.30 C 2240.51 858.66 2206.78 847.22 2212.00 824.00 C 2211.02 802.37 2233.87 784.50 2253.75 793.25 C 2258.54 801.38 2273.20 804.52 2271.75 792.25 C 2264.79 784.03 2254.39 782.07 2245.00 780.00 Z"/>
</g>
<g fill="None" fill-opacity="0.0" stroke="#040C0D" stroke-opacity="0.97" stroke-width="0.3"><path d="
M 2447.00 794.00 
C 2435.68 775.30 2407.67 777.39 2393.25 791.25 C 2378.16 805.44 2374.37 828.20 2382.25 846.75 C 2393.99 866.62 2421.67 863.19 2437.00 851.00
C 2437.43 854.23 2435.30 856.73 2436.00 860.00
C 2440.00 860.00 2444.00 860.00 2448.00 860.00
C 2450.42 840.18 2454.94 822.45 2458.00 803.00
C 2461.53 813.14 2458.21 799.27 2460.22 795.22 C 2462.83 790.48 2463.67 780.31 2455.22 781.78 C 2446.89 778.08 2451.58 791.52 2447.00 794.00
M 2427.00 792.00 
C 2458.56 803.20 2438.17 857.57 2406.78 849.22 C 2375.35 837.81 2395.01 783.92 2427.00 792.00 Z"/>
</g>
<g fill="None" fill-opacity="0.0" stroke="#040C0D" stroke-opacity="0.96" stroke-width="0.3"><path d="
M 2742.00 786.00 
C 2742.51 783.80 2743.42 782.12 2741.00 781.00
C 2736.62 781.02 2732.67 782.42 2729.00 781.00
C 2730.18 785.91 2728.27 790.03 2728.00 795.00
C 2718.50 782.63 2701.47 775.76 2686.03 783.03 C 2657.19 793.68 2644.56 836.31 2670.76 856.25 C 2684.90 864.96 2703.73 860.73 2716.00 851.00
C 2716.18 854.11 2716.01 857.21 2715.00 860.00
C 2718.67 860.00 2722.33 860.00 2726.00 860.00
C 2732.41 834.26 2735.49 810.42 2742.00 786.00
M 2670.00 828.00 
C 2670.03 827.50 2670.00 827.00 2670.00 827.00
C 2668.83 807.06 2685.64 788.89 2705.67 792.33 C 2727.80 798.20 2724.18 826.87 2713.08 841.08 C 2699.98 855.75 2668.39 851.82 2670.00 828.00 Z"/>
</g>
<g fill="None" fill-opacity="0.0" stroke="#040C0D" stroke-opacity="0.99" stroke-width="0.3"><path d="
M 171.00 781.00 
C 167.67 781.00 164.33 781.00 161.00 781.00
C 154.90 809.63 150.14 831.98 145.00 860.00
C 162.15 865.19 158.42 845.45 162.07 835.08 C 163.83 815.65 173.45 789.31 198.00 792.00
C 197.69 788.06 199.94 784.81 200.00 781.00
C 187.38 779.38 179.64 787.03 170.00 792.00
C 169.51 788.10 171.72 784.94 171.00 781.00 Z"/>
</g>
<g fill="None" fill-opacity="0.0" stroke="#040C0D" stroke-opacity="0.98" stroke-width="0.3"><path d="
M 953.00 782.00 
C 942.83 777.27 938.68 784.45 938.31 793.31 C 932.92 816.21 929.26 837.34 925.00 860.00
C 939.71 864.73 938.78 850.14 941.67 840.67 C 944.68 820.34 947.90 801.73 953.00 782.00 Z"/>
</g>
<g fill="None" fill-opacity="0.0" stroke="#040C0D" stroke-opacity="0.99" stroke-width="0.3"><path d="
M 1339.00 781.00 
C 1329.30 779.47 1324.83 784.00 1325.78 793.78 C 1320.27 809.33 1319.79 822.26 1315.98 837.98 C 1310.43 851.11 1315.72 875.31 1298.00 879.00 C 1289.91 878.17 1280.52 875.25 1281.00 887.00
C 1295.44 893.74 1315.44 889.52 1321.02 873.02 C 1327.36 841.55 1334.36 810.70 1339.00 781.00 Z"/>
</g>
<g fill="None" fill-opacity="0.0" stroke="#040C0D" stroke-opacity="0.98" stroke-width="0.3"><path d="
M 1405.00 781.00 
C 1387.87 777.03 1394.27 796.12 1388.78 805.78 C 1385.35 817.61 1383.67 828.84 1384.22 841.78 C 1389.60 866.36 1422.45 864.58 1438.00 851.00
C 1438.69 854.28 1436.59 856.82 1437.00 860.00
C 1440.67 860.00 1444.33 860.00 1448.00 860.00
C 1453.99 832.39 1457.66 808.55 1464.00 782.00
C 1460.44 780.01 1455.98 781.42 1452.00 781.00
C 1448.97 799.82 1444.70 817.04 1439.75 834.75 C 1432.28 851.85 1403.30 858.41 1396.93 838.07 C 1394.90 818.60 1404.86 798.69 1405.00 781.00 Z"/>
</g>
<g fill="None" fill-opacity="0.0" stroke="#040C0D" stroke-opacity="0.98" stroke-width="0.3"><path d="
M 2029.00 796.00 
C 2018.56 775.86 1984.34 775.66 1970.25 793.25 C 1952.80 806.52 1950.56 835.17 1964.25 850.75 C 1979.65 866.99 2012.38 864.28 2023.00 844.00
C 2018.29 845.47 2017.57 839.94 2014.00 839.00
C 2006.19 851.16 1989.24 852.60 1977.25 846.75 C 1955.68 830.56 1972.41 790.66 1997.00 792.00 C 2010.45 784.74 2018.17 809.52 2029.00 796.00 Z"/>
</g>
<g fill="None" fill-opacity="0.0" stroke="#040C0D" stroke-opacity="0.98" stroke-width="0.3"><path d="
M 2144.00 860.00 
C 2146.65 839.90 2152.78 820.68 2155.68 800.68 C 2156.30 793.33 2164.83 777.44 2149.23 781.23 C 2142.96 787.67 2145.76 798.47 2141.93 806.92 C 2139.20 821.74 2135.04 842.00 2131.00 860.00
C 2135.33 860.00 2139.67 860.00 2144.00 860.00 Z"/>
</g>
<g fill="None" fill-opacity="0.0" stroke="#040C0D" stroke-opacity="0.98" stroke-width="0.3"><path d="
M 2527.00 844.00 
C 2522.66 834.02 2523.28 819.42 2519.80 807.25 C 2515.92 799.21 2521.91 775.51 2504.00 782.00
C 2505.13 785.63 2506.55 789.20 2507.00 793.00 C 2507.49 795.32 2505.60 805.49 2509.00 801.00
C 2509.54 822.00 2514.67 839.37 2518.00 860.00
C 2522.33 860.00 2526.67 860.00 2531.00 860.00
C 2541.16 839.17 2551.60 819.17 2564.00 800.00
C 2568.73 819.64 2571.89 839.71 2576.00 860.00
C 2580.33 860.00 2584.67 860.00 2589.00 860.00
C 2602.30 833.89 2617.21 807.32 2630.00 782.00
C 2613.26 776.77 2612.61 799.61 2603.99 807.99 C 2598.29 820.02 2591.22 833.73 2584.00 844.00
C 2579.56 824.06 2575.02 806.30 2572.59 784.75 C 2566.31 773.72 2555.78 787.75 2553.31 795.30 C 2544.31 811.96 2536.15 829.05 2527.00 844.00 Z"/>
</g>
<g fill="None" fill-opacity="0.0" stroke="#040C0D" stroke-opacity="0.98" stroke-width="0.3"><path d="
M 2861.00 781.00 
C 2857.33 781.00 2853.67 781.00 2850.00 781.00
C 2837.12 802.47 2823.30 825.16 2811.00 845.00
C 2805.22 833.81 2805.96 820.56 2800.99 809.01 C 2797.64 798.93 2799.24 777.38 2783.00 783.00
C 2788.89 799.92 2790.48 815.27 2795.68 832.32 C 2800.32 848.02 2805.54 871.97 2784.07 879.07 C 2775.56 882.97 2764.99 870.02 2762.00 884.00
C 2789.17 903.79 2811.34 870.27 2821.25 848.25 C 2834.71 825.74 2849.28 804.04 2861.00 781.00 Z"/>
</g>
<g fill="None" fill-opacity="0.0" stroke="#040C0D" stroke-opacity="0.84" stroke-width="0.3"><path d="
M 1535.00 791.00 
C 1537.54 792.72 1543.39 792.56 1546.00 791.00
C 1543.36 789.17 1538.07 789.60 1535.00 791.00 Z"/>
</g>
<g fill="None" fill-opacity="0.0" stroke="#040C0D" stroke-opacity="0.02" stroke-width="0.3"><path d="
M 293.00 815.00 
C 296.15 782.60 245.13 785.55 244.00 815.00
C 260.33 815.00 276.67 815.00 293.00 815.00 Z"/>
</g>
<g fill="None" fill-opacity="0.0" stroke="#040C0D" stroke-opacity="0.01" stroke-width="0.3"><path d="
M 408.00 808.00 
C 408.00 812.67 408.00 817.33 408.00 822.00
C 406.40 818.07 406.30 810.86 408.00 807.00
C 403.34 785.85 373.21 789.38 363.77 804.77 C 353.08 819.53 355.48 851.99 380.00 849.00 C 400.83 850.10 412.60 825.57 408.00 808.00 Z"/>
</g>
<g fill="None" fill-opacity="0.0" stroke="#040C0D" stroke-opacity="0.03" stroke-width="0.3"><path d="
M 692.00 816.00 
C 708.72 815.13 726.79 817.75 742.66 814.68 C 742.45 782.70 694.38 787.39 692.00 816.00 Z"/>
</g>
<g fill="None" fill-opacity="0.0" stroke="#040C0D" stroke-opacity="0.01" stroke-width="0.3"><path d="
M 1810.00 792.00 
C 1777.43 784.14 1759.48 839.84 1791.00 850.00 C 1822.94 856.64 1840.82 802.58 1810.00 792.00 Z"/>
</g>
<g fill="None" fill-opacity="0.0" stroke="#040C0D" stroke-opacity="0.01" stroke-width="0.3"><path d="
M 2427.00 792.00 
C 2395.01 783.92 2375.35 837.81 2406.78 849.22 C 2438.17 857.57 2458.56 803.20 2427.00 792.00 Z"/>
</g>
<g fill="None" fill-opacity="0.0" stroke="#040C0D" stroke-opacity="0.01" stroke-width="0.3"><path d="
M 2670.00 827.00 
C 2671.96 825.55 2670.56 822.20 2671.00 820.00
C 2673.19 823.09 2671.43 828.16 2672.00 832.00
C 2670.02 831.53 2672.11 828.40 2670.00 828.00
C 2668.39 851.82 2699.98 855.75 2713.08 841.08 C 2724.18 826.87 2727.80 798.20 2705.67 792.33 C 2685.64 788.89 2668.83 807.06 2670.00 827.00 Z"/>
</g>
<g fill="None" fill-opacity="0.0" stroke="#9E1427" stroke-opacity="0.00" stroke-width="0.3"><path d="
M 73.00 799.00 
C 61.82 799.66 49.43 797.68 39.00 800.00
C 50.18 799.34 62.57 801.32 73.00 799.00 Z"/>
</g>
<g fill="None" fill-opacity="0.0" stroke="#9E1427" stroke-opacity="0.00" stroke-width="0.3"><path d="
M 408.00 808.00 
C 408.00 808.00 408.11 807.47 408.00 807.00
C 406.30 810.86 406.40 818.07 408.00 822.00
C 408.00 817.33 408.00 812.67 408.00 808.00 Z"/>
</g>
<g fill="None" fill-opacity="0.0" stroke="#040C0D" stroke-opacity="0.01" stroke-width="0.3"><path d="
M 27.00 849.00 
C 48.59 846.59 79.14 857.01 88.67 832.67 C 89.72 803.91 53.21 815.34 33.00 813.00
C 32.78 818.16 30.14 823.49 31.26 828.26 C 28.03 830.40 32.07 844.93 28.00 838.00
C 28.40 841.84 27.62 845.44 27.00 849.00 Z"/>
</g>
<g fill="None" fill-opacity="0.0" stroke="#9E1427" stroke-opacity="0.00" stroke-width="0.3"><path d="
M 1760.00 819.00 
C 1758.30 823.19 1758.39 830.74 1760.00 835.00
C 1760.00 829.67 1760.00 824.33 1760.00 819.00 Z"/>
</g>
<g fill="None" fill-opacity="0.0" stroke="#9E1427" stroke-opacity="0.01" stroke-width="0.3"><path d="
M 2670.00 827.00 
C 2670.00 827.00 2670.03 827.50 2670.00 828.00
C 2672.11 828.40 2670.02 831.53 2672.00 832.00
C 2671.43 828.16 2673.19 823.09 2671.00 820.00
C 2670.56 822.20 2671.96 825.55 2670.00 827.00 Z"/>
</g>
<g fill="None" fill-opacity="0.0" stroke="#9E1427" stroke-opacity="0.01" stroke-width="0.3"><path d="
M 294.00 826.00 
C 277.98 828.50 259.29 826.02 244.00 827.00
C 259.89 827.90 279.25 830.06 294.00 826.00 Z"/>
</g>
<g fill="None" fill-opacity="0.0" stroke="#9E1427" stroke-opacity="0.01" stroke-width="0.3"><path d="
M 730.00 828.00 
C 726.96 823.30 718.52 828.94 713.00 827.00 C 707.01 827.61 700.26 826.10 695.00 827.00
C 705.68 829.33 718.50 827.33 730.00 828.00 Z"/>
</g>
<g fill="None" fill-opacity="0.0" stroke="#040C0D" stroke-opacity="0.99" stroke-width="0.3"><path d="
M 785.00 882.00 
C 798.63 883.53 800.55 865.06 806.07 856.07 C 813.53 838.39 784.47 841.06 789.00 857.00
C 798.12 862.03 786.31 874.49 785.00 882.00 Z"/>
</g>
<g fill="None" fill-opacity="0.0" stroke="#9E1427" stroke-opacity="0.07" stroke-width="0.3"><path d="
M 29.00 861.00 
C 22.35 859.58 11.54 864.18 8.00 858.00
C 8.62 865.71 23.57 861.34 29.00 861.00 Z"/>
</g>
<g fill="None" fill-opacity="0.0" stroke="#9E1427" stroke-opacity="0.02" stroke-width="0.3"><path d="
M 381.00 862.00 
C 378.17 863.58 374.46 860.39 372.00 863.00
C 374.54 864.26 379.52 865.23 381.00 862.00 Z"/>
</g>
<g fill="None" fill-opacity="0.0" stroke="#9E1427" stroke-opacity="0.01" stroke-width="0.3"><path d="
M 1416.00 862.00 
C 1412.79 862.98 1409.93 861.92 1407.00 863.00
C 1408.94 864.61 1414.69 865.03 1416.00 862.00 Z"/>
</g>
<g fill="None" fill-opacity="0.0" stroke="#9E1427" stroke-opacity="0.02" stroke-width="0.3"><path d="
M 1799.00 862.00 
C 1794.66 862.76 1791.30 862.93 1787.00 862.00
C 1789.10 865.20 1796.87 865.14 1799.00 862.00 Z"/>
</g>
<g fill="None" fill-opacity="0.0" stroke="#9E1427" stroke-opacity="0.02" stroke-width="0.3"><path d="
M 1997.00 862.00 
C 1992.72 862.85 1988.12 861.66 1985.00 863.00
C 1987.84 864.41 1994.84 865.39 1997.00 862.00 Z"/>
</g>
<g fill="None" fill-opacity="0.0" stroke="#9E1427" stroke-opacity="0.02" stroke-width="0.3"><path d="
M 2414.00 862.00 
C 2410.46 863.61 2407.24 861.29 2404.00 863.00
C 2406.24 864.54 2412.41 865.17 2414.00 862.00 Z"/>
</g>
<g fill="#040C0D" fill-opacity="0.00" stroke="None"><path d="
M 0.00 892.00 
L 2869.00 892.00
L 2869.00 0.00
L 0.00 0.00
L 0.00 892.00
M 2266.00 749.00 
C 2266.00 750.00 2266.00 751.00 2266.00 752.00
C 2248.76 752.01 2230.54 752.77 2215.00 748.00
C 2041.50 732.12 1899.98 567.95 1899.00 393.00 C 1887.86 192.26 2053.80 4.45 2253.70 4.31 C 2257.59 25.23 2239.23 50.04 2255.75 67.25 C 2274.18 83.90 2290.55 42.54 2306.75 63.25 C 2315.10 81.62 2316.54 107.22 2305.75 124.75 C 2291.28 144.93 2272.77 102.76 2255.75 121.75 C 2240.44 139.32 2255.59 164.11 2254.00 185.00
C 2159.11 195.22 2121.16 300.11 2125.00 386.00 C 2125.40 461.58 2157.57 550.01 2236.00 569.00 C 2244.85 573.85 2259.55 568.63 2265.97 575.03 C 2267.73 585.43 2269.54 595.83 2271.93 606.07 C 2275.77 617.53 2267.44 628.03 2258.25 616.75 C 2243.05 601.90 2217.45 612.85 2213.01 631.01 C 2204.71 656.29 2202.38 697.42 2230.10 711.90 C 2240.39 714.64 2251.59 713.03 2260.08 707.08 C 2269.89 694.45 2275.67 707.02 2272.00 718.00 C 2269.92 728.30 2268.99 738.91 2266.00 749.00
M 2272.00 185.00 
C 2268.57 175.54 2268.54 164.46 2267.02 154.97 C 2264.79 147.25 2262.29 124.40 2274.75 137.25 C 2289.91 150.35 2318.05 146.42 2322.99 124.99 C 2332.64 98.12 2332.21 55.07 2302.71 42.29 C 2292.01 40.49 2282.55 45.48 2275.25 52.25 C 2261.94 64.09 2264.87 41.88 2266.98 33.98 C 2269.77 24.04 2266.81 10.81 2274.23 3.23 C 2431.22 4.02 2571.55 123.36 2612.31 269.69 C 2666.89 445.87 2578.48 648.27 2413.92 720.92 C 2376.17 738.51 2335.51 748.69 2293.00 752.00 C 2275.30 756.27 2286.32 737.91 2285.33 728.33 C 2287.38 718.74 2288.26 705.55 2285.69 695.31 C 2283.39 685.58 2269.85 681.88 2261.78 687.78 C 2253.06 690.97 2246.18 703.20 2236.11 697.89 C 2217.87 686.23 2222.08 657.69 2225.93 639.93 C 2227.13 631.04 2237.54 619.87 2246.75 627.25 C 2254.67 632.69 2262.62 639.98 2273.67 637.67 C 2295.03 628.27 2285.36 598.61 2282.23 580.77 C 2277.49 565.14 2298.14 571.97 2304.29 565.29 C 2372.17 540.19 2396.83 464.20 2400.00 398.00 C 2403.22 316.53 2382.51 223.99 2303.78 191.22 C 2293.41 187.86 2282.81 186.75 2272.00 185.00
M 342.00 42.00 
C 329.91 44.32 315.85 42.34 303.00 43.00
C 315.09 40.68 329.15 42.66 342.00 42.00
M 766.00 45.00 
C 722.23 47.33 676.52 45.33 632.00 46.00
C 675.76 43.67 721.48 45.67 766.00 45.00
M 1289.00 386.00 
C 1293.18 385.35 1290.01 396.89 1291.00 401.00
C 1288.97 399.23 1290.47 395.52 1290.00 393.00
C 1287.67 483.43 1289.67 575.82 1289.00 667.00 C 1285.29 675.37 1270.26 669.01 1262.00 671.00 C 1231.67 671.00 1201.33 671.00 1171.00 671.00 C 1157.74 673.50 1164.72 655.73 1163.00 648.00 C 1163.00 637.67 1163.00 627.33 1163.00 617.00
C 1136.27 645.16 1103.41 669.07 1064.98 675.98 C 985.28 688.32 891.07 676.23 849.68 597.32 C 823.64 544.44 835.20 468.42 886.25 433.25 C 960.37 377.82 1062.45 394.91 1154.67 391.67 C 1160.29 351.25 1129.43 312.99 1089.33 307.67 C 1022.92 295.39 957.34 313.83 901.00 346.00
C 886.39 314.50 869.89 285.96 854.08 255.92 C 916.12 213.34 991.08 198.92 1066.00 198.00 C 1138.89 199.54 1215.70 213.85 1259.25 278.75 C 1279.82 311.84 1286.30 350.81 1288.00 390.00
C 1289.60 389.47 1288.73 387.25 1289.00 386.00
M 13.00 350.00 
C 12.48 357.51 11.59 365.20 13.00 373.00
C 9.69 368.52 9.70 355.32 13.00 350.00
M 1491.00 422.00 
C 1491.00 433.00 1491.00 444.00 1491.00 455.00
C 1488.78 444.65 1489.24 432.70 1491.00 422.00
M 1291.00 448.00 
C 1291.00 455.33 1291.00 462.67 1291.00 470.00
C 1289.36 463.74 1289.31 454.19 1291.00 448.00
M 2752.00 485.00 
C 2805.16 486.09 2836.48 551.21 2812.08 597.08 C 2790.86 637.95 2752.63 660.88 2722.00 696.00
C 2745.33 696.00 2768.67 696.00 2792.00 696.00 C 2800.63 698.50 2819.85 689.79 2820.00 703.00 C 2820.00 714.67 2820.00 726.33 2820.00 738.00 C 2823.17 753.35 2802.80 744.83 2794.00 747.00 C 2747.34 747.00 2700.67 747.00 2654.00 747.00 C 2638.93 751.38 2639.40 738.99 2642.78 728.78 C 2657.64 669.60 2715.13 636.74 2752.75 593.75 C 2771.60 574.04 2767.71 529.68 2735.99 528.01 C 2716.31 526.14 2699.88 543.04 2700.22 562.22 C 2702.36 577.32 2685.19 567.09 2676.93 568.07 C 2666.28 568.55 2657.17 564.83 2646.00 566.00
C 2642.11 523.31 2677.47 485.23 2720.00 485.00
C 2728.93 481.72 2743.14 481.70 2752.00 485.00
M 1291.00 505.00 
C 1291.00 512.00 1291.00 519.00 1291.00 526.00
C 1289.37 520.08 1289.31 510.85 1291.00 505.00
M 1291.00 531.00 
C 1291.00 551.00 1291.00 571.00 1291.00 591.00
C 1289.34 572.07 1289.33 549.86 1291.00 531.00
M 768.00 650.00 
C 768.00 657.33 768.00 664.67 768.00 672.00
C 766.36 665.74 766.31 656.19 768.00 650.00
M 1024.00 682.00 
C 1019.91 684.24 1013.84 682.40 1009.00 683.00
C 1013.09 680.76 1019.16 682.60 1024.00 682.00
M 1624.00 682.00 
C 1613.58 684.32 1601.18 682.34 1590.00 683.00
C 1600.43 680.68 1612.82 682.66 1624.00 682.00
M 2161.00 747.00 
C 2164.61 749.60 2167.31 752.91 2166.00 758.00
C 2169.60 753.59 2164.71 749.43 2163.00 746.00
C 2170.76 747.25 2170.78 762.95 2164.00 763.00
C 2162.29 763.75 2158.76 763.27 2159.00 766.00
C 2156.23 767.18 2156.44 763.62 2154.00 764.00
C 2150.17 768.46 2145.31 756.45 2147.80 752.75 C 2149.51 747.83 2159.09 742.43 2161.00 747.00
M 954.00 747.00 
C 963.45 750.31 958.49 767.80 948.93 764.07 C 938.12 761.87 943.82 745.07 954.00 747.00
M 1341.00 747.00 
C 1350.18 750.38 1347.73 765.64 1337.32 764.66 C 1326.34 762.95 1330.59 744.96 1341.00 747.00
M 587.00 749.00 
C 585.46 764.76 581.22 774.07 580.00 790.00
C 594.99 777.94 623.39 775.17 631.97 796.03 C 637.07 817.91 626.19 838.58 624.00 860.00
C 620.00 860.00 616.00 860.00 612.00 860.00
C 611.74 846.22 617.37 836.00 618.78 824.78 C 620.66 814.36 625.48 798.42 612.30 793.70 C 602.41 789.87 588.60 791.52 581.25 801.25 C 573.13 810.32 574.47 824.54 570.03 832.04 C 569.19 842.76 571.05 865.38 553.00 860.00
C 559.37 821.93 569.50 786.26 575.00 748.00
C 579.37 748.03 582.42 748.99 587.00 749.00
M 1088.00 787.00 
C 1091.00 781.76 1092.15 773.66 1097.00 769.00
C 1091.86 762.25 1090.50 747.72 1103.00 749.00 C 1114.06 749.22 1110.54 765.64 1104.75 770.75 C 1101.77 777.68 1098.50 791.59 1088.00 787.00
M 2096.00 749.00 
C 2096.92 768.24 2087.62 788.18 2086.98 807.02 C 2081.77 824.38 2079.65 842.64 2075.00 860.00
C 2071.00 860.00 2067.00 860.00 2063.00 860.00
C 2069.50 822.30 2079.30 787.46 2084.00 750.00
C 2087.54 747.98 2092.05 749.45 2096.00 749.00
M 90.00 806.00 
C 109.60 815.78 105.72 846.81 86.92 854.92 C 63.88 864.60 36.21 858.07 11.00 860.00
C 16.79 824.72 24.61 789.90 32.00 755.00
C 54.37 757.26 77.11 751.90 97.23 759.77 C 114.53 771.16 106.47 799.13 90.00 806.00
M 501.00 763.00 
C 501.33 769.04 497.09 775.76 499.00 782.00
C 505.68 779.66 512.12 782.31 519.00 781.00
C 519.40 784.37 519.40 786.58 519.00 790.00
C 513.52 793.48 498.16 786.69 494.68 794.68 C 492.47 810.93 486.74 826.95 486.00 844.00 C 490.61 853.74 500.23 850.04 508.00 848.00
C 508.89 850.93 509.11 854.04 510.00 857.00
C 496.46 865.59 469.35 861.23 474.00 840.00 C 474.01 822.49 482.16 807.17 483.00 791.00
C 479.06 790.59 473.88 790.75 470.00 791.00
C 469.56 782.81 476.35 777.96 484.00 782.00
C 489.43 774.61 485.50 758.89 501.00 763.00
M 1026.00 763.00 
C 1025.72 769.50 1022.53 775.28 1023.00 782.00
C 1029.37 781.22 1036.00 781.12 1042.00 781.00
C 1044.52 784.55 1043.36 788.02 1043.00 792.00
C 1034.43 793.95 1018.44 784.98 1019.07 799.07 C 1017.75 816.44 1003.54 836.66 1016.00 851.00
C 1023.23 849.16 1026.06 851.52 1032.00 847.00
C 1033.47 849.86 1033.29 853.20 1035.00 856.00
C 1023.97 863.85 1000.33 863.31 998.00 847.00 C 997.97 831.38 1003.30 817.15 1005.33 802.33 C 1011.43 792.83 1003.91 788.55 995.00 791.00
C 993.71 782.06 1001.54 778.73 1009.00 782.00
C 1010.44 777.47 1012.06 772.95 1012.00 768.00
C 1015.10 771.99 1013.05 766.10 1013.00 764.00
C 1016.87 761.94 1021.72 763.48 1026.00 763.00
M 1638.00 763.00 
C 1635.57 768.23 1636.21 774.78 1635.00 781.00
C 1643.44 781.36 1661.37 777.40 1654.07 791.07 C 1646.29 794.82 1629.17 786.20 1630.22 800.22 C 1628.85 816.79 1617.36 836.14 1628.00 851.00
C 1634.20 851.55 1646.63 843.62 1646.93 855.07 C 1637.66 867.02 1605.83 861.43 1610.99 841.99 C 1611.72 824.99 1616.86 809.58 1619.00 792.00
C 1615.00 792.00 1611.00 792.00 1607.00 792.00
C 1605.94 788.22 1611.14 785.59 1608.00 782.00
C 1612.32 778.70 1619.84 785.51 1622.92 779.92 C 1622.98 774.00 1625.28 768.75 1626.00 763.00
C 1630.00 763.00 1634.00 763.00 1638.00 763.00
M 2742.00 786.00 
C 2735.49 810.42 2732.41 834.26 2726.00 860.00
C 2722.33 860.00 2718.67 860.00 2715.00 860.00
C 2716.01 857.21 2716.18 854.11 2716.00 851.00
C 2703.73 860.73 2684.90 864.96 2670.76 856.25 C 2644.56 836.31 2657.19 793.68 2686.03 783.03 C 2701.47 775.76 2718.50 782.63 2728.00 795.00
C 2728.27 790.03 2730.18 785.91 2729.00 781.00
C 2732.67 782.42 2736.62 781.02 2741.00 781.00
C 2741.20 774.07 2747.02 787.22 2742.00 786.00
M 242.00 825.00 
C 239.29 835.61 247.12 847.13 258.02 848.98 C 270.36 853.27 281.59 846.64 292.00 842.00
C 291.86 845.53 297.17 846.47 297.00 850.00
C 277.79 865.66 241.34 866.07 231.23 839.77 C 215.19 800.62 272.22 757.29 299.75 794.25 C 305.37 803.77 311.90 830.57 292.00 825.00 C 275.33 825.00 258.67 825.00 242.00 825.00
M 430.00 782.00 
C 422.83 807.92 419.17 834.16 414.00 860.00
C 410.00 860.00 406.00 860.00 402.00 860.00
C 401.47 856.68 403.64 854.12 404.00 851.00
C 387.04 865.89 352.07 865.34 346.02 838.98 C 336.57 808.63 366.00 771.39 398.68 782.32 C 406.66 782.33 409.35 794.79 414.75 793.74 C 413.82 784.91 419.65 777.02 430.00 782.00
M 740.00 842.00 
C 748.33 851.07 734.90 858.09 726.98 858.98 C 709.48 865.03 682.71 857.89 680.22 837.78 C 671.55 808.61 695.68 775.16 727.07 780.93 C 747.54 782.44 759.10 806.66 751.69 824.69 C 739.52 825.40 727.22 824.80 715.00 825.00 C 706.44 826.54 684.70 819.45 691.33 834.67 C 698.17 856.28 725.18 852.27 740.00 842.00
M 1200.00 796.00 
C 1186.79 791.59 1158.25 784.25 1157.00 806.00 C 1166.95 820.39 1190.33 813.13 1199.00 830.00
C 1200.72 844.12 1192.85 857.66 1177.78 859.78 C 1162.80 862.55 1146.48 860.66 1134.00 852.00
C 1134.62 848.87 1138.67 847.50 1138.00 844.00
C 1149.12 845.01 1156.09 853.39 1168.00 850.00 C 1177.98 853.16 1192.95 840.72 1183.25 830.75 C 1174.05 825.75 1162.37 825.82 1152.78 820.22 C 1130.44 802.64 1158.68 774.35 1180.68 780.34 C 1189.90 781.21 1210.76 783.02 1200.00 796.00
M 1546.00 791.00 
C 1543.39 792.56 1537.54 792.72 1535.00 791.00
C 1524.98 791.73 1512.58 802.56 1523.25 811.75 C 1533.19 815.52 1543.29 817.11 1552.25 820.76 C 1577.53 835.16 1550.05 866.04 1528.00 861.00 C 1517.42 860.11 1502.96 859.75 1497.36 850.30 C 1503.07 836.70 1516.18 852.32 1526.67 850.33 C 1536.39 852.49 1551.45 847.67 1549.00 834.00 C 1544.02 824.71 1530.62 829.05 1521.92 823.08 C 1510.56 821.32 1503.96 808.23 1508.93 797.93 C 1518.66 776.87 1550.79 776.41 1567.00 788.00
C 1563.13 789.37 1563.81 797.90 1558.78 795.22 C 1554.70 793.20 1550.44 791.93 1546.00 791.00
M 1830.00 795.00 
C 1833.66 792.92 1833.82 786.04 1835.00 781.00
C 1838.33 781.00 1841.67 781.00 1845.00 781.00
C 1846.28 784.90 1843.36 786.94 1845.00 791.00
C 1841.50 787.87 1844.47 800.96 1841.67 804.67 C 1837.55 823.40 1834.33 841.68 1831.00 860.00
C 1827.00 860.00 1823.00 860.00 1819.00 860.00
C 1819.05 856.51 1820.96 853.52 1821.00 850.00
C 1806.76 864.83 1778.78 864.91 1766.25 847.75 C 1756.43 828.82 1761.70 804.52 1777.30 790.30 C 1791.41 777.07 1821.86 775.85 1830.00 795.00
M 2245.00 780.00 
C 2254.39 782.07 2264.79 784.03 2271.75 792.25 C 2273.20 804.52 2258.54 801.38 2253.75 793.25 C 2233.87 784.50 2211.02 802.37 2212.00 824.00 C 2206.78 847.22 2240.51 858.66 2253.30 844.30 C 2262.55 833.93 2271.02 850.01 2257.77 853.77 C 2241.96 866.42 2212.89 862.75 2202.70 844.30 C 2189.29 815.05 2212.97 779.91 2245.00 780.00
M 2447.00 794.00 
C 2451.58 791.52 2446.89 778.08 2455.22 781.78 C 2463.67 780.31 2462.83 790.48 2460.22 795.22 C 2458.21 799.27 2461.53 813.14 2458.00 803.00
C 2454.94 822.45 2450.42 840.18 2448.00 860.00
C 2444.00 860.00 2440.00 860.00 2436.00 860.00
C 2435.30 856.73 2437.43 854.23 2437.00 851.00
C 2421.67 863.19 2393.99 866.62 2382.25 846.75 C 2374.37 828.20 2378.16 805.44 2393.25 791.25 C 2407.67 777.39 2435.68 775.30 2447.00 794.00
M 171.00 781.00 
C 171.72 784.94 169.51 788.10 170.00 792.00
C 179.64 787.03 187.38 779.38 200.00 781.00
C 199.94 784.81 197.69 788.06 198.00 792.00
C 173.45 789.31 163.83 815.65 162.07 835.08 C 158.42 845.45 162.15 865.19 145.00 860.00
C 150.14 831.98 154.90 809.63 161.00 781.00
C 164.33 781.00 167.67 781.00 171.00 781.00
M 953.00 782.00 
C 947.90 801.73 944.68 820.34 941.67 840.67 C 938.78 850.14 939.71 864.73 925.00 860.00
C 929.26 837.34 932.92 816.21 938.31 793.31 C 938.68 784.45 942.83 777.27 953.00 782.00
M 1339.00 781.00 
C 1334.36 810.70 1327.36 841.55 1321.02 873.02 C 1315.44 889.52 1295.44 893.74 1281.00 887.00
C 1280.52 875.25 1289.91 878.17 1298.00 879.00 C 1315.72 875.31 1310.43 851.11 1315.98 837.98 C 1319.79 822.26 1320.27 809.33 1325.78 793.78 C 1324.83 784.00 1329.30 779.47 1339.00 781.00
M 1405.00 781.00 
C 1404.86 798.69 1394.90 818.60 1396.93 838.07 C 1403.30 858.41 1432.28 851.85 1439.75 834.75 C 1444.70 817.04 1448.97 799.82 1452.00 781.00
C 1455.98 781.42 1460.44 780.01 1464.00 782.00
C 1457.66 808.55 1453.99 832.39 1448.00 860.00
C 1444.33 860.00 1440.67 860.00 1437.00 860.00
C 1436.59 856.82 1438.69 854.28 1438.00 851.00
C 1422.45 864.58 1389.60 866.36 1384.22 841.78 C 1383.67 828.84 1385.35 817.61 1388.78 805.78 C 1394.27 796.12 1387.87 777.03 1405.00 781.00
M 2029.00 796.00 
C 2018.17 809.52 2010.45 784.74 1997.00 792.00 C 1972.41 790.66 1955.68 830.56 1977.25 846.75 C 1989.24 852.60 2006.19 851.16 2014.00 839.00
C 2017.57 839.94 2018.29 845.47 2023.00 844.00
C 2012.38 864.28 1979.65 866.99 1964.25 850.75 C 1950.56 835.17 1952.80 806.52 1970.25 793.25 C 1984.34 775.66 2018.56 775.86 2029.00 796.00
M 2144.00 860.00 
C 2139.67 860.00 2135.33 860.00 2131.00 860.00
C 2135.04 842.00 2139.20 821.74 2141.93 806.92 C 2145.76 798.47 2142.96 787.67 2149.23 781.23 C 2164.83 777.44 2156.30 793.33 2155.68 800.68 C 2152.78 820.68 2146.65 839.90 2144.00 860.00
M 2527.00 844.00 
C 2536.15 829.05 2544.31 811.96 2553.31 795.30 C 2555.78 787.75 2566.31 773.72 2572.59 784.75 C 2575.02 806.30 2579.56 824.06 2584.00 844.00
C 2591.22 833.73 2598.29 820.02 2603.99 807.99 C 2612.61 799.61 2613.26 776.77 2630.00 782.00
C 2617.21 807.32 2602.30 833.89 2589.00 860.00
C 2584.67 860.00 2580.33 860.00 2576.00 860.00
C 2571.89 839.71 2568.73 819.64 2564.00 800.00
C 2551.60 819.17 2541.16 839.17 2531.00 860.00
C 2526.67 860.00 2522.33 860.00 2518.00 860.00
C 2514.67 839.37 2509.54 822.00 2509.00 801.00
C 2505.60 805.49 2507.49 795.32 2507.00 793.00 C 2506.55 789.20 2505.13 785.63 2504.00 782.00
C 2521.91 775.51 2515.92 799.21 2519.80 807.25 C 2523.28 819.42 2522.66 834.02 2527.00 844.00
M 2861.00 781.00 
C 2849.28 804.04 2834.71 825.74 2821.25 848.25 C 2811.34 870.27 2789.17 903.79 2762.00 884.00
C 2764.99 870.02 2775.56 882.97 2784.07 879.07 C 2805.54 871.97 2800.32 848.02 2795.68 832.32 C 2790.48 815.27 2788.89 799.92 2783.00 783.00
C 2799.24 777.38 2797.64 798.93 2800.99 809.01 C 2805.96 820.56 2805.22 833.81 2811.00 845.00
C 2823.30 825.16 2837.12 802.47 2850.00 781.00
C 2853.67 781.00 2857.33 781.00 2861.00 781.00
M 1760.00 819.00 
C 1760.00 824.33 1760.00 829.67 1760.00 835.00
C 1758.39 830.74 1758.30 823.19 1760.00 819.00
M 294.00 826.00 
C 279.25 830.06 259.89 827.90 244.00 827.00
C 259.29 826.02 277.98 828.50 294.00 826.00
M 730.00 828.00 
C 718.50 827.33 705.68 829.33 695.00 827.00
C 700.26 826.10 707.01 827.61 713.00 827.00 C 718.52 828.94 726.96 823.30 730.00 828.00
M 785.00 882.00 
C 786.31 874.49 798.12 862.03 789.00 857.00
C 784.47 841.06 813.53 838.39 806.07 856.07 C 800.55 865.06 798.63 883.53 785.00 882.00
M 29.00 861.00 
C 23.57 861.34 8.62 865.71 8.00 858.00
C 11.54 864.18 22.35 859.58 29.00 861.00
M 381.00 862.00 
C 379.52 865.23 374.54 864.26 372.00 863.00
C 374.46 860.39 378.17 863.58 381.00 862.00
M 1416.00 862.00 
C 1414.69 865.03 1408.94 864.61 1407.00 863.00
C 1409.93 861.92 1412.79 862.98 1416.00 862.00
M 1799.00 862.00 
C 1796.87 865.14 1789.10 865.20 1787.00 862.00
C 1791.30 862.93 1794.66 862.76 1799.00 862.00
M 1997.00 862.00 
C 1994.84 865.39 1987.84 864.41 1985.00 863.00
C 1988.12 861.66 1992.72 862.85 1997.00 862.00
M 2414.00 862.00 
C 2412.41 865.17 2406.24 864.54 2404.00 863.00
C 2407.24 861.29 2410.46 863.61 2414.00 862.00 Z"/>
</g>
<g fill="#9E1427" fill-opacity="0.98" stroke="None"><path d="
M 2215.00 748.00 
C 2231.72 748.06 2250.03 753.61 2266.00 749.00
C 2268.99 738.91 2269.92 728.30 2272.00 718.00 C 2275.67 707.02 2269.89 694.45 2260.08 707.08 C 2251.59 713.03 2240.39 714.64 2230.10 711.90 C 2202.38 697.42 2204.71 656.29 2213.01 631.01 C 2217.45 612.85 2243.05 601.90 2258.25 616.75 C 2267.44 628.03 2275.77 617.53 2271.93 606.07 C 2269.54 595.83 2267.73 585.43 2265.97 575.03 C 2259.55 568.63 2244.85 573.85 2236.00 569.00 C 2157.57 550.01 2125.40 461.58 2125.00 386.00 C 2121.16 300.11 2159.11 195.22 2254.00 185.00
C 2255.59 164.11 2240.44 139.32 2255.75 121.75 C 2272.77 102.76 2291.28 144.93 2305.75 124.75 C 2316.54 107.22 2315.10 81.62 2306.75 63.25 C 2290.55 42.54 2274.18 83.90 2255.75 67.25 C 2239.23 50.04 2257.59 25.23 2253.70 4.31 C 2053.80 4.45 1887.86 192.26 1899.00 393.00 C 1899.98 567.95 2041.50 732.12 2215.00 748.00 Z"/>
</g>
<g fill="#9E1427" fill-opacity="0.98" stroke="None"><path d="
M 2272.00 185.00 
C 2282.81 186.75 2293.41 187.86 2303.78 191.22 C 2382.51 223.99 2403.22 316.53 2400.00 398.00 C 2396.83 464.20 2372.17 540.19 2304.29 565.29 C 2298.14 571.97 2277.49 565.14 2282.23 580.77 C 2285.36 598.61 2295.03 628.27 2273.67 637.67 C 2262.62 639.98 2254.67 632.69 2246.75 627.25 C 2237.54 619.87 2227.13 631.04 2225.93 639.93 C 2222.08 657.69 2217.87 686.23 2236.11 697.89 C 2246.18 703.20 2253.06 690.97 2261.78 687.78 C 2269.85 681.88 2283.39 685.58 2285.69 695.31 C 2288.26 705.55 2287.38 718.74 2285.33 728.33 C 2286.32 737.91 2275.30 756.27 2293.00 752.00 C 2335.51 748.69 2376.17 738.51 2413.92 720.92 C 2578.48 648.27 2666.89 445.87 2612.31 269.69 C 2571.55 123.36 2431.22 4.02 2274.23 3.23 C 2266.81 10.81 2269.77 24.04 2266.98 33.98 C 2264.87 41.88 2261.94 64.09 2275.25 52.25 C 2282.55 45.48 2292.01 40.49 2302.71 42.29 C 2332.21 55.07 2332.64 98.12 2322.99 124.99 C 2318.05 146.42 2289.91 150.35 2274.75 137.25 C 2262.29 124.40 2264.79 147.25 2267.02 154.97 C 2268.54 164.46 2268.57 175.54 2272.00 185.00 Z"/>
</g>
<g fill="#9E1427" fill-opacity="0.01" stroke="None"><path d="
M 342.00 42.00 
C 329.15 42.66 315.09 40.68 303.00 43.00
C 315.85 42.34 329.91 44.32 342.00 42.00 Z"/>
</g>
<g fill="#040C0D" fill-opacity="1.00" stroke="None"><path d="
M 488.00 246.00 
C 511.48 219.62 540.12 192.78 565.25 167.25 C 578.72 157.89 558.15 147.64 553.25 138.75 C 495.40 80.01 419.85 45.38 337.00 45.00 C 212.62 35.23 92.81 105.57 44.00 216.00
C 40.58 210.51 42.48 224.23 38.32 228.32 C 18.00 278.95 10.44 336.00 16.00 392.00 C 14.15 396.80 19.80 415.88 14.00 407.00
C 23.26 430.51 24.93 459.14 35.68 483.32 C 44.48 505.51 55.74 528.10 69.75 547.25 C 124.39 631.42 217.38 676.71 312.00 680.00 C 339.65 682.62 372.09 679.45 395.32 675.66 C 465.66 664.57 533.16 624.28 573.00 563.00
C 544.03 535.41 516.12 506.63 487.00 480.00
C 460.52 513.85 425.25 543.76 382.22 554.22 C 379.16 557.85 366.59 554.54 370.00 558.00
C 339.82 559.82 307.46 561.64 279.69 551.31 C 232.52 538.01 190.95 498.18 170.77 452.23 C 138.49 377.73 146.39 277.04 206.25 214.25 C 264.37 150.98 365.93 147.94 432.75 195.25 C 453.75 207.47 469.15 230.87 488.00 246.00 Z"/>
</g>
<g fill="#9E1427" fill-opacity="0.01" stroke="None"><path d="
M 766.00 45.00 
C 721.48 45.67 675.76 43.67 632.00 46.00
C 676.52 45.33 722.23 47.33 766.00 45.00 Z"/>
</g>
<g fill="#040C0D" fill-opacity="1.00" stroke="None"><path d="
M 765.00 47.00 
C 721.82 47.03 676.87 46.98 633.00 47.00
C 633.09 73.92 632.88 101.75 633.00 128.00 C 632.33 292.72 633.44 468.24 633.00 640.00 C 635.78 650.25 625.36 674.35 643.00 671.00 C 684.00 671.00 725.00 671.00 766.00 671.00
C 765.33 463.08 767.33 254.50 765.00 47.00 Z"/>
</g>
<g fill="#040C0D" fill-opacity="1.00" stroke="None"><path d="
M 1290.00 393.00 
C 1289.48 390.81 1291.14 387.38 1289.00 386.00
C 1288.73 387.25 1289.60 389.47 1288.00 390.00
C 1286.30 350.81 1279.82 311.84 1259.25 278.75 C 1215.70 213.85 1138.89 199.54 1066.00 198.00 C 991.08 198.92 916.12 213.34 854.08 255.92 C 869.89 285.96 886.39 314.50 901.00 346.00
C 957.34 313.83 1022.92 295.39 1089.33 307.67 C 1129.43 312.99 1160.29 351.25 1154.67 391.67 C 1062.45 394.91 960.37 377.82 886.25 433.25 C 835.20 468.42 823.64 544.44 849.68 597.32 C 891.07 676.23 985.28 688.32 1064.98 675.98 C 1103.41 669.07 1136.27 645.16 1163.00 617.00
C 1163.00 627.33 1163.00 637.67 1163.00 648.00 C 1164.72 655.73 1157.74 673.50 1171.00 671.00 C 1201.33 671.00 1231.67 671.00 1262.00 671.00 C 1270.26 669.01 1285.29 675.37 1289.00 667.00 C 1289.67 575.82 1287.67 483.43 1290.00 393.00
M 1066.00 585.00 
C 1057.47 584.53 1049.61 586.77 1041.00 586.00
C 1009.23 587.39 967.64 569.30 969.78 533.78 C 963.59 498.07 1003.45 478.06 1033.01 478.01 C 1071.62 473.64 1114.55 477.14 1154.00 476.00
C 1154.28 502.95 1157.26 533.92 1135.25 554.25 C 1117.15 571.33 1092.61 583.18 1066.00 585.00 Z"/>
</g>
<g fill="#040C0D" fill-opacity="1.00" stroke="None"><path d="
M 1715.00 375.00 
C 1749.38 355.91 1782.89 335.72 1817.98 316.02 C 1782.83 236.65 1695.00 197.56 1612.00 198.00 C 1578.54 197.97 1549.71 202.14 1521.22 209.22 C 1471.38 222.78 1422.95 254.75 1393.75 299.75 C 1332.59 393.31 1341.32 532.32 1424.25 610.75 C 1474.60 661.97 1544.84 682.09 1618.00 680.00 C 1701.31 680.91 1785.19 634.49 1819.00 557.00
C 1784.09 538.67 1751.02 519.08 1716.00 499.00
C 1694.00 553.57 1629.94 584.61 1573.03 565.98 C 1516.67 549.68 1484.44 492.30 1488.00 436.00 C 1485.75 380.11 1520.82 321.18 1576.93 309.93 C 1634.44 296.54 1692.36 322.15 1715.00 375.00 Z"/>
</g>
<g fill="#9E1427" fill-opacity="0.02" stroke="None"><path d="
M 13.00 350.00 
C 9.70 355.32 9.69 368.52 13.00 373.00
C 11.59 365.20 12.48 357.51 13.00 350.00 Z"/>
</g>
<g fill="#9E1427" fill-opacity="0.01" stroke="None"><path d="
M 1289.00 386.00 
C 1291.14 387.38 1289.48 390.81 1290.00 393.00
C 1290.47 395.52 1288.97 399.23 1291.00 401.00
C 1290.01 396.89 1293.18 385.35 1289.00 386.00 Z"/>
</g>
<g fill="#9E1427" fill-opacity="0.01" stroke="None"><path d="
M 1491.00 422.00 
C 1489.24 432.70 1488.78 444.65 1491.00 455.00
C 1491.00 444.00 1491.00 433.00 1491.00 422.00 Z"/>
</g>
<g fill="#9E1427" fill-opacity="0.02" stroke="None"><path d="
M 1291.00 448.00 
C 1289.31 454.19 1289.36 463.74 1291.00 470.00
C 1291.00 462.67 1291.00 455.33 1291.00 448.00 Z"/>
</g>
<g fill="#040C0D" fill-opacity="0.00" stroke="None"><path d="
M 1041.00 586.00 
C 1048.52 585.08 1058.56 582.72 1066.00 585.00
C 1092.61 583.18 1117.15 571.33 1135.25 554.25 C 1157.26 533.92 1154.28 502.95 1154.00 476.00
C 1114.55 477.14 1071.62 473.64 1033.01 478.01 C 1003.45 478.06 963.59 498.07 969.78 533.78 C 967.64 569.30 1009.23 587.39 1041.00 586.00 Z"/>
</g>
<g fill="#9E1427" fill-opacity="0.08" stroke="None"><path d="
M 2720.00 485.00 
C 2730.67 485.00 2741.33 485.00 2752.00 485.00
C 2743.14 481.70 2728.93 481.72 2720.00 485.00 Z"/>
</g>
<g fill="#9E1427" fill-opacity="0.93" stroke="None"><path d="
M 2752.00 485.00 
C 2741.33 485.00 2730.67 485.00 2720.00 485.00
C 2677.47 485.23 2642.11 523.31 2646.00 566.00
C 2657.17 564.83 2666.28 568.55 2676.93 568.07 C 2685.19 567.09 2702.36 577.32 2700.22 562.22 C 2699.88 543.04 2716.31 526.14 2735.99 528.01 C 2767.71 529.68 2771.60 574.04 2752.75 593.75 C 2715.13 636.74 2657.64 669.60 2642.78 728.78 C 2639.40 738.99 2638.93 751.38 2654.00 747.00 C 2700.67 747.00 2747.34 747.00 2794.00 747.00 C 2802.80 744.83 2823.17 753.35 2820.00 738.00 C 2820.00 726.33 2820.00 714.67 2820.00 703.00 C 2819.85 689.79 2800.63 698.50 2792.00 696.00 C 2768.67 696.00 2745.33 696.00 2722.00 696.00
C 2752.63 660.88 2790.86 637.95 2812.08 597.08 C 2836.48 551.21 2805.16 486.09 2752.00 485.00 Z"/>
</g>
<g fill="#9E1427" fill-opacity="0.02" stroke="None"><path d="
M 1291.00 505.00 
C 1289.31 510.85 1289.37 520.08 1291.00 526.00
C 1291.00 519.00 1291.00 512.00 1291.00 505.00 Z"/>
</g>
<g fill="#9E1427" fill-opacity="0.02" stroke="None"><path d="
M 1291.00 531.00 
C 1289.33 549.86 1289.34 572.07 1291.00 591.00
C 1291.00 571.00 1291.00 551.00 1291.00 531.00 Z"/>
</g>
<g fill="#9E1427" fill-opacity="0.00" stroke="None"><path d="
M 1041.00 586.00 
C 1049.61 586.77 1057.47 584.53 1066.00 585.00
C 1058.56 582.72 1048.52 585.08 1041.00 586.00 Z"/>
</g>
<g fill="#9E1427" fill-opacity="0.01" stroke="None"><path d="
M 768.00 650.00 
C 766.31 656.19 766.36 665.74 768.00 672.00
C 768.00 664.67 768.00 657.33 768.00 650.00 Z"/>
</g>
<g fill="#9E1427" fill-opacity="0.00" stroke="None"><path d="
M 1024.00 682.00 
C 1019.16 682.60 1013.09 680.76 1009.00 683.00
C 1013.84 682.40 1019.91 684.24 1024.00 682.00 Z"/>
</g>
<g fill="#9E1427" fill-opacity="0.01" stroke="None"><path d="
M 1624.00 682.00 
C 1612.82 682.66 1600.43 680.68 1590.00 683.00
C 1601.18 682.34 1613.58 684.32 1624.00 682.00 Z"/>
</g>
<g fill="#9E1427" fill-opacity="0.09" stroke="None"><path d="
M 2154.00 764.00 
C 2153.23 763.17 2151.52 763.57 2150.00 763.00
C 2146.04 755.69 2151.59 744.82 2161.00 747.00
C 2159.09 742.43 2149.51 747.83 2147.80 752.75 C 2145.31 756.45 2150.17 768.46 2154.00 764.00 Z"/>
</g>
<g fill="#9E1427" fill-opacity="0.08" stroke="None"><path d="
M 2166.00 758.00 
C 2166.61 760.44 2165.51 761.66 2164.00 763.00
C 2170.78 762.95 2170.76 747.25 2163.00 746.00
C 2164.71 749.43 2169.60 753.59 2166.00 758.00 Z"/>
</g>
<g fill="#040C0D" fill-opacity="0.98" stroke="None"><path d="
M 954.00 747.00 
C 943.82 745.07 938.12 761.87 948.93 764.07 C 958.49 767.80 963.45 750.31 954.00 747.00 Z"/>
</g>
<g fill="#040C0D" fill-opacity="0.98" stroke="None"><path d="
M 1341.00 747.00 
C 1330.59 744.96 1326.34 762.95 1337.32 764.66 C 1347.73 765.64 1350.18 750.38 1341.00 747.00 Z"/>
</g>
<g fill="#040C0D" fill-opacity="0.92" stroke="None"><path d="
M 2154.00 764.00 
C 2156.44 763.62 2156.23 767.18 2159.00 766.00
C 2158.76 763.27 2162.29 763.75 2164.00 763.00
C 2165.51 761.66 2166.61 760.44 2166.00 758.00
C 2167.31 752.91 2164.61 749.60 2161.00 747.00
C 2151.59 744.82 2146.04 755.69 2150.00 763.00
C 2151.52 763.57 2153.23 763.17 2154.00 764.00 Z"/>
</g>
<g fill="#040C0D" fill-opacity="0.98" stroke="None"><path d="
M 587.00 749.00 
C 582.42 748.99 579.37 748.03 575.00 748.00
C 569.50 786.26 559.37 821.93 553.00 860.00
C 571.05 865.38 569.19 842.76 570.03 832.04 C 574.47 824.54 573.13 810.32 581.25 801.25 C 588.60 791.52 602.41 789.87 612.30 793.70 C 625.48 798.42 620.66 814.36 618.78 824.78 C 617.37 836.00 611.74 846.22 612.00 860.00
C 616.00 860.00 620.00 860.00 624.00 860.00
C 626.19 838.58 637.07 817.91 631.97 796.03 C 623.39 775.17 594.99 777.94 580.00 790.00
C 581.22 774.07 585.46 764.76 587.00 749.00 Z"/>
</g>
<g fill="#9E1427" fill-opacity="0.09" stroke="None"><path d="
M 2266.00 749.00 
C 2250.03 753.61 2231.72 748.06 2215.00 748.00
C 2230.54 752.77 2248.76 752.01 2266.00 752.00
C 2266.00 751.00 2266.00 750.00 2266.00 749.00 Z"/>
</g>
<g fill="#040C0D" fill-opacity="0.98" stroke="None"><path d="
M 1088.00 787.00 
C 1098.50 791.59 1101.77 777.68 1104.75 770.75 C 1110.54 765.64 1114.06 749.22 1103.00 749.00 C 1090.50 747.72 1091.86 762.25 1097.00 769.00
C 1092.15 773.66 1091.00 781.76 1088.00 787.00 Z"/>
</g>
<g fill="#040C0D" fill-opacity="0.98" stroke="None"><path d="
M 2096.00 749.00 
C 2092.05 749.45 2087.54 747.98 2084.00 750.00
C 2079.30 787.46 2069.50 822.30 2063.00 860.00
C 2067.00 860.00 2071.00 860.00 2075.00 860.00
C 2079.65 842.64 2081.77 824.38 2086.98 807.02 C 2087.62 788.18 2096.92 768.24 2096.00 749.00 Z"/>
</g>
<g fill="#040C0D" fill-opacity="0.96" stroke="None"><path d="
M 90.00 806.00 
C 106.47 799.13 114.53 771.16 97.23 759.77 C 77.11 751.90 54.37 757.26 32.00 755.00
C 24.61 789.90 16.79 824.72 11.00 860.00
C 36.21 858.07 63.88 864.60 86.92 854.92 C 105.72 846.81 109.60 815.78 90.00 806.00
M 78.00 766.00 
C 87.12 767.67 97.50 775.16 92.22 786.22 C 89.79 795.97 79.01 800.25 70.00 801.00 C 59.32 799.12 43.40 804.86 36.03 797.97 C 39.43 788.32 40.26 777.83 42.93 767.93 C 52.95 763.50 66.59 767.24 78.00 766.00
M 27.00 849.00 
C 27.62 845.44 28.40 841.84 28.00 838.00
C 32.07 844.93 28.03 830.40 31.26 828.26 C 30.14 823.49 32.78 818.16 33.00 813.00
C 53.21 815.34 89.72 803.91 88.67 832.67 C 79.14 857.01 48.59 846.59 27.00 849.00 Z"/>
</g>
<g fill="#040C0D" fill-opacity="0.99" stroke="None"><path d="
M 501.00 763.00 
C 485.50 758.89 489.43 774.61 484.00 782.00
C 476.35 777.96 469.56 782.81 470.00 791.00
C 473.88 790.75 479.06 790.59 483.00 791.00
C 482.16 807.17 474.01 822.49 474.00 840.00 C 469.35 861.23 496.46 865.59 510.00 857.00
C 509.11 854.04 508.89 850.93 508.00 848.00
C 500.23 850.04 490.61 853.74 486.00 844.00 C 486.74 826.95 492.47 810.93 494.68 794.68 C 498.16 786.69 513.52 793.48 519.00 790.00
C 519.40 786.58 519.40 784.37 519.00 781.00
C 512.12 782.31 505.68 779.66 499.00 782.00
C 497.09 775.76 501.33 769.04 501.00 763.00 Z"/>
</g>
<g fill="#040C0D" fill-opacity="0.98" stroke="None"><path d="
M 1026.00 763.00 
C 1021.72 763.48 1016.87 761.94 1013.00 764.00
C 1013.05 766.10 1015.10 771.99 1012.00 768.00
C 1012.06 772.95 1010.44 777.47 1009.00 782.00
C 1001.54 778.73 993.71 782.06 995.00 791.00
C 1003.91 788.55 1011.43 792.83 1005.33 802.33 C 1003.30 817.15 997.97 831.38 998.00 847.00 C 1000.33 863.31 1023.97 863.85 1035.00 856.00
C 1033.29 853.20 1033.47 849.86 1032.00 847.00
C 1026.06 851.52 1023.23 849.16 1016.00 851.00
C 1003.54 836.66 1017.75 816.44 1019.07 799.07 C 1018.44 784.98 1034.43 793.95 1043.00 792.00
C 1043.36 788.02 1044.52 784.55 1042.00 781.00
C 1036.00 781.12 1029.37 781.22 1023.00 782.00
C 1022.53 775.28 1025.72 769.50 1026.00 763.00 Z"/>
</g>
<g fill="#040C0D" fill-opacity="0.98" stroke="None"><path d="
M 1638.00 763.00 
C 1634.00 763.00 1630.00 763.00 1626.00 763.00
C 1625.28 768.75 1622.98 774.00 1622.92 779.92 C 1619.84 785.51 1612.32 778.70 1608.00 782.00
C 1611.14 785.59 1605.94 788.22 1607.00 792.00
C 1611.00 792.00 1615.00 792.00 1619.00 792.00
C 1616.86 809.58 1611.72 824.99 1610.99 841.99 C 1605.83 861.43 1637.66 867.02 1646.93 855.07 C 1646.63 843.62 1634.20 851.55 1628.00 851.00
C 1617.36 836.14 1628.85 816.79 1630.22 800.22 C 1629.17 786.20 1646.29 794.82 1654.07 791.07 C 1661.37 777.40 1643.44 781.36 1635.00 781.00
C 1636.21 774.78 1635.57 768.23 1638.00 763.00 Z"/>
</g>
<g fill="#040C0D" fill-opacity="0.01" stroke="None"><path d="
M 78.00 766.00 
C 66.59 767.24 52.95 763.50 42.93 767.93 C 40.26 777.83 39.43 788.32 36.03 797.97 C 43.40 804.86 59.32 799.12 70.00 801.00 C 79.01 800.25 89.79 795.97 92.22 786.22 C 97.50 775.16 87.12 767.67 78.00 766.00
M 73.00 799.00 
C 62.57 801.32 50.18 799.34 39.00 800.00
C 49.43 797.68 61.82 799.66 73.00 799.00 Z"/>
</g>
<g fill="#9E1427" fill-opacity="0.10" stroke="None"><path d="
M 2741.00 781.00 
C 2743.42 782.12 2742.51 783.80 2742.00 786.00
C 2747.02 787.22 2741.20 774.07 2741.00 781.00 Z"/>
</g>
<g fill="#040C0D" fill-opacity="0.97" stroke="None"><path d="
M 242.00 825.00 
C 258.67 825.00 275.33 825.00 292.00 825.00 C 311.90 830.57 305.37 803.77 299.75 794.25 C 272.22 757.29 215.19 800.62 231.23 839.77 C 241.34 866.07 277.79 865.66 297.00 850.00
C 297.17 846.47 291.86 845.53 292.00 842.00
C 281.59 846.64 270.36 853.27 258.02 848.98 C 247.12 847.13 239.29 835.61 242.00 825.00
M 293.00 815.00 
C 276.67 815.00 260.33 815.00 244.00 815.00
C 245.13 785.55 296.15 782.60 293.00 815.00 Z"/>
</g>
<g fill="#040C0D" fill-opacity="0.96" stroke="None"><path d="
M 430.00 782.00 
C 419.65 777.02 413.82 784.91 414.75 793.74 C 409.35 794.79 406.66 782.33 398.68 782.32 C 366.00 771.39 336.57 808.63 346.02 838.98 C 352.07 865.34 387.04 865.89 404.00 851.00
C 403.64 854.12 401.47 856.68 402.00 860.00
C 406.00 860.00 410.00 860.00 414.00 860.00
C 419.17 834.16 422.83 807.92 430.00 782.00
M 408.00 807.00 
C 408.11 807.47 408.00 808.00 408.00 808.00
C 412.60 825.57 400.83 850.10 380.00 849.00 C 355.48 851.99 353.08 819.53 363.77 804.77 C 373.21 789.38 403.34 785.85 408.00 807.00 Z"/>
</g>
<g fill="#040C0D" fill-opacity="0.97" stroke="None"><path d="
M 740.00 842.00 
C 725.18 852.27 698.17 856.28 691.33 834.67 C 684.70 819.45 706.44 826.54 715.00 825.00 C 727.22 824.80 739.52 825.40 751.69 824.69 C 759.10 806.66 747.54 782.44 727.07 780.93 C 695.68 775.16 671.55 808.61 680.22 837.78 C 682.71 857.89 709.48 865.03 726.98 858.98 C 734.90 858.09 748.33 851.07 740.00 842.00
M 692.00 816.00 
C 694.38 787.39 742.45 782.70 742.66 814.68 C 726.79 817.75 708.72 815.13 692.00 816.00 Z"/>
</g>
<g fill="#040C0D" fill-opacity="0.98" stroke="None"><path d="
M 1200.00 796.00 
C 1210.76 783.02 1189.90 781.21 1180.68 780.34 C 1158.68 774.35 1130.44 802.64 1152.78 820.22 C 1162.37 825.82 1174.05 825.75 1183.25 830.75 C 1192.95 840.72 1177.98 853.16 1168.00 850.00 C 1156.09 853.39 1149.12 845.01 1138.00 844.00
C 1138.67 847.50 1134.62 848.87 1134.00 852.00
C 1146.48 860.66 1162.80 862.55 1177.78 859.78 C 1192.85 857.66 1200.72 844.12 1199.00 830.00
C 1190.33 813.13 1166.95 820.39 1157.00 806.00 C 1158.25 784.25 1186.79 791.59 1200.00 796.00 Z"/>
</g>
<g fill="#040C0D" fill-opacity="0.99" stroke="None"><path d="
M 1535.00 791.00 
C 1538.07 789.60 1543.36 789.17 1546.00 791.00
C 1550.44 791.93 1554.70 793.20 1558.78 795.22 C 1563.81 797.90 1563.13 789.37 1567.00 788.00
C 1550.79 776.41 1518.66 776.87 1508.93 797.93 C 1503.96 808.23 1510.56 821.32 1521.92 823.08 C 1530.62 829.05 1544.02 824.71 1549.00 834.00 C 1551.45 847.67 1536.39 852.49 1526.67 850.33 C 1516.18 852.32 1503.07 836.70 1497.36 850.30 C 1502.96 859.75 1517.42 860.11 1528.00 861.00 C 1550.05 866.04 1577.53 835.16 1552.25 820.76 C 1543.29 817.11 1533.19 815.52 1523.25 811.75 C 1512.58 802.56 1524.98 791.73 1535.00 791.00 Z"/>
</g>
<g fill="#040C0D" fill-opacity="0.97" stroke="None"><path d="
M 1830.00 795.00 
C 1821.86 775.85 1791.41 777.07 1777.30 790.30 C 1761.70 804.52 1756.43 828.82 1766.25 847.75 C 1778.78 864.91 1806.76 864.83 1821.00 850.00
C 1820.96 853.52 1819.05 856.51 1819.00 860.00
C 1823.00 860.00 1827.00 860.00 1831.00 860.00
C 1834.33 841.68 1837.55 823.40 1841.67 804.67 C 1844.47 800.96 1841.50 787.87 1845.00 791.00
C 1843.36 786.94 1846.28 784.90 1845.00 781.00
C 1841.67 781.00 1838.33 781.00 1835.00 781.00
C 1833.82 786.04 1833.66 792.92 1830.00 795.00
M 1810.00 792.00 
C 1840.82 802.58 1822.94 856.64 1791.00 850.00 C 1759.48 839.84 1777.43 784.14 1810.00 792.00 Z"/>
</g>
<g fill="#040C0D" fill-opacity="0.98" stroke="None"><path d="
M 2245.00 780.00 
C 2212.97 779.91 2189.29 815.05 2202.70 844.30 C 2212.89 862.75 2241.96 866.42 2257.77 853.77 C 2271.02 850.01 2262.55 833.93 2253.30 844.30 C 2240.51 858.66 2206.78 847.22 2212.00 824.00 C 2211.02 802.37 2233.87 784.50 2253.75 793.25 C 2258.54 801.38 2273.20 804.52 2271.75 792.25 C 2264.79 784.03 2254.39 782.07 2245.00 780.00 Z"/>
</g>
<g fill="#040C0D" fill-opacity="0.97" stroke="None"><path d="
M 2447.00 794.00 
C 2435.68 775.30 2407.67 777.39 2393.25 791.25 C 2378.16 805.44 2374.37 828.20 2382.25 846.75 C 2393.99 866.62 2421.67 863.19 2437.00 851.00
C 2437.43 854.23 2435.30 856.73 2436.00 860.00
C 2440.00 860.00 2444.00 860.00 2448.00 860.00
C 2450.42 840.18 2454.94 822.45 2458.00 803.00
C 2461.53 813.14 2458.21 799.27 2460.22 795.22 C 2462.83 790.48 2463.67 780.31 2455.22 781.78 C 2446.89 778.08 2451.58 791.52 2447.00 794.00
M 2427.00 792.00 
C 2458.56 803.20 2438.17 857.57 2406.78 849.22 C 2375.35 837.81 2395.01 783.92 2427.00 792.00 Z"/>
</g>
<g fill="#040C0D" fill-opacity="0.96" stroke="None"><path d="
M 2742.00 786.00 
C 2742.51 783.80 2743.42 782.12 2741.00 781.00
C 2736.62 781.02 2732.67 782.42 2729.00 781.00
C 2730.18 785.91 2728.27 790.03 2728.00 795.00
C 2718.50 782.63 2701.47 775.76 2686.03 783.03 C 2657.19 793.68 2644.56 836.31 2670.76 856.25 C 2684.90 864.96 2703.73 860.73 2716.00 851.00
C 2716.18 854.11 2716.01 857.21 2715.00 860.00
C 2718.67 860.00 2722.33 860.00 2726.00 860.00
C 2732.41 834.26 2735.49 810.42 2742.00 786.00
M 2670.00 828.00 
C 2670.03 827.50 2670.00 827.00 2670.00 827.00
C 2668.83 807.06 2685.64 788.89 2705.67 792.33 C 2727.80 798.20 2724.18 826.87 2713.08 841.08 C 2699.98 855.75 2668.39 851.82 2670.00 828.00 Z"/>
</g>
<g fill="#040C0D" fill-opacity="0.99" stroke="None"><path d="
M 171.00 781.00 
C 167.67 781.00 164.33 781.00 161.00 781.00
C 154.90 809.63 150.14 831.98 145.00 860.00
C 162.15 865.19 158.42 845.45 162.07 835.08 C 163.83 815.65 173.45 789.31 198.00 792.00
C 197.69 788.06 199.94 784.81 200.00 781.00
C 187.38 779.38 179.64 787.03 170.00 792.00
C 169.51 788.10 171.72 784.94 171.00 781.00 Z"/>
</g>
<g fill="#040C0D" fill-opacity="0.98" stroke="None"><path d="
M 953.00 782.00 
C 942.83 777.27 938.68 784.45 938.31 793.31 C 932.92 816.21 929.26 837.34 925.00 860.00
C 939.71 864.73 938.78 850.14 941.67 840.67 C 944.68 820.34 947.90 801.73 953.00 782.00 Z"/>
</g>
<g fill="#040C0D" fill-opacity="0.99" stroke="None"><path d="
M 1339.00 781.00 
C 1329.30 779.47 1324.83 784.00 1325.78 793.78 C 1320.27 809.33 1319.79 822.26 1315.98 837.98 C 1310.43 851.11 1315.72 875.31 1298.00 879.00 C 1289.91 878.17 1280.52 875.25 1281.00 887.00
C 1295.44 893.74 1315.44 889.52 1321.02 873.02 C 1327.36 841.55 1334.36 810.70 1339.00 781.00 Z"/>
</g>
<g fill="#040C0D" fill-opacity="0.98" stroke="None"><path d="
M 1405.00 781.00 
C 1387.87 777.03 1394.27 796.12 1388.78 805.78 C 1385.35 817.61 1383.67 828.84 1384.22 841.78 C 1389.60 866.36 1422.45 864.58 1438.00 851.00
C 1438.69 854.28 1436.59 856.82 1437.00 860.00
C 1440.67 860.00 1444.33 860.00 1448.00 860.00
C 1453.99 832.39 1457.66 808.55 1464.00 782.00
C 1460.44 780.01 1455.98 781.42 1452.00 781.00
C 1448.97 799.82 1444.70 817.04 1439.75 834.75 C 1432.28 851.85 1403.30 858.41 1396.93 838.07 C 1394.90 818.60 1404.86 798.69 1405.00 781.00 Z"/>
</g>
<g fill="#040C0D" fill-opacity="0.98" stroke="None"><path d="
M 2029.00 796.00 
C 2018.56 775.86 1984.34 775.66 1970.25 793.25 C 1952.80 806.52 1950.56 835.17 1964.25 850.75 C 1979.65 866.99 2012.38 864.28 2023.00 844.00
C 2018.29 845.47 2017.57 839.94 2014.00 839.00
C 2006.19 851.16 1989.24 852.60 1977.25 846.75 C 1955.68 830.56 1972.41 790.66 1997.00 792.00 C 2010.45 784.74 2018.17 809.52 2029.00 796.00 Z"/>
</g>
<g fill="#040C0D" fill-opacity="0.98" stroke="None"><path d="
M 2144.00 860.00 
C 2146.65 839.90 2152.78 820.68 2155.68 800.68 C 2156.30 793.33 2164.83 777.44 2149.23 781.23 C 2142.96 787.67 2145.76 798.47 2141.93 806.92 C 2139.20 821.74 2135.04 842.00 2131.00 860.00
C 2135.33 860.00 2139.67 860.00 2144.00 860.00 Z"/>
</g>
<g fill="#040C0D" fill-opacity="0.98" stroke="None"><path d="
M 2527.00 844.00 
C 2522.66 834.02 2523.28 819.42 2519.80 807.25 C 2515.92 799.21 2521.91 775.51 2504.00 782.00
C 2505.13 785.63 2506.55 789.20 2507.00 793.00 C 2507.49 795.32 2505.60 805.49 2509.00 801.00
C 2509.54 822.00 2514.67 839.37 2518.00 860.00
C 2522.33 860.00 2526.67 860.00 2531.00 860.00
C 2541.16 839.17 2551.60 819.17 2564.00 800.00
C 2568.73 819.64 2571.89 839.71 2576.00 860.00
C 2580.33 860.00 2584.67 860.00 2589.00 860.00
C 2602.30 833.89 2617.21 807.32 2630.00 782.00
C 2613.26 776.77 2612.61 799.61 2603.99 807.99 C 2598.29 820.02 2591.22 833.73 2584.00 844.00
C 2579.56 824.06 2575.02 806.30 2572.59 784.75 C 2566.31 773.72 2555.78 787.75 2553.31 795.30 C 2544.31 811.96 2536.15 829.05 2527.00 844.00 Z"/>
</g>
<g fill="#040C0D" fill-opacity="0.98" stroke="None"><path d="
M 2861.00 781.00 
C 2857.33 781.00 2853.67 781.00 2850.00 781.00
C 2837.12 802.47 2823.30 825.16 2811.00 845.00
C 2805.22 833.81 2805.96 820.56 2800.99 809.01 C 2797.64 798.93 2799.24 777.38 2783.00 783.00
C 2788.89 799.92 2790.48 815.27 2795.68 832.32 C 2800.32 848.02 2805.54 871.97 2784.07 879.07 C 2775.56 882.97 2764.99 870.02 2762.00 884.00
C 2789.17 903.79 2811.34 870.27 2821.25 848.25 C 2834.71 825.74 2849.28 804.04 2861.00 781.00 Z"/>
</g>
<g fill="#040C0D" fill-opacity="0.84" stroke="None"><path d="
M 1535.00 791.00 
C 1537.54 792.72 1543.39 792.56 1546.00 791.00
C 1543.36 789.17 1538.07 789.60 1535.00 791.00 Z"/>
</g>
<g fill="#040C0D" fill-opacity="0.02" stroke="None"><path d="
M 293.00 815.00 
C 296.15 782.60 245.13 785.55 244.00 815.00
C 260.33 815.00 276.67 815.00 293.00 815.00 Z"/>
</g>
<g fill="#040C0D" fill-opacity="0.01" stroke="None"><path d="
M 408.00 808.00 
C 408.00 812.67 408.00 817.33 408.00 822.00
C 406.40 818.07 406.30 810.86 408.00 807.00
C 403.34 785.85 373.21 789.38 363.77 804.77 C 353.08 819.53 355.48 851.99 380.00 849.00 C 400.83 850.10 412.60 825.57 408.00 808.00 Z"/>
</g>
<g fill="#040C0D" fill-opacity="0.03" stroke="None"><path d="
M 692.00 816.00 
C 708.72 815.13 726.79 817.75 742.66 814.68 C 742.45 782.70 694.38 787.39 692.00 816.00 Z"/>
</g>
<g fill="#040C0D" fill-opacity="0.01" stroke="None"><path d="
M 1810.00 792.00 
C 1777.43 784.14 1759.48 839.84 1791.00 850.00 C 1822.94 856.64 1840.82 802.58 1810.00 792.00 Z"/>
</g>
<g fill="#040C0D" fill-opacity="0.01" stroke="None"><path d="
M 2427.00 792.00 
C 2395.01 783.92 2375.35 837.81 2406.78 849.22 C 2438.17 857.57 2458.56 803.20 2427.00 792.00 Z"/>
</g>
<g fill="#040C0D" fill-opacity="0.01" stroke="None"><path d="
M 2670.00 827.00 
C 2671.96 825.55 2670.56 822.20 2671.00 820.00
C 2673.19 823.09 2671.43 828.16 2672.00 832.00
C 2670.02 831.53 2672.11 828.40 2670.00 828.00
C 2668.39 851.82 2699.98 855.75 2713.08 841.08 C 2724.18 826.87 2727.80 798.20 2705.67 792.33 C 2685.64 788.89 2668.83 807.06 2670.00 827.00 Z"/>
</g>
<g fill="#9E1427" fill-opacity="0.00" stroke="None"><path d="
M 73.00 799.00 
C 61.82 799.66 49.43 797.68 39.00 800.00
C 50.18 799.34 62.57 801.32 73.00 799.00 Z"/>
</g>
<g fill="#9E1427" fill-opacity="0.00" stroke="None"><path d="
M 408.00 808.00 
C 408.00 808.00 408.11 807.47 408.00 807.00
C 406.30 810.86 406.40 818.07 408.00 822.00
C 408.00 817.33 408.00 812.67 408.00 808.00 Z"/>
</g>
<g fill="#040C0D" fill-opacity="0.01" stroke="None"><path d="
M 27.00 849.00 
C 48.59 846.59 79.14 857.01 88.67 832.67 C 89.72 803.91 53.21 815.34 33.00 813.00
C 32.78 818.16 30.14 823.49 31.26 828.26 C 28.03 830.40 32.07 844.93 28.00 838.00
C 28.40 841.84 27.62 845.44 27.00 849.00 Z"/>
</g>
<g fill="#9E1427" fill-opacity="0.00" stroke="None"><path d="
M 1760.00 819.00 
C 1758.30 823.19 1758.39 830.74 1760.00 835.00
C 1760.00 829.67 1760.00 824.33 1760.00 819.00 Z"/>
</g>
<g fill="#9E1427" fill-opacity="0.01" stroke="None"><path d="
M 2670.00 827.00 
C 2670.00 827.00 2670.03 827.50 2670.00 828.00
C 2672.11 828.40 2670.02 831.53 2672.00 832.00
C 2671.43 828.16 2673.19 823.09 2671.00 820.00
C 2670.56 822.20 2671.96 825.55 2670.00 827.00 Z"/>
</g>
<g fill="#9E1427" fill-opacity="0.01" stroke="None"><path d="
M 294.00 826.00 
C 277.98 828.50 259.29 826.02 244.00 827.00
C 259.89 827.90 279.25 830.06 294.00 826.00 Z"/>
</g>
<g fill="#9E1427" fill-opacity="0.01" stroke="None"><path d="
M 730.00 828.00 
C 726.96 823.30 718.52 828.94 713.00 827.00 C 707.01 827.61 700.26 826.10 695.00 827.00
C 705.68 829.33 718.50 827.33 730.00 828.00 Z"/>
</g>
<g fill="#040C0D" fill-opacity="0.99" stroke="None"><path d="
M 785.00 882.00 
C 798.63 883.53 800.55 865.06 806.07 856.07 C 813.53 838.39 784.47 841.06 789.00 857.00
C 798.12 862.03 786.31 874.49 785.00 882.00 Z"/>
</g>
<g fill="#9E1427" fill-opacity="0.07" stroke="None"><path d="
M 29.00 861.00 
C 22.35 859.58 11.54 864.18 8.00 858.00
C 8.62 865.71 23.57 861.34 29.00 861.00 Z"/>
</g>
<g fill="#9E1427" fill-opacity="0.02" stroke="None"><path d="
M 381.00 862.00 
C 378.17 863.58 374.46 860.39 372.00 863.00
C 374.54 864.26 379.52 865.23 381.00 862.00 Z"/>
</g>
<g fill="#9E1427" fill-opacity="0.01" stroke="None"><path d="
M 1416.00 862.00 
C 1412.79 862.98 1409.93 861.92 1407.00 863.00
C 1408.94 864.61 1414.69 865.03 1416.00 862.00 Z"/>
</g>
<g fill="#9E1427" fill-opacity="0.02" stroke="None"><path d="
M 1799.00 862.00 
C 1794.66 862.76 1791.30 862.93 1787.00 862.00
C 1789.10 865.20 1796.87 865.14 1799.00 862.00 Z"/>
</g>
<g fill="#9E1427" fill-opacity="0.02" stroke="None"><path d="
M 1997.00 862.00 
C 1992.72 862.85 1988.12 861.66 1985.00 863.00
C 1987.84 864.41 1994.84 865.39 1997.00 862.00 Z"/>
</g>
<g fill="#9E1427" fill-opacity="0.02" stroke="None"><path d="
M 2414.00 862.00 
C 2410.46 863.61 2407.24 861.29 2404.00 863.00
C 2406.24 864.54 2412.41 865.17 2414.00 862.00 Z"/>
</g>
</svg>