<svg xmlns="http://www.w3.org/2000/svg" width="1080" height="967" viewBox="0 0 1080 967"><path fill="none" fill-opacity="0" stroke="none" stroke-opacity="0" stroke-width=".3" d="M0 967h1080V0H0zm433-734c-48.8 3.4-93.3 36.4-116 79-54.3 103.7-54.7 244.5 2.3 347.8C344.4 702.4 388.5 735 439 736c14-1.4 8 19 11 28 1.8 10.2 6.1 23.6 1.9 32.9-15.6-9-37.7-25.8-55.1-9.1-27.9 29-27.3 87.4-1.6 118 8.2 8.2 21.4 6.8 32 5.4 10.2-1.6 15.9-12.9 25.8-14.2 1.2 12-1.5 24.6-3.3 36.7-3 10.4 2.3 32.2-15.7 27.3-200.7 1.8-372-167.7-410-357-51.4-209 37-448.6 231.3-550.7A444 444 0 0 1 422 7c18.9-4.1 6.7 18 8 28-5 19.6-8.3 61 23 55 10.4-2 16.6-12.3 26.2-15.8C492.8 70.6 499 85.4 500 96c4.4 21.8 6.7 52.4-11 68-11.5 4.6-19.7-7.7-28.7-12.3-9-6-23.7-5.4-29.2 5.4-10 24.3 1.9 50.7 1.9 75.9m14-163c1.6-21.2 3.6-42.2 7-63 206.8 1.8 381.5 179.5 413 377 47.5 224.6-70.2 481.7-292.7 556.3A387 387 0 0 1 477 960c-16.1 5.9-7.2-15.4-7-24 2.4-19.6 11.2-48.9-11.2-59.8-20-8.3-36.5 30.2-53.6 10.6-11-19.8-9.3-45.8-5.2-67.8 1.9-9.3 9.8-22 21-17 12.9 12.3 41.1 26.6 49.3 2.3 8-23-3.6-46.9-3-70C564 714.6 603.6 607 608 519c6.5-94.8-8.7-203.8-88-263a118 118 0 0 0-57-22c-15.3 1.3-8.7-18.2-12.8-27.2 0-12.3-2.5-23.7-3.2-35.8 8-4 15.4 10.9 24.7 11.3 37 14.4 53.2-32.4 51.3-61.3 2-29.3-12-77-50-65-9.3 2.8-16.2 10.5-25 14m625 891c-69.7-.1-135.4 2.2-206 0-15.6 1.7-3.8-17.6-5-26 20-69.6 86.2-109.6 131.3-162.7 17.8-20.9 23-61-3-77.5-28.4-16.3-64.7 7.8-61.3 40.2.7 13.9-18.6 3.7-26.7 4.7-11.2-.8-22-3-33.3-3.7-10.6-3.6-.6-19.5-1-28 18-90.8 169.6-98.1 199.8-12.8 25.4 67.8-30.6 126.2-77.5 167a232 232 0 0 0-35.9 37.5c8.5 6 22-.7 32.6 1.3h74c17.2-4.8 11 14.7 12 25-.3 11.7.5 24 0 35"/><path fill="none" fill-opacity="0" stroke="#9e1427" stroke-width=".3" d="M433 233c0-25.2-12-51.6-2-76 5.6-10.7 20.4-11.4 29.3-5.3 9 4.6 17.2 16.9 28.6 12.2 17.8-15.5 15.6-46.1 11-67.9-.9-10.6-7.1-25.4-20.7-21.8C469.6 77.7 463.4 88 453 90c-31.3 6-28-35.4-23-55-1.3-10 10.9-32.1-8-28a444 444 0 0 0-166.7 46.3C60.9 155.4-27.4 395 24 604c38 189.3 209.3 358.8 410 357 18 4.9 12.7-16.9 15.7-27.3 1.8-12 4.5-24.7 3.3-36.7-10 1.3-15.6 12.6-25.8 14.2-10.6 1.4-23.8 2.8-32-5.4-25.7-30.6-26.2-89 1.6-118 17.4-16.7 39.5.2 55.1 9.1 4.2-9.3-.1-22.7-1.9-32.9-3-9 3-29.4-11-28-50.5-1-94.6-33.6-119.7-76.2-57-103.3-56.6-244.1-2.2-347.7 22.6-42.7 67.1-75.7 115.9-79.1Z"/><path fill="none" fill-opacity="0" stroke="#9e1427" stroke-width=".3" d="M448 70c8.8-3.5 15.7-11.2 25-14 38-12 52 35.7 50 65 1.9 28.9-14.3 75.7-51.3 61.3-9.3-.4-16.8-15.3-24.7-11.3.7 12 3.1 23.5 3.2 35.8 4 9-2.5 28.5 12.8 27.2 20.6 2.5 40.2 9.6 57 22 79.3 59.2 94.5 168.2 88 263-4.4 88-44.1 195.6-140.7 215.3-.6 23.1 11 47 3 70-8.2 24.4-36.4 10-49.2-2.4-11.3-4.8-19.2 7.8-21.1 17.1-4 22-5.7 48 5.2 67.8 17.1 19.6 33.6-18.9 53.6-10.6 22.4 11 13.6 40.2 11.2 59.8-.2 8.6-9.1 29.9 7 24 33.6-2 66.6-9.6 97.3-19.7C796.8 865.7 914.5 608.6 867 384 835.5 186.5 660.8 8.8 454 7a773 773 0 0 0-7 63Z"/><path fill="none" fill-opacity="0" stroke="#9e1427" stroke-opacity=".9" stroke-width=".3" d="M1073 961c.5-11-.3-23.3 0-35-1-10.3 5.2-29.8-12-25h-74c-10.7-2-24.1 4.6-32.6-1.2a232 232 0 0 1 35.9-37.5c46.9-40.9 102.9-99.2 77.5-167C1037.6 609.8 886 617.1 868 708c.4 8.5-9.6 24.4 1 28 11.3.6 22.1 3 33.3 3.7 8.1-1 27.4 9.2 26.7-4.7-3.4-32.4 32.9-56.5 61.3-40.2 26 16.6 20.8 56.6 3 77.5-45 53-111.2 93-131.3 162.7 1.2 8.4-10.6 27.7 5 26 70.6 2.2 136.3-.1 206 0Z"/><path fill="none" fill-opacity="0" d="M0 967h1080V0H0zm433-734c-48.8 3.4-93.3 36.4-116 79-54.3 103.7-54.7 244.5 2.3 347.8C344.4 702.4 388.5 735 439 736c14-1.4 8 19 11 28 1.8 10.2 6.1 23.6 1.9 32.9-15.6-9-37.7-25.8-55.1-9.1-27.9 29-27.3 87.4-1.6 118 8.2 8.2 21.4 6.8 32 5.4 10.2-1.6 15.9-12.9 25.8-14.2 1.2 12-1.5 24.6-3.3 36.7-3 10.4 2.3 32.2-15.7 27.3-200.7 1.8-372-167.7-410-357-51.4-209 37-448.6 231.3-550.7A444 444 0 0 1 422 7c18.9-4.1 6.7 18 8 28-5 19.6-8.3 61 23 55 10.4-2 16.6-12.3 26.2-15.8C492.8 70.6 499 85.4 500 96c4.4 21.8 6.7 52.4-11 68-11.5 4.6-19.7-7.7-28.7-12.3-9-6-23.7-5.4-29.2 5.4-10 24.3 1.9 50.7 1.9 75.9m14-163c1.6-21.2 3.6-42.2 7-63 206.8 1.8 381.5 179.5 413 377 47.5 224.6-70.2 481.7-292.7 556.3A387 387 0 0 1 477 960c-16.1 5.9-7.2-15.4-7-24 2.4-19.6 11.2-48.9-11.2-59.8-20-8.3-36.5 30.2-53.6 10.6-11-19.8-9.3-45.8-5.2-67.8 1.9-9.3 9.8-22 21-17 12.9 12.3 41.1 26.6 49.3 2.3 8-23-3.6-46.9-3-70C564 714.6 603.6 607 608 519c6.5-94.8-8.7-203.8-88-263a118 118 0 0 0-57-22c-15.3 1.3-8.7-18.2-12.8-27.2 0-12.3-2.5-23.7-3.2-35.8 8-4 15.4 10.9 24.7 11.3 37 14.4 53.2-32.4 51.3-61.3 2-29.3-12-77-50-65-9.3 2.8-16.2 10.5-25 14m625 891c-69.7-.1-135.4 2.2-206 0-15.6 1.7-3.8-17.6-5-26 20-69.6 86.2-109.6 131.3-162.7 17.8-20.9 23-61-3-77.5-28.4-16.3-64.7 7.8-61.3 40.2.7 13.9-18.6 3.7-26.7 4.7-11.2-.8-22-3-33.3-3.7-10.6-3.6-.6-19.5-1-28 18-90.8 169.6-98.1 199.8-12.8 25.4 67.8-30.6 126.2-77.5 167a232 232 0 0 0-35.9 37.5c8.5 6 22-.7 32.6 1.3h74c17.2-4.8 11 14.7 12 25-.3 11.7.5 24 0 35"/><path fill="#9e1427" d="M433 233c0-25.2-12-51.6-2-76 5.6-10.7 20.4-11.4 29.3-5.3 9 4.6 17.2 16.9 28.6 12.2 17.8-15.5 15.6-46.1 11-67.9-.9-10.6-7.1-25.4-20.7-21.8C469.6 77.7 463.4 88 453 90c-31.3 6-28-35.4-23-55-1.3-10 10.9-32.1-8-28a444 444 0 0 0-166.7 46.3C60.9 155.4-27.4 395 24 604c38 189.3 209.3 358.8 410 357 18 4.9 12.7-16.9 15.7-27.3 1.8-12 4.5-24.7 3.3-36.7-10 1.3-15.6 12.6-25.8 14.2-10.6 1.4-23.8 2.8-32-5.4-25.7-30.6-26.2-89 1.6-118 17.4-16.7 39.5.2 55.1 9.1 4.2-9.3-.1-22.7-1.9-32.9-3-9 3-29.4-11-28-50.5-1-94.6-33.6-119.7-76.2-57-103.3-56.6-244.1-2.2-347.7 22.6-42.7 67.1-75.7 115.9-79.1"/><path fill="#9e1427" d="M448 70c8.8-3.5 15.7-11.2 25-14 38-12 52 35.7 50 65 1.9 28.9-14.3 75.7-51.3 61.3-9.3-.4-16.8-15.3-24.7-11.3.7 12 3.1 23.5 3.2 35.8 4 9-2.5 28.5 12.8 27.2 20.6 2.5 40.2 9.6 57 22 79.3 59.2 94.5 168.2 88 263-4.4 88-44.1 195.6-140.7 215.3-.6 23.1 11 47 3 70-8.2 24.4-36.4 10-49.2-2.4-11.3-4.8-19.2 7.8-21.1 17.1-4 22-5.7 48 5.2 67.8 17.1 19.6 33.6-18.9 53.6-10.6 22.4 11 13.6 40.2 11.2 59.8-.2 8.6-9.1 29.9 7 24 33.6-2 66.6-9.6 97.3-19.7C796.8 865.7 914.5 608.6 867 384 835.5 186.5 660.8 8.8 454 7a773 773 0 0 0-7 63Z"/><path fill="#9e1427" fill-opacity=".9" d="M1073 961c.5-11-.3-23.3 0-35-1-10.3 5.2-29.8-12-25h-74c-10.7-2-24.1 4.6-32.6-1.2a232 232 0 0 1 35.9-37.5c46.9-40.9 102.9-99.2 77.5-167C1037.6 609.8 886 617.1 868 708c.4 8.5-9.6 24.4 1 28 11.3.6 22.1 3 33.3 3.7 8.1-1 27.4 9.2 26.7-4.7-3.4-32.4 32.9-56.5 61.3-40.2 26 16.6 20.8 56.6 3 77.5-45 53-111.2 93-131.3 162.7 1.2 8.4-10.6 27.7 5 26 70.6 2.2 136.3-.1 206 0"/></svg>